<?xml version="1.0" encoding="UTF-8" standalone="no"?>
<!-- Created with Inkscape (http://www.inkscape.org/) -->

<svg
   version="1.1"
   id="svg1"
   width="340"
   height="488"
   viewBox="0 0 340 488"
   sodipodi:docname="image_white.svg"
   inkscape:version="1.3.2 (091e20e, 2023-11-25)"
   xmlns:inkscape="http://www.inkscape.org/namespaces/inkscape"
   xmlns:sodipodi="http://sodipodi.sourceforge.net/DTD/sodipodi-0.dtd"
   xmlns="http://www.w3.org/2000/svg"
   xmlns:svg="http://www.w3.org/2000/svg">
  <defs
     id="defs1">
    <clipPath
       clipPathUnits="userSpaceOnUse"
       id="clipPath3">
      <path
         d="M 0,366 H 255 V 0 H 0 Z"
         transform="translate(-121.1796,-172.64811)"
         id="path3" />
    </clipPath>
    <clipPath
       clipPathUnits="userSpaceOnUse"
       id="clipPath5">
      <path
         d="M 0,366 H 255 V 0 H 0 Z"
         transform="translate(-143.91651,-87.881905)"
         id="path5" />
    </clipPath>
    <clipPath
       clipPathUnits="userSpaceOnUse"
       id="clipPath7">
      <path
         d="M 0,366 H 255 V 0 H 0 Z"
         transform="translate(-177,-190.06)"
         id="path7" />
    </clipPath>
    <clipPath
       clipPathUnits="userSpaceOnUse"
       id="clipPath9">
      <path
         d="M 0,366 H 255 V 0 H 0 Z"
         transform="translate(-158.04,-85.910005)"
         id="path9" />
    </clipPath>
    <clipPath
       clipPathUnits="userSpaceOnUse"
       id="clipPath11">
      <path
         d="M 0,366 H 255 V 0 H 0 Z"
         transform="translate(-119.69001,-274.17001)"
         id="path11" />
    </clipPath>
    <clipPath
       clipPathUnits="userSpaceOnUse"
       id="clipPath13">
      <path
         d="M 0,366 H 255 V 0 H 0 Z"
         transform="translate(-146.54001,-278.46001)"
         id="path13" />
    </clipPath>
    <clipPath
       clipPathUnits="userSpaceOnUse"
       id="clipPath15">
      <path
         d="M 0,366 H 255 V 0 H 0 Z"
         transform="translate(-135.06,-279.71001)"
         id="path15" />
    </clipPath>
    <clipPath
       clipPathUnits="userSpaceOnUse"
       id="clipPath17">
      <path
         d="M 0,366 H 255 V 0 H 0 Z"
         transform="translate(-121.2,-131.65)"
         id="path17" />
    </clipPath>
    <clipPath
       clipPathUnits="userSpaceOnUse"
       id="clipPath19">
      <path
         d="M 0,366 H 255 V 0 H 0 Z"
         transform="translate(-118.25001,-142.34001)"
         id="path19" />
    </clipPath>
    <clipPath
       clipPathUnits="userSpaceOnUse"
       id="clipPath21">
      <path
         d="M 0,366 H 255 V 0 H 0 Z"
         transform="translate(-131.92,-119.28)"
         id="path21" />
    </clipPath>
    <clipPath
       clipPathUnits="userSpaceOnUse"
       id="clipPath23">
      <path
         d="M 0,366 H 255 V 0 H 0 Z"
         transform="translate(-127.86,-113.95)"
         id="path23" />
    </clipPath>
    <clipPath
       clipPathUnits="userSpaceOnUse"
       id="clipPath25">
      <path
         d="M 0,366 H 255 V 0 H 0 Z"
         transform="translate(-165.72,-328.79001)"
         id="path25" />
    </clipPath>
  </defs>
  <sodipodi:namedview
     id="namedview1"
     pagecolor="#ffffff"
     bordercolor="#000000"
     borderopacity="0.25"
     inkscape:showpageshadow="2"
     inkscape:pageopacity="0.0"
     inkscape:pagecheckerboard="0"
     inkscape:deskcolor="#d1d1d1"
     inkscape:zoom="2.2082413"
     inkscape:cx="185.44169"
     inkscape:cy="141.96818"
     inkscape:window-width="1888"
     inkscape:window-height="920"
     inkscape:window-x="21"
     inkscape:window-y="89"
     inkscape:window-maximized="0"
     inkscape:current-layer="svg1">
    <inkscape:page
       x="0"
       y="0"
       inkscape:label="1"
       id="page1"
       width="340"
       height="488"
       margin="0"
       bleed="0" />
  </sodipodi:namedview>
  <g
     id="layer-MC1"
     inkscape:groupmode="layer"
     inkscape:label="#FFFFFF"
     style="display:inline">
    <path
       id="path2"
       d="M 0,0 0.04,0.08 -0.01,0.1 V 0 Z m 22.85,67.72 c 0.91,0.06 1.72,0.09 2.52,0.19 0.29,0.04 0.56,0.25 0.81,0.41 0.07,0.05 0.13,0.22 0.1,0.31 -0.02,0.07 -0.18,0.15 -0.27,0.14 -0.59,-0.07 -1.2,-0.09 -1.75,-0.28 -0.49,-0.17 -1.12,-0.18 -1.42,-0.76 z M 8.3,51.89 c 1.09,2.2 1.52,4.44 1.06,5.46 C 8.99,55.46 8.65,53.67 8.3,51.89 m 11.43,3.33 c 1.65,0.47 2.28,1.61 2.82,2.81 0.07,0.15 0,0.35 0,0.53 -0.22,-0.02 -0.53,0.04 -0.64,-0.08 -0.87,-0.91 -1.53,-1.96 -2.18,-3.26 M -1.71,37.36 c 0.72,0.98 1.4,2.56 1.59,3.58 0.11,0.58 -0.11,0.81 -0.68,0.75 -0.43,-0.05 -0.63,-0.35 -0.72,-0.7 -0.2,-0.77 -0.4,-1.54 -0.48,-2.32 -0.04,-0.38 0.17,-0.8 0.3,-1.31 z m 11.93,7.18 c 0.11,-0.21 0.22,-0.4 0.33,-0.6 0.16,0.09 0.39,0.15 0.48,0.29 0.74,1.09 1.46,2.18 2.16,3.29 0.24,0.39 0.07,0.75 -0.37,0.75 -0.32,0 -0.71,-0.12 -0.95,-0.32 -1.04,-0.88 -1.23,-2.18 -1.65,-3.41 m -51.18,55.29 c 1,0.05 1.74,0.51 2.37,1.21 0.58,0.65 1.21,1.25 1.83,1.87 0.17,0.17 0.37,0.31 0.53,0.48 0.24,0.27 0.32,0.54 -0.02,0.81 -0.3,0.25 -0.57,0.53 -0.95,0.89 -1.26,-1.77 -2.49,-3.5 -3.75,-5.27 z M 5.12,61.59 c 0.16,0.65 0.3,1.22 0.45,1.78 0.1,0.38 0,0.56 -0.42,0.66 C 3.89,64.34 2.62,64.22 1.36,64.14 1.05,64.12 0.75,63.86 0.32,63.66 1.95,62.95 3.43,62.32 5.11,61.59 Z m -19.31,-5.65 c 0,0 -0.07,0.01 -0.11,0.02 v 0.6 c -0.02,0.59 -0.37,0.86 -0.91,0.68 -0.43,-0.15 -0.75,-0.41 -0.8,-0.93 -0.15,-1.37 -0.37,-2.74 -0.47,-4.11 -0.03,-0.48 -0.32,-1.31 0.4,-1.41 0.61,-0.09 0.83,0.73 1.15,1.21 0.04,0.06 0.04,0.15 0.06,0.23 0.23,1.24 0.34,2.49 0.57,3.73 z m 40.93,9.04 c -1.13,0.33 -2.07,0.64 -3.03,0.88 -0.77,0.19 -0.88,0.11 -1.04,-0.71 -0.2,-1.07 -0.64,-2.03 -1.15,-2.99 -0.55,-1.04 -1.12,-2.09 -1.41,-3.34 1.25,0.86 1.41,1 2.34,0.76 0.7,-0.18 0.96,0.1 1.17,0.63 0.54,1.4 1.4,2.59 2.38,3.7 0.23,0.27 0.41,0.58 0.74,1.06 z M 8.52,40.72 c 0.35,0.48 0.71,0.95 1.06,1.43 0.2,0.27 0.32,0.54 0.1,0.87 -0.49,0.73 -0.41,1.52 -0.18,2.3 0.24,0.8 0.44,1.62 0.77,2.39 0.37,0.86 0.98,1.56 1.83,2 0.61,0.32 1.16,-0.02 1.68,-0.31 0.33,-0.18 0.54,-0.02 0.68,0.26 0.34,0.67 0.76,1.32 0.98,2.04 0.45,1.4 0.81,2.83 1.17,4.26 0.52,2.06 1.28,4.02 2.24,5.91 0.21,0.41 0.3,0.87 0.44,1.29 -1.02,0.51 -1.92,0.17 -2.77,-0.08 -1.16,-0.35 -2.25,-0.49 -3.3,0.27 -0.31,0.23 -0.62,0.16 -0.7,-0.29 -0.13,-0.7 -0.3,-1.4 -0.38,-2.11 -0.16,-1.46 -0.25,-2.93 -0.4,-4.4 C 11.66,55.72 11.61,54.87 11.37,54.08 10.68,51.79 9.87,49.54 9.17,47.25 8.52,45.14 8.4,42.96 8.52,40.74 Z m -26.93,11.47 c 0.19,1.56 0.34,3.06 0.55,4.55 0.12,0.84 0.14,1.85 1.48,1.64 0.1,-0.02 0.21,0.1 0.32,0.15 0.41,0.19 0.82,0.32 1.27,0.12 0.37,-0.16 0.51,0.08 0.57,0.39 0.04,0.2 0.07,0.4 0.06,0.59 -0.17,2.05 0.49,3.93 1.2,5.8 0.48,1.26 1.03,2.51 1.05,3.9 0.02,1.37 0.04,1.39 -1.31,1.66 -1.44,0.29 -2.88,0.59 -4.33,0.82 -0.95,0.15 -1.09,0.02 -1.07,-0.89 0.06,-2.33 -0.27,-4.6 -0.69,-6.88 -0.29,-1.55 -0.27,-3.16 -0.42,-4.74 -0.23,-2.4 0.47,-4.65 1.09,-6.91 0.02,-0.06 0.11,-0.1 0.23,-0.2 M -2.79,35.27 c 0.76,0.66 0.83,0.69 0.4,1.59 -0.74,1.54 -0.64,3.13 -0.21,4.66 0.42,1.48 0.73,2.07 2.44,1.63 0.08,-0.02 0.16,-0.03 0.24,-0.04 0.31,-0.05 0.53,0.04 0.65,0.37 0.62,1.76 1.41,3.48 1.29,5.43 -0.05,0.75 -0.07,1.54 0.08,2.27 0.37,1.79 0.84,3.55 1.29,5.32 0.23,0.88 0.5,1.76 0.77,2.63 0.12,0.39 0.07,0.6 -0.33,0.86 -0.95,0.61 -1.97,1.04 -3.04,1.34 -1.09,0.31 -2.2,0.56 -3.31,0.84 -0.05,-0.49 -0.16,-0.97 -0.12,-1.43 0.21,-2.68 -0.43,-5.28 -0.71,-7.91 -0.25,-2.38 -0.51,-4.74 -0.22,-7.14 0.1,-0.87 0.18,-1.75 0.16,-2.62 -0.02,-1.63 -0.15,-3.26 -0.18,-4.89 -0.02,-1.03 0.12,-2.04 0.8,-2.9 z M 0.38,1.36 C 0.46,1.53 0.58,1.7 0.63,1.88 1.09,3.49 1.56,5.09 2,6.71 c 0.64,2.35 1.19,4.72 1.91,7.04 1.56,5.06 3.17,10.1 4.83,15.13 1.02,3.1 2.13,6.18 3.26,9.24 0.76,2.06 1.64,4.07 2.43,6.11 0.31,0.8 0.53,1.64 0.79,2.46 -1.05,-1.2 -1.87,-2.53 -2.9,-3.67 C 11.4,41.99 10.71,40.85 10.02,39.68 9.84,39.37 9.65,39.06 9.44,38.77 9.3,38.58 9.14,38.39 8.95,38.25 8.28,37.73 7.35,37.99 7.12,38.79 6.87,39.67 6.57,40.54 6.67,41.48 6.71,41.81 6.63,42.16 6.61,42.5 4.18,28.83 2.3,15.1 0.38,1.35 Z M 54.9,145.11 c -0.32,1.2 -0.36,2.56 -1.3,3.6 -1.73,1.92 -3.43,3.87 -5.22,5.73 -1.66,1.72 -3.5,3.25 -5.11,5.01 -0.9,0.99 -1.267,2.21 -2.447,2.95 -0.09,0.06 -0.413,0.2 -0.473,0.3 -0.57,1.1 -1.69,1.66 -2.5,2.54 -0.23,0.25 -0.61,0.37 -0.93,0.54 -0.31,0.16 -0.58,0.12 -0.58,-0.28 0.01,-0.91 -0.08,-1.87 0.14,-2.73 0.49,-1.88 1.15,-3.72 1.76,-5.58 0.09,-0.26 0.21,-0.52 0.35,-0.75 1.03,-1.75 2.09,-3.48 3.1,-5.24 1.01,-1.76 2.53,-3.05 4.05,-4.33 2.06,-1.72 4.5,-2.83 6.86,-4.07 0.85,-0.45 1.71,-0.1 2.01,0.83 0.14,0.45 0.19,0.94 0.29,1.48 M -3.9,-5.84 c 0,0 0.08,0 0.12,0.01 0.11,0.69 0.25,1.37 0.34,2.06 0.31,2.44 0.6,4.89 0.93,7.33 0.12,0.87 0.34,1.72 0.47,2.58 0.41,2.64 0.76,5.28 1.2,7.91 0.69,4.12 1.42,8.23 2.16,12.33 0.57,3.13 1.17,6.26 1.78,9.39 0.56,2.89 1.17,5.78 1.74,8.67 0.39,1.95 0.71,3.92 1.13,5.86 0.47,2.18 1.05,4.34 1.54,6.51 0.52,2.29 1.06,4.58 1.45,6.9 0.41,2.39 1.1,4.71 1.32,7.15 0.31,3.38 -0.37,6.57 -1.01,9.8 0,0.02 -0.06,0.04 -0.16,0.1 C 9.02,80.49 8.89,80.24 8.85,79.98 8.47,77.02 7.53,74.15 7.59,71.13 7.59,71.01 7.58,70.89 7.56,70.77 7.19,68.78 7.36,66.8 7.73,64.84 7.98,63.5 7.78,62.2 7.43,60.95 6.79,58.65 5.97,56.4 5.26,54.12 5.02,53.36 4.9,52.57 4.69,51.8 4.34,50.49 4.02,49.18 4.12,47.8 4.2,46.71 4.01,45.66 3.62,44.63 2.56,41.84 1.48,39.06 0.47,36.26 c -0.46,-1.27 -1.2,-2.32 -2.11,-3.29 -0.77,-0.83 -1.15,-0.87 -1.7,0.15 -0.62,1.15 -1.08,2.39 -1.51,3.62 -0.22,0.63 -0.3,1.33 -0.31,2 -0.02,1.68 0.05,3.36 0.06,5.03 0,0.48 0,0.96 -0.08,1.43 -0.39,2.54 -0.43,5.08 -0.21,7.63 0.15,1.67 0.31,3.34 0.44,5.01 0.21,2.63 0.08,5.24 -0.12,7.87 -0.19,2.41 -0.35,4.85 -0.08,7.26 0.15,1.34 0.44,2.67 0.8,3.97 0.63,2.3 1.51,4.52 1.24,6.99 -0.15,1.34 -0.02,2.71 -0.51,4.02 -0.41,1.09 -0.61,2.22 -0.54,3.39 0.01,0.2 0,0.41 -0.08,0.59 -0.05,0.12 -0.2,0.29 -0.31,0.29 -0.12,0 -0.27,-0.14 -0.34,-0.26 -0.1,-0.17 -0.11,-0.39 -0.2,-0.56 -0.6,-1.15 -0.46,-2.46 -0.79,-3.68 -0.51,-1.87 -0.71,-3.83 -1.02,-5.76 -0.21,-1.34 -0.37,-2.68 -1.11,-3.86 -0.22,-0.35 -0.06,-0.67 0.06,-1.02 0.48,-1.4 0.55,-2.77 -0.03,-4.19 -0.35,-0.88 -0.68,-1.83 -0.7,-2.76 -0.05,-1.79 0.1,-3.58 0.22,-5.37 0.12,-1.86 0.29,-3.73 0.44,-5.59 0.15,-1.78 0.32,-3.56 0.48,-5.34 0.2,-2.18 0.45,-4.36 0.58,-6.55 0.14,-2.31 0.13,-4.63 0.23,-6.94 0.11,-2.63 0.26,-5.25 0.42,-7.88 0.12,-2.03 0.31,-4.05 0.44,-6.08 0.24,-3.57 0.47,-7.15 0.67,-10.72 0.13,-2.29 0.18,-4.59 0.27,-6.89 0.07,-1.64 0.13,-3.27 0.22,-4.91 0.05,-0.95 0.12,-1.91 0.2,-2.86 0.11,-1.31 0.24,-2.61 0.36,-3.92 0.09,-0.98 0.17,-1.96 0.25,-2.94 z M 29.34,-48.7 c -0.15,1.58 -0.2,3.18 -0.47,4.75 -0.77,4.48 -2.57,8.52 -5.37,12.1 -0.49,0.62 -1.04,1.2 -1.56,1.8 -1.4,1.64 -2.97,3.1 -4.74,4.34 -2.12,1.49 -4.32,2.82 -6.75,3.77 -2.01,0.79 -4.1,1.29 -6.21,1.69 -2.35,0.45 -4.77,0.13 -7.11,0.71 -0.22,0.05 -0.48,-0.02 -0.71,-0.05 -2.02,-0.27 -4,-0.73 -5.92,-1.41 -4.04,-1.42 -7.63,-3.59 -10.75,-6.53 -1.93,-1.82 -3.54,-3.88 -4.85,-6.18 -0.95,-1.67 -1.73,-3.41 -2.29,-5.25 -0.87,-2.84 -1.3,-5.75 -1.26,-8.73 0.04,-3.02 0.48,-5.96 1.49,-8.8 1.45,-4.07 3.65,-7.66 6.76,-10.7 5.5,-5.39 12.07,-8.32 19.76,-8.68 4.74,-0.22 9.27,0.65 13.61,2.6 3.93,1.76 7.25,4.31 10.03,7.56 2.8,3.29 4.78,7.04 5.62,11.32 0.37,1.88 0.69,3.76 0.73,5.69 z M -8.57,121.89 c 0.06,-0.03 0.12,-0.07 0.17,-0.1 -0.23,-0.66 -0.51,-1.3 -0.69,-1.97 -0.53,-1.99 -1.34,-3.82 -2.51,-5.53 -0.6,-0.88 -1.18,-1.84 -1.51,-2.84 -0.64,-2.01 -0.99,-4.09 -1.12,-6.21 -0.07,-1.18 -0.27,-2.38 -0.6,-3.52 -0.27,-0.94 -0.76,-1.84 -1.24,-2.71 -0.97,-1.75 -1.76,-3.58 -2.33,-5.49 -0.31,-1.01 -0.43,-2.12 -0.4,-3.18 0.07,-1.91 0.31,-3.81 0.49,-5.71 0.04,-0.39 -0.03,-0.88 0.18,-1.14 0.21,-0.25 0.71,-0.26 1.07,-0.39 0.48,-0.19 0.95,-0.43 1.44,-0.59 0.79,-0.25 1.58,-0.55 2.4,-0.65 0.63,-0.08 1.16,-0.25 1.65,-0.6 0.74,-0.54 1.52,-1.02 2.02,-1.84 0.21,-0.34 0.47,-0.27 0.55,0.14 0.13,0.66 0.14,1.35 0.3,2 0.41,1.7 0.9,3.39 1.3,5.09 0.25,1.08 0.65,2.22 0.54,3.29 -0.16,1.58 0.26,3.01 0.64,4.45 0.36,1.33 1.94,1.62 2.83,0.57 0.95,-1.12 1.5,-2.44 1.67,-3.91 0.13,-1.11 0.18,-2.23 0.38,-3.32 0.38,-2.06 0.49,-4.14 0.2,-6.18 -0.27,-1.88 -0.83,-3.72 -1.33,-5.56 -0.68,-2.48 -1.1,-4.96 -0.72,-7.53 0.04,-0.23 0.05,-0.47 0.04,-0.71 0,-1.3 0.18,-1.4 1.34,-0.84 0.57,0.28 1.16,0.72 1.74,0.74 1.26,0.02 2.56,0.2 3.78,-0.34 0.29,-0.13 0.6,-0.22 0.9,-0.33 0.37,-0.13 0.49,0.04 0.5,0.4 0.04,1.48 0.05,2.95 0.16,4.43 0.1,1.39 0.23,2.78 0.48,4.15 0.27,1.48 0.78,2.93 1.05,4.41 0.45,2.54 1.52,4.86 2.47,7.23 0.11,0.26 0.33,0.48 0.55,0.8 0.22,-1.13 0.43,-2.11 0.61,-3.08 0.52,-2.83 1.27,-5.59 2.26,-8.3 0.87,-2.39 1.14,-4.87 0.75,-7.41 -0.13,-0.85 -0.19,-1.71 -0.27,-2.55 0.17,-0.05 0.21,-0.07 0.25,-0.06 0.12,0.02 0.24,0.02 0.34,0.07 0.95,0.38 1.83,0.39 2.74,-0.2 0.37,-0.23 0.91,-0.22 1.38,-0.25 0.51,-0.03 1.03,0.03 1.55,0.03 0.67,0 0.68,0.03 0.69,0.77 0.02,1.03 -0.01,2.08 0.14,3.09 0.4,2.68 0.85,5.34 1.34,8 0.18,0.97 0.19,1.89 -0.13,2.83 -0.1,0.3 -0.18,0.63 -0.16,0.94 0.07,1.87 0.15,3.74 0.26,5.6 0.01,0.19 0.2,0.36 0.38,0.68 0.11,-0.31 0.19,-0.45 0.2,-0.59 0.13,-1.15 0.32,-2.29 0.33,-3.44 0.02,-1.25 0.2,-2.46 0.56,-3.65 0.14,-0.45 0.24,-0.95 0.21,-1.41 -0.13,-1.75 -0.35,-3.49 -0.48,-5.24 -0.1,-1.31 -0.11,-2.63 -0.15,-3.94 -0.01,-0.38 0.17,-0.49 0.53,-0.34 1.32,0.54 2.71,0.7 4.11,0.57 0.56,-0.05 0.71,0.21 0.78,0.64 0.15,0.87 0.25,1.74 0.43,2.6 0.31,1.52 0.53,3.07 1,4.54 0.67,2.09 1.66,4.05 2.75,5.96 1.18,2.06 1.79,4.24 1.1,6.65 -0.24,0.83 -0.31,1.73 -0.32,2.6 -0.01,2.83 0.04,5.66 0.07,8.5 0,0.48 -0.06,0.97 0.01,1.44 0.33,2.01 0.51,4.02 0.34,6.05 -0.09,1.07 -0.14,2.15 -0.36,3.2 -0.45,2.08 -0.2,4.07 0.69,5.95 0.57,1.22 1.31,2.37 2.01,3.54 0.54,0.9 1.01,1.8 0.99,2.9 -0.02,0.99 -0.03,2 0.13,2.98 0.14,0.89 0.31,1.89 0.82,2.59 1.33,1.83 2.68,3.71 4.54,5.04 2.17,1.55 4.46,2.93 6.69,4.38 0.15,0.1 0.28,0.25 0.46,0.42 -0.51,0.37 -0.95,0.72 -1.42,1.01 -2.38,1.45 -4.67,3.02 -6.59,5.07 -0.14,0.15 -0.31,0.26 -0.44,0.41 -0.92,1.04 -1.87,2.06 -2.44,3.36 -0.16,0.36 -0.35,0.71 -0.55,1.05 -0.63,1.11 -1.38,2.16 -1.86,3.32 -0.72,1.76 -1.3,3.6 -1.86,5.42 -0.4,1.3 -0.55,2.66 -0.45,4.02 0.05,0.7 0.18,1.4 0.31,2.31 -0.46,-0.26 -0.79,-0.39 -1.04,-0.61 -0.99,-0.86 -2,-1.71 -2.92,-2.64 -0.98,-0.99 -1.87,-2.08 -2.79,-3.13 -2.72,-3.1 -5.71,-5.9 -8.96,-8.44 -0.31,-0.24 -0.64,-0.48 -0.98,-0.68 -1.1,-0.63 -2.25,-1.21 -3.32,-1.88 -2.07,-1.3 -3.98,-2.78 -5.27,-4.93 -0.35,-0.58 -0.78,-1.1 -1.2,-1.64 -1.07,-1.38 -2.5,-2.34 -3.94,-3.26 -0.7,-0.44 -1.48,-0.88 -2.27,-1.01 -2.41,-0.4 -4.7,-1.23 -7.01,-1.96 -1.44,-0.45 -2.78,-1.19 -4.19,-1.74 -1.61,-0.63 -3.04,-1.54 -4.32,-2.69 -0.44,-0.4 -0.83,-0.85 -1.23,-1.29 -0.92,-0.99 -1.96,-1.9 -2.74,-2.99 -1.77,-2.45 -3.43,-4.99 -5.12,-7.49 -0.17,-0.25 -0.26,-0.56 -0.33,-0.73 0.62,-0.46 1.17,-0.84 1.68,-1.25 0.09,-0.07 0.15,-0.35 0.09,-0.42 -0.11,-0.13 -0.35,-0.27 -0.48,-0.23 -0.57,0.17 -1.11,0.42 -1.68,0.6 -0.15,0.05 -0.39,0.01 -0.5,-0.08 -0.22,-0.19 -0.14,-0.39 0.08,-0.59 0.28,-0.26 0.52,-0.57 0.74,-0.89 0.06,-0.1 0.02,-0.34 -0.07,-0.44 -0.07,-0.08 -0.27,-0.07 -0.41,-0.05 -0.11,0.01 -0.22,0.08 -0.33,0.13 -0.28,0.12 -0.62,0.42 -0.81,0.34 -0.29,-0.12 -0.48,-0.5 -0.7,-0.78 -0.12,-0.16 -0.18,-0.35 -0.3,-0.51 -2.25,-3.04 -4.76,-5.79 -8.2,-7.55 -0.85,-0.44 -1.59,-1.05 -2.15,-1.86 0.42,-0.31 0.8,-0.58 1.16,-0.88 0.91,-0.74 0.95,-1.32 0.17,-2.19 -0.16,-0.18 -0.33,-0.36 -0.53,-0.49 -0.61,-0.41 -1.03,-0.98 -1.41,-1.6 -0.27,-0.44 -0.58,-0.88 -0.97,-1.2 -0.91,-0.75 -2.02,-1.16 -3.09,-0.52 -0.88,0.53 -1.42,0.03 -2.06,-0.29 -0.26,-0.13 -0.27,-0.38 0.04,-0.53 0.22,-0.1 0.43,-0.22 0.66,-0.27 2.21,-0.44 4.4,-0.68 6.53,0.45 0.78,0.41 1.62,0.7 2.23,1.35 0.65,0.7 1.22,1.47 1.81,2.22 0.45,0.56 0.86,1.15 1.33,1.69 1.19,1.38 2.66,2.39 4.32,3.12 1.47,0.65 2.82,1.52 4,2.6 1.01,0.93 2.09,1.71 3.28,2.36 0.93,0.5 1.92,0.64 2.85,0.06 0.55,-0.34 0.73,-0.1 1.03,0.32 0.67,0.94 1.34,1.89 2.13,2.73 1.01,1.06 1.71,2.28 2.32,3.6 0.48,1.05 1.05,2.06 1.61,3.07 0.12,0.21 0.35,0.37 0.53,0.55 z m 34.9,-61.3 C 26.21,60.51 26.03,60.45 25.96,60.33 25.24,58.95 24.47,57.6 23.84,56.18 23.28,54.92 22.41,54.01 21.26,53.3 20.42,52.78 19.61,52.2 18.8,51.63 18.65,51.53 18.57,51.31 18.49,51.13 18.17,50.36 17.83,49.59 17.58,48.79 17.26,47.77 17.06,46.71 16.72,45.69 16.01,43.62 15.23,41.58 14.49,39.52 13.78,37.53 13.08,35.53 12.39,33.54 11.19,30.08 9.98,26.62 8.82,23.15 8.13,21.07 7.52,18.96 6.88,16.87 6.23,14.74 5.57,12.6 4.95,10.46 4.23,7.98 3.53,5.48 2.83,2.99 1.99,0 1.16,-2.99 0.32,-5.98 c -0.59,-2.11 -1.21,-4.21 -1.81,-6.31 -0.16,-0.58 -0.31,-1.15 -0.08,-1.76 0.25,-0.67 0.68,-0.92 1.28,-0.51 0.64,0.45 1.34,0.96 1.72,1.62 1.19,2.07 2.34,4.17 2.99,6.5 0.37,1.34 0.78,2.68 1.23,3.99 0.67,1.96 1.42,3.89 2.08,5.86 1.01,3.02 1.99,6.05 2.96,9.09 0.97,3.07 1.92,6.15 2.86,9.24 0.71,2.32 1.4,4.65 2.1,6.97 0.59,1.94 1.2,3.88 1.79,5.82 0.48,1.56 0.94,3.13 1.43,4.68 0.62,1.97 1.22,3.95 1.91,5.9 1.11,3.15 2.29,6.28 3.44,9.42 0.68,1.87 1.36,3.74 2.03,5.62 0.05,0.14 0.03,0.31 0.05,0.47 L 26.33,60.6 Z M -12,73.45 c 0,0 -0.03,-0.03 -0.04,-0.04 0.02,0 0.04,0 0.06,0.01 -0.22,0.33 -0.43,0.67 -0.66,0.99 -1.04,1.48 -2.48,2.29 -4.25,2.57 -0.29,0.05 -0.56,0.11 -0.7,-0.23 -0.23,-0.58 -0.59,-1.03 -1.14,-1.33 -0.34,-0.18 -0.2,-0.46 -0.11,-0.73 0.11,-0.34 0.34,-0.23 0.57,-0.22 0.68,0.02 1.37,0.11 2.03,-0.01 1.09,-0.21 2.15,-0.57 3.23,-0.84 0.33,-0.09 0.68,-0.11 1.02,-0.17 z m -6.07,-22.66 c 0.08,-0.89 0.14,-1.79 0.23,-2.68 0.02,-0.23 0.03,-0.52 0.17,-0.67 0.2,-0.21 0.5,-0.37 0.78,-0.43 0.11,-0.02 0.31,0.28 0.42,0.46 0.12,0.2 0.17,0.44 0.29,0.65 0.23,0.39 0.26,0.62 -0.21,0.95 -0.66,0.45 -1.34,0.94 -1.72,1.7 l 0.01,-0.01 v 0.12 m 51.61,-77.36 c -0.15,-0.04 -0.3,-0.06 -0.43,-0.13 -1.13,-0.59 -2.23,-1.23 -3.38,-1.8 -0.85,-0.42 -1.73,-0.82 -2.63,-1.13 -1.16,-0.39 -1.83,0.01 -2.13,1.21 -0.3,1.18 0.13,2.17 0.87,3.07 0.04,-0.03 0.2,-0.087 0.174,-0.13 -0.232,-0.382 -0.424,-0.78 -0.514,-1.2 -0.09,-0.45 -0.16,-0.95 -0.07,-1.39 0.21,-1.11 0.72,-1.39 1.8,-1.03 2.28,0.76 4.38,1.9 6.39,3.18 3.42,2.18 6.77,4.47 10.15,6.71 0.33,0.22 1.247,0.673 1.587,0.863 L 44.84,-18.63 c -1.25,-0.97 -2.5,-1.96 -3.77,-2.92 -3.43,-2.6 -6.88,-5.18 -10.31,-7.78 -0.82,-0.63 -1.61,-1.3 -2.41,-1.97 -0.2,-0.17 -0.36,-0.39 -0.67,-0.73 0.47,0.07 0.74,0.1 1,0.16 3.19,0.78 6.17,2.11 9.18,3.39 3.64,1.55 7.06,3.53 10.54,5.38 2.08,1.1 4.22,2.07 6.33,3.11 0.96,0.48 1.91,1 2.87,1.48 0.35,0.17 0.73,0.27 1.09,0.41 -0.46,-0.36 -0.89,-0.8 -1.4,-1.07 -4.48,-2.38 -8.97,-4.74 -13.46,-7.1 -0.18,-0.09 -0.35,-0.19 -0.54,-0.27 -4.22,-1.77 -7.71,-4.65 -11.25,-7.45 -0.7,-0.56 -1.25,-1.35 -1.75,-2.1 -0.42,-0.63 -0.2,-0.93 0.55,-0.99 1.78,-0.13 3.51,0.24 5.21,0.62 7.39,1.63 14.77,3.32 22.15,4.99 1.05,0.24 2.08,0.53 3.13,0.77 0.38,0.09 8.905,2.359 9.295,2.389 v -0.314 c -0.14,-0.08 -8.365,-2.145 -8.505,-2.175 -4.87,-1.17 -9.73,-2.37 -14.61,-3.48 -4.53,-1.03 -9.09,-1.97 -13.64,-2.93 -1.52,-0.32 -3.222,-0.949 -4.75,-0.08 0.38,-0.216 -0.104,0.377 0.63,1.3 0.732,0.921 1.39,1.85 2.3,2.56 1.45,1.12 2.93,2.2 4.4,3.3 0.25,0.19 0.5,0.4 0.74,0.6 -3.16,-1.07 -6.12,-2.56 -9.43,-3.06 -0.1,-0.01 -0.23,-0.3 -0.21,-0.44 0.04,-0.23 0.2,-0.43 0.29,-0.65 0.49,-1.17 0.97,-2.34 1.45,-3.51 0.14,-0.33 0.34,-0.64 0.41,-0.99 0.42,-1.86 0.85,-3.73 1.22,-5.6 0.51,-2.57 0.53,-5.18 0.07,-7.72 -0.83,-4.57 -2.16,-8.96 -4.8,-12.9 -2.01,-3 -4.36,-5.61 -7.23,-7.74 -3.62,-2.69 -7.65,-4.56 -12.07,-5.55 -4.1,-0.91 -8.22,-0.99 -12.35,-0.25 -1.01,0.18 -2.05,0.24 -3.01,0.55 -1.43,0.45 -2.82,1.05 -4.2,1.64 -2.8,1.2 -5.35,2.82 -7.65,4.8 -2.67,2.31 -4.9,5 -6.63,8.1 -1.25,2.24 -2.26,4.58 -2.87,7.06 -0.79,3.21 -1.19,6.48 -0.81,9.81 0.29,2.62 0.72,5.2 1.72,7.66 0.3,0.73 0.48,1.5 0.71,2.26 0.04,0.05 0.07,0.09 0.11,0.14 -0.03,-0.05 -0.06,-0.11 -0.09,-0.16 -0.18,-0.07 -0.36,-0.15 -0.54,-0.22 -1.55,-0.66 -3.1,-1.12 -4.86,-0.83 -1.85,0.3 -3.71,0.51 -5.48,1.16 -0.26,0.09 -0.55,0.12 -0.82,0.17 -0.1,0.05 -0.21,0.1 -0.31,0.14 -0.02,0 -0.05,-0.04 -0.08,-0.06 0.14,-0.02 0.28,-0.04 0.42,-0.05 0.32,-0.2 0.62,-0.44 0.96,-0.61 1.81,-0.93 3.64,-1.82 5.44,-2.77 0.85,-0.45 1.63,-1 2.15,-1.85 0.6,-0.99 0.53,-1.71 -0.25,-2.6 -0.57,-0.65 -1.25,-1.15 -2.07,-1.38 -1.03,-0.28 -2.09,-0.59 -3.14,-0.65 -1.93,-0.1 -3.87,-0.03 -5.81,-0.03 l -0.02,-0.25 c 1.24,-0.23 2.49,-0.43 3.73,-0.68 1.25,-0.25 2.51,-0.48 3.73,-0.83 1.54,-0.44 1.96,-1.91 0.96,-3.14 -0.03,-0.03 -0.06,-0.06 -0.08,-0.09 -1.4,-1.88 -3.34,-3.06 -5.37,-4.12 -2.59,-1.36 -5.37,-2.23 -8.14,-3.15 -0.66,-0.22 -1.29,-0.52 -1.93,-0.78 l -0.41,-0.05 c 0,0 0.06,-0.06 0.07,-0.05 0.11,0.03 0.21,0.08 0.31,0.12 2.81,0.54 5.62,1.11 8.44,1.61 1.96,0.34 3.93,0.6 5.9,0.86 0.93,0.12 1.83,-0.02 2.67,-0.49 1,-0.55 1.43,-1.57 1.09,-2.63 -0.36,-1.11 -0.87,-2.15 -1.77,-2.94 -1.23,-1.08 -2.45,-2.17 -3.67,-3.26 -0.19,-0.17 -0.53,-0.28 -0.34,-0.65 l -0.69,-0.15 c 0,0 0.04,-0.02 0.06,-0.03 0,0.02 -0.02,0.04 -0.03,0.06 l 0.66,0.12 c 1.73,1.18 3.68,1.88 5.66,2.47 1.06,0.31 2.18,0.43 3.28,0.54 0.45,0.04 1,-0.04 1.36,-0.28 1.1,-0.72 1.47,-1.94 1.13,-3.25 -0.35,-1.34 -1.02,-2.52 -1.9,-3.56 -2.33,-2.72 -4.72,-5.39 -7.08,-8.09 -0.25,-0.29 -0.44,-0.63 -0.66,-0.95 -0.05,-0.09 -0.1,-0.18 -0.16,-0.27 -0.11,-0.08 -0.22,-0.16 -0.32,-0.24 -0.01,0.01 -0.03,0.02 -0.04,0.03 0,-0.02 0.01,-0.04 0.02,-0.06 0.11,0.09 0.21,0.19 0.32,0.28 0.06,0.09 0.11,0.19 0.17,0.28 0.48,0.35 0.98,0.66 1.44,1.04 1.48,1.22 2.93,2.47 4.4,3.69 1.71,1.41 3.61,2.49 5.74,3.12 0.69,0.2 1.38,0.43 2.08,0.53 1.32,0.18 2.2,-0.65 2.25,-1.98 0.05,-1.38 -0.22,-2.71 -0.68,-3.99 -1.07,-2.96 -2.19,-5.91 -3.3,-8.86 0,-0.01 -0.01,-0.02 -0.02,-0.03 0.02,0.02 0.03,0.03 0.05,0.05 0.19,0.18 0.42,0.33 0.55,0.54 1.28,2.02 2.55,4.06 4.34,5.69 1.09,0.99 2.19,1.99 3.64,2.42 1.4,0.42 2.82,0.45 3.92,-0.65 1.52,-1.51 2.24,-3.37 1.88,-5.54 -0.14,-0.86 -0.36,-1.72 -0.65,-2.54 -0.84,-2.4 -1.78,-4.78 -2.6,-7.19 -0.8,-2.34 -1.5,-4.71 -2.25,-7.07 v -0.19 c 0,0.07 0,0.14 0.01,0.21 0.53,0.14 0.53,0.65 0.68,1.03 2.14,5.08 4.22,10.18 7.23,14.83 0.8,1.24 1.66,2.45 2.62,3.56 1.08,1.25 2.41,1.67 4.09,1.05 1.26,-0.47 1.88,-1.28 2.04,-2.53 0.11,-0.87 0.14,-1.75 0.18,-2.62 0.09,-1.79 0.15,-3.59 0.24,-5.38 0.07,-1.39 0.2,-2.79 0.23,-4.18 0.04,-1.92 0.05,-3.83 0.02,-5.75 -0.06,-3.75 -0.17,-7.5 -0.24,-11.26 -0.03,-1.58 0.01,-3.15 0.02,-4.73 0.19,0.64 0.2,1.28 0.27,1.91 0.44,4.16 0.94,8.32 1.33,12.48 0.32,3.5 0.71,6.98 1.29,10.44 0.63,3.74 1.6,7.4 2.89,10.97 0.2,0.56 0.48,1.02 1.12,1.12 0.69,0.1 1.13,-0.29 1.5,-0.79 0.09,-0.13 0.17,-0.27 0.23,-0.42 0.8,-1.87 1.61,-3.73 2.4,-5.6 0.2,-0.48 0.36,-0.97 0.54,-1.46 0.08,0.76 0,1.47 -0.06,2.18 -0.16,2.04 -0.13,4.07 0.25,6.09 0.18,0.93 0.42,1.87 0.76,2.75 0.29,0.75 0.85,0.9 1.55,0.52 0.35,-0.19 0.68,-0.44 0.94,-0.73 0.45,-0.5 0.88,-1.03 1.26,-1.6 1.04,-1.56 2.04,-3.15 3.07,-4.72 0.23,-0.35 0.53,-0.67 0.8,-1 l -0.03,0.04 c 0.25,-0.41 0.5,-0.83 0.75,-1.24 l -0.03,0.04 c 0.15,-0.32 0.26,-0.66 0.45,-0.96 1.05,-1.69 2.12,-3.37 3.19,-5.05 0.12,-0.19 0.31,-0.35 0.47,-0.52 l -0.03,0.04 c 0.17,-0.25 0.34,-0.5 0.51,-0.76 l -0.03,0.04 c 0.02,-0.15 6.357,-10.926 6.377,-11.076 L 27.64,-92.79 c -0.54,0.73 -1.11,1.45 -1.61,2.21 -2.54,3.88 -5.05,7.77 -7.58,11.65 -0.35,0.53 -0.74,1.04 -1.13,1.55 -0.17,0.22 -0.35,0.44 -0.56,0.62 -0.69,0.56 -1.13,0.48 -1.48,-0.33 -0.25,-0.58 -0.42,-1.2 -0.57,-1.82 -0.62,-2.68 -0.43,-5.38 -0.31,-8.1 0.14,-3.3 1.06,-6.45 1.59,-9.67 0.7,-4.25 1.57,-8.47 2.38,-12.7 0.13,-0.66 0.29,-1.31 0.36,-1.98 -0.61,1.23 -0.86,2.57 -1.13,3.89 -0.97,4.6 -1.89,9.22 -2.84,13.83 -0.85,4.12 -2.22,8.08 -3.95,11.91 -0.29,0.65 -0.69,1.26 -1.1,1.84 -0.26,0.38 -0.63,0.32 -0.84,-0.09 -0.11,-0.21 -0.17,-0.45 -0.25,-0.67 -1.63,-4.4 -2.61,-8.95 -3.22,-13.59 -0.34,-2.61 -0.61,-5.23 -0.91,-7.84 -0.48,-4.24 -0.98,-8.47 -1.43,-12.71 -0.16,-1.55 -0.22,-3.1 -0.34,-4.65 -0.2,-2.78 -0.42,-5.57 -0.61,-8.35 -0.07,-1 -0.08,-2 -0.11,-2.99 -0.08,-2.79 -0.14,-5.59 -0.25,-8.38 -0.14,-3.71 -0.3,-7.42 -0.48,-11.13 -0.04,-0.74 -0.19,-1.47 -0.51,-2.2 0,0.59 -0.01,1.19 0,1.78 0.1,4.75 0.19,9.51 0.32,14.26 0.1,3.59 0.32,7.18 0.38,10.77 0.07,4.2 0,8.39 0.03,12.59 0.02,2.15 0.17,4.31 0.2,6.46 0.04,2.51 0,5.03 0.03,7.54 0.05,3.32 -0.18,6.62 -0.42,9.93 -0.09,1.27 -0.01,2.56 -0.08,3.84 -0.06,1.19 -0.11,2.4 -0.36,3.56 -0.39,1.85 -2.51,2.56 -4.03,1.41 -1.13,-0.86 -1.92,-2.02 -2.69,-3.19 -2.29,-3.48 -4.14,-7.19 -5.83,-10.99 -1.65,-3.72 -3.35,-7.42 -4.98,-11.15 -1.18,-2.71 -2.25,-5.46 -3.4,-8.17 -0.84,-1.98 -1.74,-3.94 -2.64,-5.91 -0.1,-0.22 -0.33,-0.38 -0.51,-0.56 0.31,0.86 0.63,1.7 0.97,2.55 1.82,4.56 3.42,9.19 4.95,13.85 1.49,4.55 3.08,9.05 4.6,13.59 0.74,2.23 1.45,4.47 2.1,6.73 0.31,1.07 0.39,2.17 0.22,3.31 -0.34,2.21 -2.27,3.32 -4.43,2.74 -1.78,-0.48 -3.16,-1.56 -4.22,-2.99 -1.4,-1.89 -2.67,-3.87 -3.95,-5.85 -3.3,-5.08 -6.59,-10.18 -9.87,-15.28 -1.32,-2.05 -2.6,-4.12 -3.91,-6.17 -0.23,-0.36 -0.678,-0.864 -0.948,-1.194 l 0.088,0.234 c 0.55,1.01 1.06,2.05 1.66,3.03 3.54,5.8 7.1,11.58 10.65,17.37 0.17,0.27 0.31,0.56 0.42,0.86 1.34,3.84 2.71,7.68 3.99,11.54 0.29,0.89 0.26,1.88 0.37,2.83 0.05,0.41 -0.19,0.64 -0.55,0.83 -0.74,0.39 -1.47,0.24 -2.21,0.04 -2.42,-0.65 -4.61,-1.77 -6.56,-3.35 -3.13,-2.54 -6.23,-5.11 -9.14,-7.91 -2.87,-2.77 -5.75,-5.54 -8.65,-8.29 -2.75,-2.61 -5.52,-5.21 -8.28,-7.81 -1.86,-1.75 -3.79,-3.43 -5.57,-5.26 -1.72,-1.79 -3.53,-3.47 -5.4,-5.1 -1.3,-1.13 -2.52,-2.33 -3.81,-3.48 -0.28,-0.25 -0.903,-1.009 -1.393,-0.869 l 0.403,0.329 c 1.88,1.79 3.77,3.56 5.62,5.38 2.31,2.26 4.57,4.58 6.87,6.84 4.26,4.21 8.56,8.38 12.81,12.6 3.2,3.18 6.41,6.35 9.5,9.64 2.89,3.08 5.63,6.3 8.42,9.48 1.01,1.15 1.63,2.47 1.46,4.05 -0.04,0.35 -0.12,0.71 -0.26,1.03 -0.36,0.83 -0.66,0.94 -1.58,0.91 -2.75,-0.09 -5.21,-1.14 -7.62,-2.29 -2.7,-1.29 -5.37,-2.63 -7.99,-4.07 -2.69,-1.48 -5.29,-3.11 -7.95,-4.64 -0.64,-0.37 -1.38,-0.58 -2.03,-0.93 -1.59,-0.84 -3.15,-1.72 -4.73,-2.58 -0.21,-0.11 -0.266,-0.135 -0.66,-0.25 -0.042,-0.012 -0.313,-0.15 -0.343,-0.12 0.45,0.321 1.133,0.88 1.603,1.17 5.1,3.06 10.22,6.08 15.29,9.17 3.17,1.93 6.15,4.15 8.89,6.67 0.93,0.85 1.68,1.81 2.06,3.03 0.22,0.7 0.15,1.05 -0.47,1.39 -0.75,0.41 -1.57,0.6 -2.43,0.49 -7.21,-0.91 -14.29,-2.38 -21.29,-4.35 -3.96,-1.12 -7.82,-2.47 -11.71,-3.8 -3.06,-1.04 -6.14,-2 -9.2,-3.03 -1.85,-0.62 -3.68,-1.3 -5.53,-1.93 -0.37,-0.13 -0.75,-0.18 -1.13,-0.26 0.36,0.21 0.7,0.47 1.08,0.62 8.61,3.41 17.36,6.41 26.12,9.41 3.62,1.24 7.25,2.45 10.87,3.7 2.72,0.94 5.37,2.04 7.85,3.53 1.15,0.69 2.08,1.61 3,2.55 0.29,0.3 0.37,0.63 0.14,0.97 -0.24,0.36 -0.47,0.75 -0.81,1.01 -1.02,0.78 -2.15,1.31 -3.45,1.56 -4.86,0.91 -9.72,1.76 -14.63,2.38 -1.66,0.21 -3.3,0.52 -4.96,0.78 -0.55,0.09 -1.09,0.17 -1.64,0.37 0.43,0 0.87,0.04 1.3,0 2.64,-0.32 5.28,-0.67 7.93,-0.99 1.46,-0.17 2.93,-0.36 4.4,-0.42 2.91,-0.11 5.82,-0.16 8.73,-0.17 1.27,0 2.54,0.19 3.76,0.61 0.89,0.31 1.65,0.8 2.26,1.51 0.7,0.8 0.7,1.47 -0.07,2.2 -0.34,0.33 -0.76,0.58 -1.16,0.84 -2.48,1.56 -5.12,2.8 -7.83,3.86 -8.44,3.28 -16.91,6.5 -25.37,9.72 -1.04,0.4 -2.12,0.7 -3.18,1.06 -0.17,0.06 -0.3,0.2 -0.46,0.3 l -0.02,-0.03 c 0.83,0.37 1.65,0.16 2.45,-0.1 0.99,-0.32 1.96,-0.69 2.93,-1.05 5.04,-1.89 10.06,-3.84 15.12,-5.66 4.28,-1.54 8.59,-2.98 13.02,-4.02 1.46,-0.34 2.99,-0.47 4.49,-0.6 1.1,-0.1 2.13,0.29 3.11,0.76 0.87,0.42 0.96,0.93 0.41,1.73 -0.68,1 -1.49,1.86 -2.42,2.64 -4.23,3.52 -8.9,6.34 -13.76,8.88 -0.97,0.51 -1.85,1.18 -2.77,1.78 l -0.02,-0.02 c 0.29,0.26 0.58,0.17 0.88,0.02 1.03,-0.52 2.08,-1.01 3.09,-1.56 4.07,-2.21 8.19,-4.3 12.56,-5.85 1.08,-0.38 2.22,-0.62 3.34,-0.88 0.72,-0.16 0.89,0.04 0.56,0.76 -0.83,1.86 -1.61,3.74 -2.6,5.51 -1.45,2.61 -3.03,5.15 -4.63,7.67 -2.26,3.57 -4.52,7.14 -6.92,10.62 -2.28,3.31 -4.72,6.53 -7.13,9.75 -2.27,3.03 -4.58,6.03 -6.89,9.03 -2.65,3.45 -5.32,6.87 -7.97,10.32 -0.4,0.52 -0.73,1.11 -1.09,1.67 0.24,-0.19 0.5,-0.38 0.7,-0.61 2.68,-3.12 5.39,-6.22 8.02,-9.39 2.42,-2.92 4.7,-5.96 7.15,-8.85 2.27,-2.68 4.69,-5.23 7.04,-7.84 1.95,-2.17 3.85,-4.38 5.86,-6.49 3.36,-3.53 6.78,-6.99 10.68,-9.94 1.3,-0.99 2.55,-2.05 3.9,-2.98 0.81,-0.56 1.72,-1 2.64,-1.36 0.77,-0.3 1.04,-0.02 0.94,0.8 -0.22,1.8 -0.79,3.5 -1.49,5.15 -1.47,3.5 -3.07,6.94 -5,10.21 -2.11,3.58 -4.08,7.23 -5.89,10.97 -0.4,0.83 -0.86,1.62 -1.26,2.45 -0.17,0.35 -0.24,0.74 -0.36,1.1 l -0.02,0.03 c 1.49,-1.88 2.6,-4.01 3.84,-6.05 1.82,-3 3.46,-6.1 5.5,-8.96 1.55,-2.17 2.91,-4.47 4.39,-6.69 0.98,-1.47 2.21,-2.74 3.65,-3.75 0.51,-0.36 1.13,-0.59 1.74,-0.74 0.93,-0.22 1.3,0.1 1.22,1.05 -0.1,1.19 -0.22,2.38 -0.48,3.54 -1.39,6.18 -3.13,12.27 -4.92,18.35 -0.26,0.88 -0.42,1.78 -0.62,2.67 l -0.02,-0.03 c 0.27,-0.57 0.57,-1.12 0.8,-1.71 1.12,-2.9 2.18,-5.83 3.34,-8.72 1.15,-2.86 2.73,-5.5 4.43,-8.07 0.54,-0.82 1,-1.69 1.62,-2.52 0.24,0.7 0.2,1.38 0.14,2.07 -0.16,1.66 -0.33,3.33 -0.53,4.99 -0.09,0.79 -0.26,1.57 -0.35,2.36 -0.15,1.34 -0.26,2.69 -0.41,4.04 -0.12,1.03 -0.29,2.05 -0.4,3.08 -0.2,1.82 -0.43,3.65 -0.55,5.47 -0.13,1.91 -0.2,3.83 -0.18,5.74 0.04,3.95 0.2,7.89 0.24,11.84 0.02,1.39 -0.12,2.79 -0.21,4.18 -0.1,1.51 -0.22,3.02 -0.33,4.54 -0.19,2.42 -0.38,4.85 -0.57,7.27 -0.03,0.36 -0.03,0.72 -0.02,1.08 0.04,2.4 -0.14,4.78 -0.4,7.17 -0.02,0.2 -0.02,0.4 -0.02,0.6 0.03,3.68 0.07,7.35 0.07,11.03 0,1.19 -0.11,2.39 -0.18,3.78 -0.68,-1.21 -0.97,-2.38 -1.37,-3.5 -0.6,-1.68 -0.74,-3.42 -0.75,-5.18 -0.02,-3.46 -0.65,-6.82 -1.92,-10.04 -0.32,-0.81 -0.79,-1.56 -1.25,-2.31 -0.47,-0.76 -1.1,-0.85 -1.84,-0.34 -0.56,0.39 -0.89,0.94 -0.99,1.59 -0.27,1.76 -1.06,3.34 -1.6,5.01 -0.57,1.78 -1.07,3.6 -1.47,5.42 -0.17,0.75 0.02,1.58 0,2.37 -0.08,2.25 0.44,4.43 0.71,6.65 0.28,2.29 0.42,4.61 0.36,6.92 -0.03,1.27 -0.07,2.6 -0.6,3.87 -0.4,0.96 -0.3,2.06 0.24,3 0.42,0.73 0.59,1.47 0.56,2.28 -0.09,2.67 -0.12,5.33 -0.54,7.99 -0.3,1.9 0.09,3.82 0.69,5.67 0.62,1.91 1.51,3.68 2.55,5.39 1.19,1.95 1.71,4.1 1.69,6.37 0,0.27 -0.07,0.56 -0.15,0.82 -0.42,1.25 -0.95,1.46 -2.03,0.7 -0.84,-0.6 -1.66,-1.26 -2.37,-2 -1.7,-1.77 -3.75,-2.97 -6.02,-3.79 -1.81,-0.65 -3.2,-1.75 -4.22,-3.36 -0.84,-1.32 -1.78,-2.55 -3.06,-3.46 -1.49,-1.06 -3.19,-1.82 -4.96,-1.91 -1.58,-0.09 -3.29,0.06 -4.71,1.02 -0.37,0.25 -0.69,0.65 -0.9,1.06 -0.12,0.23 -0.07,0.68 0.09,0.89 0.48,0.62 1,1.23 1.59,1.74 1.52,1.33 2.69,2.93 3.81,4.59 1.45,2.15 3.26,3.9 5.58,5.13 0.9,0.48 1.76,1.12 2.5,1.82 2.02,1.9 3.63,4.12 4.89,6.6 0.63,1.24 1.35,2.44 2.03,3.66 0.91,1.64 1.82,3.27 2.72,4.91 1.83,3.32 4.24,6.15 7.16,8.55 1.09,0.9 2.4,1.43 3.72,1.88 1.77,0.6 3.58,1.09 5.39,1.6 0.61,0.17 1.25,0.26 1.88,0.34 1.56,0.21 3.03,0.73 4.46,1.32 0.82,0.34 1.49,1.04 2.22,1.58 1.4,1.04 2.48,2.34 3.4,3.81 1.43,2.28 3.36,3.98 5.81,5.15 1.29,0.62 2.55,1.3 3.9,1.79 0.55,0.2 1.02,0.6 1.53,0.92 3.08,1.98 5.65,4.54 8.18,7.15 1.22,1.26 2.36,2.61 3.64,3.79 0.98,0.9 1.94,1.91 3.36,2.19 0.34,0.07 0.67,0.25 0.99,0.42 2.13,1.12 4.12,0.71 5.89,-0.71 0.98,-0.78 1.89,-1.67 2.76,-2.61 1.13,-1.22 2.25,-2.46 3.39,-3.67 1.36,-1.45 2.92,-2.71 4.32,-4.12 1.52,-1.52 2.96,-3.12 4.44,-4.69 0.16,-0.17 0.31,-0.37 0.5,-0.52 1.35,-1.06 1.9,-2.58 2.1,-4.17 0.12,-0.92 -0.02,-1.95 -0.32,-2.83 -0.53,-1.57 -1.45,-2.93 -2.96,-3.78 -0.14,-0.08 -0.3,-0.19 -0.44,-0.18 -1.31,0.11 -2.11,-0.84 -3.07,-1.45 -0.7,-0.45 -1.42,-0.87 -2.1,-1.34 -0.79,-0.54 -1.55,-1.12 -2.31,-1.7 -1.39,-1.07 -2.78,-2.14 -4.15,-3.22 -0.62,-0.49 -1.24,-0.98 -1.79,-1.54 -0.38,-0.39 -0.76,-0.87 -0.89,-1.38 -0.26,-0.99 -0.46,-2.03 -0.49,-3.05 -0.05,-1.67 -0.58,-3.11 -1.51,-4.47 -0.69,-1.02 -1.4,-2.05 -1.96,-3.14 -0.73,-1.45 -0.99,-2.96 -0.44,-4.6 0.87,-2.59 1.2,-5.27 0.92,-8 -0.08,-0.83 -0.29,-1.65 -0.35,-2.48 -0.15,-2.23 -0.12,-4.47 -0.4,-6.68 -0.23,-1.81 0.04,-3.55 0.22,-5.32 0.28,-2.69 -0.28,-5.24 -1.53,-7.64 C 33.24,82.6 32.55,81.21 31.86,79.82 31.15,78.38 30.78,76.84 30.49,75.26 30.1,73.18 30.03,71.06 29.7,68.99 29.37,66.91 28.84,64.86 28.25,62.83 27.49,60.23 26.58,57.67 25.73,55.1 25.2,53.51 24.65,51.93 24.13,50.34 23,46.81 21.88,43.27 20.77,39.73 20.21,37.94 19.66,36.15 19.13,34.35 18.68,32.83 18.29,31.29 17.83,29.77 17.51,28.7 17.09,27.66 16.76,26.59 15.23,21.51 13.75,16.41 12.18,11.34 10.78,6.85 9.24,2.4 7.82,-2.09 7.1,-4.37 6.51,-6.68 5.87,-8.98 5.52,-10.25 5.16,-11.51 4.86,-12.79 4.7,-13.48 4.65,-14.2 4.56,-14.91 c -0.04,-0.3 0.14,-0.48 0.42,-0.43 0.5,0.09 1.05,0.14 1.47,0.39 1.25,0.78 2.51,1.57 3.64,2.5 1.69,1.4 3.26,2.93 4.91,4.39 2.05,1.81 3.64,4.02 5.38,6.1 1.82,2.17 3.68,4.31 5.59,6.4 1.91,2.09 3.91,4.1 5.88,6.13 0.08,0.08 0.19,0.14 0.29,0.21 0.03,-0.03 0.701,0.588 0.741,0.558 -0.02,-0.08 -0.661,-0.818 -0.711,-0.878 -2.21,-2.77 -4.29,-5.64 -6.76,-8.2 -2.57,-2.67 -5.09,-5.4 -7.56,-8.17 -1.73,-1.94 -3.12,-4.15 -4.27,-6.48 -0.52,-1.05 -0.69,-2.28 -1.02,-3.42 -0.01,-0.04 -0.01,-0.08 -0.01,-0.12 -0.15,-2.78 0.97,-4.19 3.9,-2.98 1.24,0.51 2.44,1.2 3.54,1.98 3.96,2.77 7.68,5.85 11.18,9.19 2.92,2.78 5.85,5.54 8.79,8.3 0.25,0.24 0.696,0.531 0.986,0.731 L 40.85,1.13 C 40.63,0.85 40.45,0.55 40.2,0.3 c -2.68,-2.62 -5.4,-5.2 -8.04,-7.85 -1.46,-1.47 -2.8,-3.05 -4.19,-4.59 -1.31,-1.45 -2.59,-2.92 -3.94,-4.33 -1.32,-1.38 -2.23,-3 -2.89,-4.77 -0.42,-1.14 -0.19,-2.09 0.59,-2.69 0.34,-0.26 0.69,-0.39 1.11,-0.2 0.9,0.41 1.87,0.72 2.7,1.25 3.68,2.37 7.41,4.69 10.75,7.54 0.2,0.17 0.434,0.29 0.674,0.41 l 0.234,0.079 -0.098,-0.089 c -0.86,-0.82 -1.66,-1.69 -2.58,-2.44 -2.42,-1.99 -4.99,-3.81 -7.06,-6.21 -0.18,-0.2 -1.312,-1.634 -1.476,-1.8 l -0.174,0.13 c 0.31,0.4 1.57,2.02 1.89,2.42 0.32,0.4 0.66,0.78 0.99,1.17 l 0.06,0.03 -0.03,-0.06 c -0.74,-0.46 -1.49,-0.9 -2.21,-1.38 -1,-0.67 -2.03,-1.25 -3.19,-1.6 -0.63,-0.19 -1.13,-0.05 -1.66,0.34 -1.13,0.85 -1.31,1.96 -0.92,3.19 0.55,1.72 1.38,3.31 2.64,4.64 1.26,1.33 2.52,2.67 3.76,4.02 0.16,0.18 0.22,0.46 0.33,0.69 0.08,0.07 0.16,0.13 0.23,0.2 0.1,0.07 0.19,0.14 0.29,0.21 0.09,0.1 0.18,0.19 0.26,0.29 0,0.02 0.02,0.05 0.03,0.07 0.01,-0.02 0.02,-0.05 0.04,-0.07 -0.02,0 -0.04,0.02 -0.06,0.03 -0.09,-0.11 -0.17,-0.23 -0.26,-0.34 -0.09,-0.06 -0.18,-0.13 -0.27,-0.19 -0.08,-0.07 -0.15,-0.14 -0.23,-0.22 -1.62,-1.29 -3.21,-2.62 -4.86,-3.87 -1.84,-1.4 -3.67,-2.84 -5.85,-3.66 -0.77,-0.29 -1.6,-0.43 -2.42,-0.55 -0.52,-0.07 -1.01,0.14 -1.38,0.57 -0.92,1.03 -1.13,2.22 -0.92,3.56 0.41,2.55 1.66,4.71 3.06,6.8 -0.02,0.01 0.02,-0.01 0,0 0,-0.02 -0.026,-0.023 -0.117,-0.088 C 14.668,-9.304 14.34,-9.43 14.05,-9.74 12.38,-11.53 10.44,-13 8.53,-14.51 c -1.76,-1.38 -3.7,-1.81 -5.84,-1.18 -0.77,0.22 -1.43,0.25 -2.19,-0.08 -0.63,-0.27 -1.35,-0.57 -2.07,-0.19 -1.01,0.54 -2.04,0.83 -3.21,0.54 -0.68,-0.16 -1.37,-0.05 -1.81,0.62 -0.87,1.34 -1.75,2.67 -2.56,4.04 -0.88,1.47 -1.68,2.99 -2.52,4.49 -0.09,0.16 -0.27,0.28 -0.54,0.56 0.43,-1.48 0.82,-2.73 1.14,-4 0.33,-1.27 0.62,-2.56 0.86,-3.85 0.2,-1.05 0.29,-2.11 0.07,-3.19 -0.26,-1.27 -1.64,-2.06 -2.83,-1.64 -0.92,0.32 -1.78,0.71 -2.45,1.43 -0.87,0.93 -1.75,1.85 -2.62,2.78 -0.01,0.01 -0.02,0.02 -0.04,0.03 0.01,-0.02 0.03,-0.04 0.04,-0.06 0.19,-0.52 0.4,-1.04 0.58,-1.57 0.54,-1.58 1.25,-3.11 1.21,-4.84 -0.03,-1.04 -0.37,-1.47 -1.39,-1.52 -0.27,-0.01 -0.56,0.02 -0.83,0.07 -1.43,0.3 -2.67,1.01 -3.84,1.85 -1.13,0.81 -2.22,1.69 -3.34,2.52 -4.28,3.17 -7.98,6.95 -11.55,10.88 -0.96,1.05 -1.95,2.08 -2.92,3.11 0.01,0.36 -0.2,0.46 -0.52,0.43 -0.02,0.05 -0.04,0.09 -0.06,0.14 0.03,0 0.07,0 0.1,0.01 -0.02,-0.04 -0.04,-0.09 -0.07,-0.13 0.19,-0.14 0.38,-0.28 0.57,-0.42 0.03,-0.11 0.03,-0.25 0.09,-0.34 1.93,-2.98 3.83,-5.98 5.79,-8.94 2.47,-3.73 4.79,-7.55 6.69,-11.6 0.58,-1.22 1.02,-2.51 1.47,-3.79 0.34,-0.95 -0.16,-1.57 -1.17,-1.54 -0.32,0 -0.64,0.06 -0.95,0.13 -2.58,0.6 -4.94,1.78 -7.32,2.89 -0.05,-0.03 -0.09,-0.05 -0.14,-0.08 v 0.1 c 0.05,-0.02 0.1,-0.03 0.15,-0.05 0.25,-0.24 0.48,-0.51 0.75,-0.71 1.35,-1 2.71,-1.98 4.06,-2.97 1.44,-1.05 2.59,-2.35 3.38,-4 0.11,0.15 0.22,0.27 0.3,0.41 0.69,1.25 1.37,2.5 2.25,3.63 1.79,2.31 3.75,4.44 6.07,6.22 2.81,2.15 5.9,3.76 9.27,4.83 2.4,0.76 4.83,1.32 7.35,1.48 2.22,0.14 4.43,0.54 6.66,0.21 1.18,-0.18 2.36,-0.39 3.53,-0.62 0.74,-0.15 1.48,-0.32 2.2,-0.55 2.32,-0.74 4.5,-1.75 6.6,-3 2.18,-1.29 4.16,-2.83 5.89,-4.63 1.32,-1.37 2.37,-2.98 3.55,-4.48 0.18,-0.24 0.39,-0.46 0.51,-0.6 1.88,1.44 3.68,2.81 5.48,4.2 0.4,0.31 0.77,0.67 1.15,1"
       style="fill:#ffffff;fill-opacity:1;fill-rule:nonzero;stroke:none"
       transform="matrix(1.3333333,0,0,-1.3333333,161.5728,257.80253)"
       clip-path="url(#clipPath3)" />
    <path
       id="path4"
       d="m 0,0 c -0.25,0.41 -0.5,0.83 -0.75,1.24 l -0.09,0.42 c -0.04,0.15 0.07,-0.14 0,0 -0.62,1.29 -1.3,2.55 -1.86,3.87 -0.37,0.87 -0.61,1.8 -0.82,2.73 -0.16,0.71 0.19,1.35 0.7,1.8 0.54,0.48 1.2,0.37 1.77,-0.02 C -0.16,9.45 0.78,8.9 1.59,8.2 3.49,6.57 5.32,4.86 7.17,3.18 7.23,3.08 7.29,2.97 7.35,2.87 7.45,2.82 7.56,2.77 7.66,2.72 7.74,2.59 7.82,2.46 7.91,2.34 H 7.96 C 7.94,2.34 7.91,2.36 7.89,2.37 7.58,2.32 7.53,2.45 7.67,2.7 7.56,2.76 7.45,2.82 7.33,2.89 L 7.17,3.17 C 7.13,3.28 7.13,3.42 7.06,3.5 5.7,5.27 4.34,7.05 2.95,8.8 c -1.23,1.55 -1.8,3.37 -2.15,5.27 -0.14,0.76 0.25,1.41 0.81,1.89 0.57,0.48 1.24,0.51 1.9,0.12 0.28,-0.16 0.58,-0.27 0.84,-0.46 2.08,-1.48 4.14,-2.98 6.22,-4.47 0.47,-0.34 0.95,-0.68 1.43,-1.02 0.07,-0.07 0.15,-0.14 0.22,-0.21 L 12.47,9.69 C 12.55,9.61 12.63,9.54 12.71,9.46 12.79,9.33 12.87,9.2 12.95,9.08 H 13 c -0.02,0 -0.05,0.02 -0.07,0.03 -0.08,0.11 -0.15,0.22 -0.23,0.33 -0.08,0.08 -0.17,0.15 -0.25,0.23 -0.08,0.08 -0.16,0.16 -0.24,0.23 -0.08,0.07 -0.15,0.14 -0.23,0.21 -0.42,0.47 -0.82,0.97 -1.27,1.41 -1.66,1.62 -3.26,3.3 -4.62,5.18 -0.84,1.15 -1.37,2.44 -1.25,3.91 0.03,0.37 0.2,0.77 0.42,1.07 0.61,0.84 1.47,0.91 2.37,0.58 1.12,-0.41 2.21,-0.88 3.42,-1.37 -0.98,1.1 -1.8,2.2 -2.8,3.1 -1.65,1.5 -0.53,3.46 0.89,3.88 0.53,0.16 1.1,0.26 1.65,0.23 2.37,-0.16 4.74,-0.37 7.12,-0.56 -0.33,0.14 -0.66,0.25 -1.01,0.31 -1.57,0.27 -3.16,0.48 -4.71,0.81 -1.01,0.21 -2.01,0.51 -2.96,0.91 -0.89,0.38 -0.96,0.68 -0.82,1.61 0.06,0.39 0.17,0.78 0.2,1.18 0.04,0.51 0.28,0.79 0.77,0.93 2.02,0.59 4.01,1.37 6.07,1.77 3.36,0.65 6.77,1.06 10.16,1.55 4.31,0.62 8.65,0.85 12.98,1.12 1.64,0.1 3.27,0.24 4.9,0.36 -2.2,0.05 -4.4,0.1 -6.59,0.04 -2.71,-0.07 -5.42,-0.34 -8.13,-0.33 -2.43,0 -4.85,0.33 -7.28,0.42 -3.17,0.12 -6.26,0.68 -9.33,1.44 -0.93,0.23 -1.84,0.54 -2.73,0.88 -0.87,0.34 -1.12,1.13 -0.69,1.94 0.13,0.24 0.33,0.45 0.52,0.65 1.41,1.49 3.21,2.34 5.07,3.09 6.46,2.61 13.17,4.37 19.87,6.2 3.31,0.9 6.63,1.76 9.94,2.67 1.14,0.32 2.25,0.76 3.37,1.14 l -0.03,-0.02 c 0.07,0.06 0.13,0.12 0.2,0.19 -0.07,0.03 -4.901,-1.513 0,0 1.194,0.267 1.83,0.66 2.87,0.75 0.08,-0.02 -0.08,0.01 0,0 0.02,0 -0.03,-0.01 0,0 -0.11,0 0.396,0.066 0.286,0.076 0.85,0.23 1.384,0.464 2.254,0.594 3.81,0.56 7.51,1.61 11.21,2.61 2.46,0.66 4.93,1.27 7.39,1.89 0.38,0.1 0.76,0.17 1.15,0.24 -0.65,-0.58 -1.47,-0.8 -2.28,-1.01 -1.93,-0.5 -3.88,-0.9 -5.81,-1.39 C 61.16,59.24 57.57,58.3 54,57.32 49.12,55.98 44.25,54.59 39.36,53.25 35.63,52.23 31.87,51.29 28.16,50.23 25.29,49.41 22.45,48.46 19.61,47.53 17.87,46.96 16.13,46.37 14.44,45.66 13.2,45.14 12.03,44.43 10.86,43.75 10.42,43.49 10.04,43.1 9.72,42.7 9.1,41.93 9.3,41.29 10.25,40.96 c 2.38,-0.84 4.83,-1.42 7.32,-1.72 3,-0.36 6.04,-0.47 9.05,-0.79 3.04,-0.33 6.06,0.14 9.09,0.07 0.48,-0.01 0.96,0.03 1.44,0.04 4.27,0.06 8.54,0.14 12.81,0.15 1.79,0 3.58,-0.17 5.37,-0.36 -2.46,-0.21 -4.93,-0.41 -7.39,-0.62 -2.5,-0.21 -5,-0.42 -7.5,-0.6 -1.95,-0.14 -3.91,-0.18 -5.85,-0.37 -3.25,-0.31 -6.5,-0.7 -9.74,-1.05 C 24.14,35.63 23.43,35.53 22.71,35.46 19.98,35.22 17.47,34.12 14.82,33.54 13.49,33.25 12.19,32.88 11,32.23 10.59,32 10.18,31.74 9.84,31.41 9.46,31.05 9.5,30.71 10.02,30.5 c 0.99,-0.41 2,-0.81 3.03,-1.08 4.3,-1.1 8.66,-1.89 13.06,-2.47 1.44,-0.19 2.86,-0.53 4.29,-0.98 -0.9,0 -1.8,-0.04 -2.69,0 -2.31,0.14 -4.61,0.29 -6.91,0.49 -1.9,0.17 -3.8,0.44 -5.7,0.61 -1.43,0.13 -2.86,0.2 -4.29,0.23 C 10.39,27.31 9.94,27.16 9.54,27 8.58,26.63 8.34,25.91 8.81,24.99 c 0.07,-0.14 0.17,-0.27 0.26,-0.4 1.39,-1.99 3.12,-3.61 5.22,-4.85 2.3,-1.35 4.6,-2.73 6.83,-4.19 3.61,-2.36 7.16,-4.8 10.73,-7.21 0.21,-0.14 0.35,-0.38 0.53,-0.58 l 0.02,0.02 c -0.35,0.17 -0.72,0.31 -1.06,0.5 -2.87,1.65 -5.75,3.29 -8.61,4.97 -2.2,1.29 -4.35,2.68 -6.57,3.95 -2.25,1.28 -4.55,2.49 -6.86,3.66 C 8.56,21.23 7.72,21.41 6.92,21.63 6.41,21.77 5.82,21.81 5.48,21.34 5.14,20.89 5.19,20.36 5.37,19.77 6.11,17.3 7.75,15.45 9.45,13.65 11.7,11.27 13.94,8.87 16.3,6.6 c 1.49,-1.44 3.2,-2.64 4.78,-3.98 1.85,-1.58 3.68,-3.19 5.51,-4.8 1.5,-1.31 3,-2.63 4.5,-3.95 0.163,-0.143 0.321,-0.291 0.321,-0.291 0.223,-0.204 0.41,-0.377 0.549,-0.507 l 1.193,-1.27 c -0.511,0.406 -1.022,0.812 -1.533,1.218 -1.13,0.88 -2.28,1.72 -3.37,2.65 -2.86,2.43 -5.73,4.85 -8.74,7.1 -1.85,1.39 -3.57,2.95 -5.39,4.38 -3.11,2.43 -6.26,4.81 -9.41,7.21 -0.38,0.29 -0.79,0.55 -1.22,0.76 -0.99,0.47 -1.67,0.11 -1.79,-0.95 -0.05,-0.42 0,-0.88 0.09,-1.3 0.46,-1.98 1.48,-3.69 2.65,-5.33 2.17,-3.03 4.75,-5.7 7.23,-8.46 0.69,-0.77 1.28,-1.63 1.89,-2.47 0.08,-0.1 0.315,-0.558 0.325,-0.708 L 13.63,-3.82 c -1.22,1.2 -2.41,2.43 -3.67,3.6 C 7.1,2.44 4.23,5.1 1.3,7.69 0.48,8.42 -0.55,8.92 -1.48,9.53 -1.89,9.8 -2.34,9.82 -2.7,9.51 -3.04,9.21 -3.18,8.77 -3.04,8.3 -2.81,7.5 -2.61,6.68 -2.3,5.91 -1.34,3.49 -0.02,1.26 1.33,-0.96 3.51,-4.54 5.56,-8.19 7.68,-11.8 c 1.19,-2.03 2.42,-4.04 3.61,-6.07 0.19,-0.33 0.29,-0.72 0.43,-1.08 -0.133,0.133 -0.267,0.267 -0.4,0.4"
       style="fill:#ffffff;fill-opacity:1;fill-rule:nonzero;stroke:none"
       transform="matrix(1.3333333,0,0,-1.3333333,191.88867,370.82413)"
       clip-path="url(#clipPath5)" />
    <path
       id="path6"
       d="m 0,0 -0.02,-0.05 0.05,0.03 z"
       style="fill:#ffffff;fill-opacity:1;fill-rule:nonzero;stroke:none"
       transform="matrix(1.3333333,0,0,-1.3333333,236,234.58667)"
       clip-path="url(#clipPath7)" />
    <path
       id="path8"
       d="m 0,0 -0.03,-0.02 0.01,0.01"
       style="fill:#ffffff;fill-opacity:1;fill-rule:nonzero;stroke:none"
       transform="matrix(1.3333333,0,0,-1.3333333,210.72,373.45333)"
       clip-path="url(#clipPath9)" />
    <path
       id="path10"
       d="M 0,0 C 0.08,0.28 0.12,0.47 0.19,0.66 0.41,1.27 0.48,1.88 0.39,2.53 0.24,3.56 0.45,4.47 1.2,5.28 1.95,6.09 2.08,7.21 2.43,8.22 2.63,8.8 2.99,9.33 3.29,9.87 3.32,9.93 3.53,9.96 3.6,9.92 3.67,9.87 3.73,9.71 3.71,9.62 3.26,7.82 3.14,5.93 2,4.34 1.54,3.71 1.46,2.96 1.66,2.17 1.95,1.05 1.27,0.29 0.61,-0.47 0.55,-0.53 0.33,-0.57 0.3,-0.52 0.17,-0.35 0.08,-0.14 0,0"
       style="fill:#ffffff;fill-opacity:1;fill-rule:nonzero;stroke:none"
       transform="matrix(1.3333333,0,0,-1.3333333,159.58667,122.44)"
       clip-path="url(#clipPath11)" />
    <path
       id="path12"
       d="m 0,0 c 0.05,-0.43 0.12,-0.86 0.14,-1.29 0.03,-0.84 0,-1.68 0.04,-2.52 0.02,-0.38 0.05,-0.9 0.29,-1.12 1.02,-0.92 0.91,-2.08 0.83,-3.23 -0.07,-1.05 -0.49,-2.01 -1.09,-2.88 -0.09,-0.14 -0.34,-0.28 -0.48,-0.25 -0.13,0.03 -0.26,0.27 -0.31,0.44 -0.19,0.78 0.1,1.49 0.33,2.22 0.13,0.42 0.25,0.84 0.37,1.26 0.16,0.59 0.2,1.12 -0.23,1.68 -0.24,0.31 -0.31,0.83 -0.31,1.25 -0.02,1.47 -0.15,2.95 0.43,4.44 z"
       style="fill:#ffffff;fill-opacity:1;fill-rule:nonzero;stroke:none"
       transform="matrix(1.3333333,0,0,-1.3333333,195.38667,116.72)"
       clip-path="url(#clipPath13)" />
    <path
       id="path14"
       d="m 0,0 c 0.29,-0.87 -0.03,-1.66 -0.35,-2.41 -0.37,-0.85 -0.43,-1.64 -0.14,-2.53 0.5,-1.53 -0.09,-2.89 -0.86,-4.18 -0.1,-0.17 -0.24,-0.34 -0.41,-0.43 -0.15,-0.08 -0.36,-0.1 -0.53,-0.06 -0.06,0.01 -0.06,0.28 -0.08,0.43 0,0.04 0.02,0.08 0.04,0.11 0.8,1.27 0.8,2.62 0.47,4.02 -0.08,0.33 0.04,0.7 0.1,1.05 0.03,0.19 0.1,0.39 0.18,0.57 0.52,1.14 1.05,2.29 1.58,3.43"
       style="fill:#ffffff;fill-opacity:1;fill-rule:nonzero;stroke:none"
       transform="matrix(1.3333333,0,0,-1.3333333,180.08,115.05333)"
       clip-path="url(#clipPath15)" />
    <path
       id="path16"
       d="m 0,0 c -0.08,0 -0.16,0.02 -0.23,0 -0.21,-0.07 -0.41,-0.15 -0.61,-0.23 0.15,-0.17 0.27,-0.4 0.45,-0.48 0.23,-0.1 0.54,-0.14 0.78,-0.08 0.23,0.07 0.41,0.3 0.62,0.46 -0.22,0.11 -0.43,0.23 -0.65,0.32 -0.1,0.04 -0.23,0 -0.35,0 z m -4.28,-0.45 c 0.3,-1.21 0.91,-2.19 1.6,-3.11 0.63,-0.84 1.48,-1.28 2.57,-1.3 1.72,-0.03 2.92,0.84 4.02,2.03 0.48,0.53 0.55,1.13 0.59,1.77 0.02,0.37 -0.2,0.6 -0.56,0.66 -0.48,0.08 -0.92,0.13 -1.27,-0.38 -0.68,-0.97 -1.72,-1.38 -2.84,-1.62 -1.16,-0.25 -2.25,0.32 -2.72,1.42 -0.22,0.52 -0.683,0.697 -1.39,0.53 m 19.22,-5.06 c 0.01,0.1 0.02,0.19 0.04,0.29 -1.73,0.91 -3.45,1.82 -5.18,2.72 -0.6,0.31 -1.23,0.57 -1.85,0.84 -0.28,0.12 -0.49,0.02 -0.49,-0.29 0.01,-1.14 -0.78,-1.91 -1.33,-2.76 -0.4,-0.62 -1,-1.2 -1.64,-1.54 -1.64,-0.88 -3.32,-1.6 -5.29,-1.67 -2.1,-0.07 -3.61,0.86 -4.89,2.26 -1.12,1.23 -1.54,2.8 -1.52,4.52 -0.29,-0.07 -0.56,-0.1 -0.82,-0.19 -2.23,-0.81 -4.13,-2.24 -6.21,-3.33 -0.29,-0.15 -0.22,-0.42 -0.04,-0.6 0.26,-0.25 0.53,-0.5 0.84,-0.66 0.95,-0.51 1.91,-0.99 2.88,-1.45 1.93,-0.9 3.97,-1.49 6.06,-1.76 2.66,-0.34 5.34,-0.07 7.98,0.31 3.34,0.47 6.51,1.56 9.67,2.69 0.59,0.21 1.18,0.42 1.77,0.63 z M 0.13,-10.9 c -2.87,-0.17 -5.86,0.32 -8.74,1.31 -2.56,0.89 -5.1,1.87 -7.02,3.93 -0.16,0.17 -0.3,0.36 -0.41,0.57 -0.42,0.77 -0.36,0.86 0.53,0.94 0.13,0.01 0.33,0.08 0.37,0.17 0.45,1.19 1.62,1.62 2.49,2.34 2.18,1.81 4.66,3.03 7.51,3.42 2.06,0.28 4.11,0.34 6.19,0.05 4.26,-0.58 7.94,-2.52 11.5,-4.76 1.28,-0.81 2.52,-1.69 3.77,-2.54 0.13,-0.09 0.28,-0.16 0.39,-0.27 0.62,-0.58 0.56,-1.16 -0.23,-1.48 -1.62,-0.65 -3.25,-1.29 -4.92,-1.82 -1.47,-0.47 -2.99,-0.82 -4.5,-1.16 -2.22,-0.51 -4.46,-0.85 -6.94,-0.7 z"
       style="fill:#ffffff;fill-opacity:1;fill-rule:nonzero;stroke:none"
       transform="matrix(1.3333333,0,0,-1.3333333,161.6,312.46667)"
       clip-path="url(#clipPath17)" />
    <path
       id="path18"
       d="m 0,0 c -0.37,-0.18 -0.73,-0.42 -1.12,-0.54 -4.44,-1.4 -7.82,-4.26 -10.73,-7.77 -0.18,-0.21 -0.18,-0.57 -0.27,-0.86 -0.11,-0.07 -0.23,-0.14 -0.34,-0.21 -0.02,0 -0.04,-0.01 -0.06,-0.02 h 0.06 c 0.11,0.08 0.21,0.15 0.32,0.23 0.29,0.27 0.57,0.55 0.86,0.82 0.79,0.73 1.57,1.47 2.37,2.18 0.45,0.4 0.9,0.8 1.4,1.12 1.73,1.1 3.58,1.93 5.58,2.42 1.69,0.41 3.41,0.29 5.12,0.18 1.23,-0.08 2.43,-0.41 3.66,-0.59 1.83,-0.28 3.42,-1.11 4.86,-2.2 1.4,-1.06 2.71,-2.22 4.04,-3.36 0.29,-0.25 0.5,-0.58 0.75,-0.87 -0.06,-0.07 -0.11,-0.13 -0.17,-0.2 -0.39,0.28 -0.79,0.56 -1.17,0.85 -1.54,1.2 -3.06,2.42 -4.96,3.08 -4.57,1.59 -9.2,1.87 -13.9,0.69 -0.42,-0.1 -0.87,-0.23 -1.22,-0.47 -2.22,-1.48 -4.58,-2.76 -6.54,-4.62 -0.63,-0.59 -1.42,-1.01 -2.15,-1.5 -0.16,-0.11 -0.35,-0.2 -0.54,-0.23 -0.59,-0.12 -0.87,0.19 -0.56,0.72 0.8,1.38 1.54,2.83 2.56,4.03 2.7,3.18 6.16,5.29 10.09,6.62"
       style="fill:#ffffff;fill-opacity:1;fill-rule:nonzero;stroke:none"
       transform="matrix(1.3333333,0,0,-1.3333333,157.66667,298.21333)"
       clip-path="url(#clipPath19)" />
    <path
       id="path20"
       d="m 0,0 c -0.36,-0.29 -0.69,-0.61 -1.07,-0.86 -1.59,-1.03 -3.33,-1.65 -5.16,-2.13 -1.86,-0.49 -3.7,-0.43 -5.56,-0.19 -1.46,0.19 -2.93,0.33 -4.37,0.62 -3.22,0.66 -6.08,2.09 -8.59,4.22 -0.39,0.34 -0.78,0.68 -1.14,1.06 -0.21,0.23 -0.38,0.51 -0.51,0.79 -0.16,0.34 -0.22,0.72 0.11,0.99 0.33,0.27 0.59,0 0.84,-0.19 1.1,-0.85 2.25,-1.65 3.28,-2.58 1.52,-1.37 3.38,-2.07 5.18,-2.92 1.94,-0.92 4.03,-0.83 6.08,-1 2.97,-0.25 5.77,0.42 8.49,1.57 0.75,0.32 1.5,0.68 2.43,0.62 z"
       style="fill:#ffffff;fill-opacity:1;fill-rule:nonzero;stroke:none"
       transform="matrix(1.3333333,0,0,-1.3333333,175.89333,328.96)"
       clip-path="url(#clipPath21)" />
    <path
       id="path22"
       d="m 0,0 c -0.1,-0.06 -0.2,-0.14 -0.31,-0.17 -2.45,-0.63 -4.91,-1.07 -7.43,-0.43 -0.31,0.08 -0.63,0.15 -0.91,0.29 -0.15,0.07 -0.23,0.27 -0.35,0.41 0.17,0.07 0.34,0.18 0.51,0.18 0.32,0.01 0.65,0.02 0.95,-0.08 1.45,-0.47 2.92,-0.32 4.39,-0.16 1.02,0.11 2.04,0.19 3.05,0.28 C -0.07,0.21 -0.03,0.1 0,-0.01 Z"
       style="fill:#ffffff;fill-opacity:1;fill-rule:nonzero;stroke:none"
       transform="matrix(1.3333333,0,0,-1.3333333,170.48,336.06667)"
       clip-path="url(#clipPath23)" />
    <path
       id="path24"
       d="M 0,0 C -0.05,-0.06 -0.11,-0.13 -0.16,-0.19 0.98,-1.46 1.17,-1.6 2.08,-1.62 1.29,-1.01 0.65,-0.51 0.01,0 Z m 3.13,-1.62 c 0,-0.74 -0.14,-1.22 -0.61,-1.44 -0.48,-0.23 -1.01,-0.25 -1.46,0.12 -0.74,0.6 -1.48,1.2 -2.18,1.84 -0.53,0.48 -0.61,0.91 -0.35,1.37 0.34,0.6 0.96,0.89 1.57,0.72 1.11,-0.3 2.07,-0.84 2.7,-1.83 0.19,-0.29 0.27,-0.64 0.32,-0.77 z"
       style="fill:#ffffff;fill-opacity:1;fill-rule:nonzero;stroke:none"
       transform="matrix(1.3333333,0,0,-1.3333333,220.96,49.613333)"
       clip-path="url(#clipPath25)" />
  </g>
</svg>
