<?xml version="1.0" encoding="UTF-8"?>
<svg id="_Слой_1" data-name="Слой 1" xmlns="http://www.w3.org/2000/svg" viewBox="0 0 255 366">
  <defs>
    <style>
      .cls-1, .cls-2 {
        stroke-width: 0px;
      }

      .cls-2 {
        fill: #fff;
      }
    </style>
  </defs>
  <path class="cls-2" d="m255,366c-85,0-170,0-255,0C0,244,0,122,0,0c85,0,170,0,255,0,0,122,0,244,0,366Zm-84.22-184.1c-.07.09-.14.18-.22.26-.08.08-.16.16-.24.24-.09.07-.17.15-.26.22-.08.08-.16.16-.24.24-.09.07-.19.13-.28.2-.4.31-.81.62-1.21.94-.06.11-.11.22-.17.33-.08.08-.16.15-.24.23-.08.08-.17.15-.25.23-.08.08-.16.16-.24.24-.08.08-.16.16-.24.24-.07.09-.15.17-.22.26-.08.08-.16.16-.24.24-.11.02-.27,0-.34.07-1.1,1.08-2.2,2.17-3.29,3.25-.08.08-.15.17-.23.25l-.24.24c-.08.08-.16.16-.24.24-.08.08-.16.16-.24.24-.29.19-.62.35-.87.59-2.94,2.76-5.87,5.52-8.79,8.3-3.5,3.34-7.22,6.41-11.18,9.19-1.1.77-2.3,1.46-3.54,1.98-2.92,1.21-4.04-.21-3.9-2.98,0-.04,0-.08.01-.12.33-1.15.5-2.37,1.02-3.42,1.15-2.33,2.53-4.54,4.27-6.48,2.47-2.77,4.98-5.5,7.56-8.17,2.47-2.56,4.56-5.43,6.76-8.2.05-.06.05-.15.07-.23.39-.49.79-.97,1.18-1.46.46-.31.96-.59.84-1.28.1-.07.2-.14.3-.21.02,0,.04,0,.06.01-.01-.01-.02-.03-.03-.04-.1.08-.2.16-.3.25-.3.41-.6.82-.9,1.24-.41.47-.82.94-1.24,1.41-.1.07-.21.12-.29.21-1.97,2.04-3.97,4.05-5.88,6.13-1.91,2.09-3.77,4.23-5.59,6.4-1.74,2.08-3.33,4.29-5.38,6.1-1.64,1.46-3.22,2.99-4.91,4.39-1.13.94-2.39,1.73-3.64,2.5-.41.26-.97.3-1.47.39-.28.05-.46-.12-.42-.43.09-.71.14-1.43.3-2.12.3-1.28.66-2.55,1.01-3.81.64-2.3,1.23-4.62,1.95-6.89,1.42-4.49,2.96-8.93,4.36-13.43,1.58-5.07,3.05-10.17,4.58-15.25.32-1.07.74-2.11,1.07-3.18.46-1.52.85-3.06,1.3-4.58.53-1.8,1.08-3.59,1.64-5.38,1.11-3.54,2.23-7.07,3.36-10.61.51-1.59,1.07-3.17,1.6-4.76.85-2.57,1.76-5.13,2.52-7.73.59-2.02,1.12-4.08,1.45-6.16.33-2.08.4-4.19.79-6.27.29-1.58.66-3.12,1.37-4.56.69-1.39,1.38-2.78,2.1-4.15,1.25-2.4,1.82-4.94,1.53-7.64-.19-1.77-.45-3.51-.22-5.32.28-2.21.25-4.45.4-6.68.05-.83.26-1.65.35-2.48.27-2.73-.06-5.41-.92-8-.55-1.64-.3-3.15.44-4.6.56-1.1,1.27-2.12,1.96-3.14.92-1.36,1.46-2.8,1.51-4.47.03-1.02.23-2.06.49-3.05.13-.51.52-.99.89-1.38.54-.56,1.17-1.06,1.79-1.54,1.38-1.09,2.76-2.16,4.15-3.22.76-.58,1.52-1.16,2.31-1.7.68-.47,1.4-.9,2.1-1.34.96-.61,1.76-1.56,3.07-1.45.14.01.3-.1.44-.18,1.51-.85,2.43-2.21,2.96-3.78.3-.88.44-1.91.32-2.83-.21-1.59-.75-3.11-2.1-4.17-.19-.15-.34-.34-.5-.52-1.48-1.57-2.92-3.17-4.44-4.69-1.4-1.41-2.96-2.67-4.32-4.12-1.14-1.21-2.25-2.45-3.39-3.67-.87-.94-1.78-1.83-2.76-2.61-1.77-1.42-3.76-1.83-5.89-.71-.32.17-.65.35-.99.42-1.42.28-2.38,1.29-3.36,2.19-1.29,1.18-2.42,2.53-3.64,3.79-2.53,2.61-5.1,5.17-8.18,7.15-.5.32-.98.72-1.53.92-1.35.49-2.61,1.17-3.9,1.79-2.44,1.17-4.38,2.87-5.81,5.15-.92,1.47-2.01,2.78-3.4,3.81-.73.54-1.4,1.25-2.22,1.58-1.43.59-2.9,1.11-4.46,1.32-.63.08-1.27.17-1.88.34-1.8.5-3.61,1-5.39,1.6-1.32.45-2.63.98-3.72,1.88-2.91,2.4-5.33,5.23-7.16,8.55-.9,1.64-1.81,3.28-2.72,4.91-.68,1.22-1.4,2.42-2.03,3.66-1.26,2.48-2.87,4.7-4.89,6.6-.75.7-1.6,1.34-2.5,1.82-2.32,1.23-4.13,2.98-5.58,5.13-1.12,1.66-2.29,3.26-3.81,4.59-.59.51-1.11,1.12-1.59,1.74-.16.21-.21.66-.09.89.21.4.52.81.9,1.06,1.42.95,3.14,1.1,4.71,1.02,1.76-.1,3.47-.85,4.96-1.91,1.28-.92,2.23-2.14,3.06-3.46,1.02-1.6,2.41-2.71,4.22-3.36,2.27-.82,4.32-2.02,6.02-3.79.71-.74,1.53-1.4,2.37-2,1.08-.76,1.61-.55,2.03.7.09.26.15.54.15.82.02,2.28-.5,4.42-1.69,6.37-1.04,1.71-1.93,3.48-2.55,5.39-.6,1.85-.99,3.76-.69,5.67.42,2.66.44,5.32.54,7.99.03.81-.14,1.56-.56,2.28-.54.93-.65,2.04-.24,3,.53,1.26.57,2.59.6,3.87.06,2.3-.08,4.63-.36,6.92-.27,2.21-.79,4.39-.71,6.65.03.79-.16,1.62,0,2.37.4,1.83.9,3.64,1.47,5.42.53,1.67,1.33,3.25,1.6,5.01.1.65.43,1.2.99,1.59.74.51,1.36.42,1.84-.34.46-.74.94-1.5,1.25-2.31,1.27-3.22,1.9-6.58,1.92-10.04,0-1.77.15-3.51.75-5.18.4-1.12.69-2.29,1.37-3.5.07,1.39.18,2.58.18,3.78,0,3.68-.05,7.35-.07,11.03,0,.2,0,.4.02.6.25,2.38.44,4.77.4,7.17,0,.36,0,.72.02,1.08.18,2.42.38,4.85.57,7.27.12,1.51.24,3.02.33,4.54.09,1.39.23,2.79.21,4.18-.05,3.95-.2,7.89-.24,11.84-.02,1.91.06,3.83.18,5.74.12,1.83.35,3.65.55,5.47.11,1.03.29,2.05.4,3.08.15,1.34.26,2.69.41,4.04.09.79.26,1.57.35,2.36.19,1.66.36,3.33.53,4.99.07.68.11,1.37-.14,2.07-.62-.83-1.08-1.7-1.62-2.52-1.7-2.57-3.28-5.21-4.43-8.07-1.16-2.89-2.22-5.82-3.34-8.72-.23-.59-.53-1.14-.8-1.71l-.09-.21c.04.06.07.12.11.18.2.89.36,1.8.62,2.67,1.79,6.08,3.54,12.16,4.92,18.35.26,1.16.38,2.35.48,3.54.08.95-.29,1.27-1.22,1.05-.61-.14-1.24-.38-1.74-.74-1.45-1.02-2.67-2.28-3.65-3.75-1.48-2.22-2.84-4.52-4.39-6.69-2.04-2.87-3.69-5.97-5.5-8.96-1.24-2.04-2.34-4.17-3.84-6.05-.01,0-.02,0-.03-.01.02.01.04.03.06.04.12.37.19.76.36,1.1.4.83.86,1.62,1.26,2.45,1.81,3.74,3.78,7.39,5.89,10.97,1.93,3.27,3.53,6.71,5,10.21.69,1.66,1.27,3.36,1.49,5.15.1.82-.17,1.1-.94.8-.92-.36-1.83-.8-2.64-1.36-1.34-.93-2.59-1.99-3.9-2.98-3.9-2.95-7.33-6.41-10.68-9.94-2.01-2.11-3.91-4.32-5.86-6.49-2.35-2.61-4.77-5.16-7.04-7.84-2.45-2.89-4.73-5.93-7.15-8.85-2.63-3.17-5.34-6.27-8.02-9.39-.2-.23-.48-.39-.72-.59-.08-.08-.16-.16-.24-.24-.08-.08-.16-.16-.24-.24-.15-.24-.29-.47-.44-.71-.08-.11-.17-.21-.25-.32,0,0-.02,0-.03,0,.02.01.04.02.05.03.08.09.17.18.25.27.15.24.29.47.44.71.08.08.16.16.24.24.08.08.16.16.24.24.36.56.68,1.14,1.09,1.67,2.65,3.45,5.32,6.88,7.97,10.32,2.31,3,4.63,6,6.89,9.03,2.41,3.22,4.85,6.44,7.13,9.75,2.4,3.48,4.65,7.05,6.92,10.62,1.6,2.52,3.17,5.07,4.63,7.67.99,1.77,1.77,3.66,2.6,5.51.32.72.15.92-.56.76-1.12-.25-2.26-.49-3.34-.88-4.37-1.55-8.5-3.64-12.56-5.85-1.01-.55-2.06-1.04-3.09-1.56-.3-.15-.6-.24-.88.02-.16-.1-.33-.2-.49-.29,0-.01-.02-.02-.03-.03.01.02.02.04.03.06.17.08.34.16.51.24.92.6,1.8,1.27,2.77,1.78,4.86,2.54,9.53,5.36,13.76,8.88.93.78,1.74,1.64,2.42,2.64.54.8.45,1.31-.41,1.73-.97.47-2.01.85-3.11.76-1.5-.13-3.03-.26-4.49-.6-4.43-1.04-8.74-2.48-13.02-4.02-5.06-1.82-10.08-3.77-15.12-5.66-.97-.36-1.94-.73-2.93-1.05-.8-.26-1.61-.47-2.45-.1-.25-.08-.49-.15-.74-.23-.32-.08-.63-.15-.95-.23-.06-.07-.12-.14-.18-.2-.03.04-.06.07-.1.11.1.02.2.04.31.06.31.08.63.16.94.24.25.08.49.15.74.23.15.1.29.24.46.3,1.06.36,2.13.67,3.18,1.06,8.46,3.23,16.93,6.44,25.37,9.72,2.72,1.05,5.35,2.3,7.83,3.86.4.25.82.51,1.16.84.76.73.76,1.4.07,2.2-.62.71-1.37,1.2-2.26,1.51-1.22.42-2.49.62-3.76.61-2.91-.01-5.82-.06-8.73-.17-1.47-.05-2.94-.24-4.4-.42-2.64-.31-5.29-.67-7.93-.99-.43-.05-.87,0-1.3,0,.55.2,1.1.28,1.64.37,1.65.26,3.3.58,4.96.78,4.9.62,9.77,1.46,14.63,2.38,1.3.24,2.43.77,3.45,1.56.33.26.57.65.81,1.01.23.34.15.67-.14.97-.92.94-1.85,1.86-3,2.55-2.48,1.49-5.12,2.59-7.85,3.53-3.62,1.24-7.25,2.46-10.87,3.7-8.76,3-17.51,6-26.12,9.41-.38.15-.72.41-1.08.62-.11,0-.23.02-.34.03.02.04.03.08.05.13.09-.06.18-.12.27-.17.38-.08.78-.12,1.15-.24,1.85-.63,3.68-1.31,5.53-1.93,3.06-1.02,6.14-1.99,9.2-3.03,3.88-1.33,7.75-2.68,11.71-3.8,6.99-1.97,14.08-3.44,21.29-4.35.86-.11,1.68.08,2.43.49.62.34.69.68.47,1.39-.38,1.22-1.14,2.17-2.06,3.03-2.74,2.53-5.72,4.74-8.89,6.67-5.07,3.09-10.2,6.11-15.29,9.17-.47.28-.9.63-1.35.95-.14.1-.28.2-.42.3-.19.05-.37.1-.56.15,0,.04-.02.08-.02.12,0,.02.02.04.03.05-.01-.06-.02-.13-.03-.19.19-.05.38-.1.57-.15.18-.06.35-.12.53-.18.22-.08.46-.13.66-.25,1.58-.86,3.14-1.74,4.73-2.58.66-.35,1.39-.56,2.03-.93,2.66-1.53,5.26-3.17,7.95-4.64,2.62-1.44,5.3-2.78,7.99-4.07,2.41-1.15,4.87-2.2,7.62-2.29.92-.03,1.22.07,1.58.91.14.32.22.68.26,1.03.17,1.58-.45,2.9-1.46,4.05-2.79,3.18-5.53,6.4-8.42,9.48-3.09,3.29-6.3,6.46-9.5,9.64-4.25,4.22-8.54,8.39-12.81,12.6-2.3,2.27-4.56,4.58-6.87,6.84-1.85,1.82-3.75,3.59-5.62,5.38-.07.09-.13.18-.2.26-.11.1-.21.19-.32.29,0,0,.02-.02.03-.03.09-.1.18-.19.27-.29.06-.09.13-.18.19-.27.49.15.74-.25,1.01-.5,1.28-1.15,2.51-2.35,3.81-3.48,1.87-1.63,3.68-3.31,5.4-5.1,1.77-1.84,3.71-3.51,5.57-5.26,2.76-2.6,5.53-5.19,8.28-7.81,2.89-2.75,5.77-5.52,8.65-8.29,2.9-2.8,6-5.38,9.14-7.91,1.95-1.58,4.14-2.7,6.56-3.35.74-.2,1.47-.35,2.21.04.36.19.59.41.55.83-.11.95-.08,1.94-.37,2.83-1.28,3.87-2.64,7.7-3.99,11.54-.1.3-.25.59-.42.86-3.55,5.79-7.11,11.58-10.65,17.37-.6.98-1.11,2.02-1.65,3.03-.33.15-.47.4-.4.76h-.05s.03-.01.03-.01c.16-.23.32-.47.47-.7.27-.34.58-.65.81-1.01,1.31-2.05,2.59-4.12,3.91-6.17,3.28-5.1,6.56-10.2,9.87-15.28,1.28-1.97,2.55-3.96,3.95-5.85,1.06-1.43,2.44-2.51,4.22-2.99,2.16-.58,4.1.53,4.43,2.74.17,1.14.09,2.24-.22,3.31-.65,2.26-1.35,4.5-2.1,6.73-1.52,4.54-3.12,9.04-4.6,13.59-1.52,4.66-3.13,9.3-4.95,13.85-.34.85-.63,1.71-.95,2.57-.1.14-.21.28-.31.43-.02.07-.05.14-.06.21,0,0,.04.03.07.04-.01-.09-.02-.18-.03-.27.34.03.34-.19.31-.43.17-.19.41-.35.51-.56.89-1.96,1.79-3.92,2.64-5.91,1.16-2.72,2.23-5.47,3.4-8.17,1.63-3.73,3.33-7.43,4.98-11.15,1.68-3.8,3.53-7.51,5.83-10.99.77-1.17,1.56-2.34,2.69-3.19,1.52-1.15,3.64-.44,4.03,1.41.25,1.16.29,2.37.36,3.56.07,1.28-.01,2.56.08,3.84.24,3.31.47,6.61.42,9.93-.04,2.51,0,5.03-.03,7.54-.03,2.16-.19,4.31-.2,6.46-.03,4.2.04,8.39-.03,12.59-.06,3.59-.28,7.18-.38,10.77-.13,4.75-.22,9.51-.32,14.26-.01.59,0,1.19,0,1.78.33-.72.48-1.46.51-2.2.18-3.71.34-7.42.48-11.13.1-2.79.17-5.59.25-8.38.03-1,.04-2,.11-2.99.19-2.78.41-5.57.61-8.35.11-1.55.17-3.11.34-4.65.45-4.24.95-8.47,1.43-12.71.3-2.61.57-5.23.91-7.84.6-4.64,1.58-9.2,3.22-13.59.08-.22.14-.46.25-.67.21-.4.57-.46.84-.09.41.59.81,1.19,1.1,1.84,1.73,3.83,3.1,7.79,3.95,11.91.95,4.61,1.87,9.23,2.84,13.83.28,1.32.52,2.66,1.13,3.89-.06-.67-.23-1.32-.36-1.98-.81-4.23-1.68-8.45-2.38-12.7-.53-3.22-1.45-6.37-1.59-9.67-.12-2.72-.31-5.42.31-8.1.14-.62.31-1.24.57-1.82.35-.81.79-.89,1.48-.33.21.17.4.4.56.62.39.51.78,1.01,1.13,1.55,2.53,3.88,5.04,7.78,7.58,11.65.5.76,1.07,1.47,1.61,2.21.16.24.32.48.48.72.17.31.31.64.5.94,1.94,3.07,3.89,6.13,5.85,9.18.1.15.28.25.42.38.04.33.02.72.53.67.07.17.13.35.2.52.06.18.12.36.18.53l.32.16.17.54c.12.05.23.1.35.15.05.19.09.38.14.57l.16.06c-.06-.01-.12-.02-.19-.03-.05-.19-.09-.38-.14-.57-.11-.05-.23-.1-.34-.15l-.17-.54c-.11-.05-.22-.11-.33-.16-.06-.18-.12-.37-.17-.55-.07-.17-.13-.34-.2-.51-.18-.22-.35-.45-.53-.67-.14-.36-.24-.75-.43-1.08-1.19-2.03-2.42-4.04-3.61-6.07-2.12-3.61-4.17-7.27-6.35-10.84-1.35-2.22-2.67-4.45-3.63-6.87-.31-.77-.51-1.59-.74-2.39-.14-.46,0-.91.34-1.21.36-.31.8-.29,1.22-.02.93.61,1.96,1.11,2.78,1.84,2.93,2.59,5.79,5.25,8.66,7.91,1.25,1.17,2.45,2.4,3.67,3.6.06.11.12.22.18.33l.06-.03-.08.02c-.06-.1-.12-.2-.18-.3,0-.15.04-.35-.04-.45-.61-.84-1.2-1.7-1.89-2.47-2.48-2.76-5.06-5.43-7.23-8.46-1.17-1.63-2.18-3.35-2.65-5.33-.1-.42-.14-.87-.09-1.3.12-1.06.8-1.42,1.79-.95.43.2.84.47,1.22.76,3.14,2.39,6.29,4.78,9.41,7.21,1.82,1.42,3.54,2.99,5.39,4.38,3.01,2.26,5.87,4.67,8.74,7.1,1.09.92,2.24,1.77,3.37,2.65.56.48,1.12.96,1.68,1.44.09.06.18.13.27.19.06.11.12.23.18.34.02,0,.03,0,.05,0l-.08-.02c-.06-.1-.12-.2-.18-.3-.06-.09-.12-.18-.18-.28-.56-.49-1.11-.97-1.67-1.46-.21-.23-.4-.49-.64-.7-1.49-1.32-2.99-2.64-4.5-3.95-1.83-1.6-3.65-3.22-5.51-4.8-1.58-1.34-3.29-2.55-4.78-3.98-2.36-2.27-4.6-4.67-6.85-7.05-1.7-1.8-3.34-3.65-4.08-6.12-.18-.59-.22-1.12.11-1.57.35-.47.93-.43,1.44-.29.81.22,1.65.4,2.38.77,2.31,1.17,4.61,2.38,6.86,3.66,2.22,1.26,4.37,2.65,6.57,3.95,2.86,1.68,5.73,3.32,8.61,4.97.34.19.7.34,1.06.5.18.05.36.1.54.15.04.14.08.28.12.42.18.07.36.13.54.2,0,.01.02.03.03.04,0-.02-.02-.04-.03-.06-.18-.05-.37-.1-.55-.15-.04-.14-.08-.28-.13-.42-.18-.05-.36-.11-.54-.16-.17-.19-.32-.43-.53-.58-3.57-2.41-7.12-4.85-10.73-7.21-2.23-1.46-4.53-2.83-6.83-4.19-2.1-1.24-3.83-2.86-5.22-4.85-.09-.13-.19-.26-.26-.4-.47-.92-.23-1.64.73-2.01.4-.16.85-.31,1.27-.3,1.43.03,2.86.1,4.29.23,1.9.17,3.8.44,5.7.61,2.3.2,4.61.35,6.91.49.9.05,1.8,0,2.69,0-1.43-.45-2.85-.8-4.29-.98-4.4-.58-8.76-1.37-13.06-2.47-1.04-.26-2.04-.66-3.03-1.08-.51-.22-.56-.55-.18-.91.34-.32.75-.59,1.16-.82,1.2-.65,2.49-1.02,3.82-1.31,2.64-.58,5.16-1.68,7.89-1.92.71-.06,1.42-.17,2.14-.25,3.25-.36,6.49-.74,9.74-1.05,1.94-.18,3.9-.23,5.85-.37,2.5-.18,5-.4,7.5-.6,2.46-.2,4.93-.41,7.39-.62-1.79-.19-3.58-.37-5.37-.36-4.27,0-8.54.09-12.81.15-.48,0-.96.05-1.44.04-3.03-.07-6.05.39-9.09.07-3.01-.32-6.04-.43-9.05-.79-2.49-.3-4.94-.88-7.32-1.72-.94-.33-1.15-.97-.53-1.74.32-.4.7-.79,1.14-1.05,1.17-.69,2.34-1.39,3.58-1.91,1.69-.71,3.43-1.3,5.17-1.87,2.84-.93,5.68-1.88,8.55-2.7,3.72-1.07,7.47-2,11.2-3.02,4.88-1.34,9.75-2.73,14.64-4.07,3.58-.98,7.16-1.92,10.75-2.84,1.93-.5,3.89-.89,5.81-1.39.8-.21,1.63-.43,2.28-1.01.44.12.89.26,1.23-.2h.72c-.01-.07-.02-.15-.03-.22-.22.08-.45.16-.67.25-.41.07-.82.14-1.23.2-.39.07-.79.12-1.17.22-2.47.62-4.94,1.23-7.39,1.89-3.71,1-7.4,2.05-11.21,2.61-.87.13-1.71.45-2.56.68l.02-.02c-1.05.09-2.08.23-3.04.69-.32.08-.64.16-.95.24-.34.02-.73-.17-.97.24-.4.08-.8.16-1.19.24-.35-.03-.71-.13-.95.24-.34.01-.73-.18-.97.24-.4.08-.8.16-1.2.23-.32.08-.64.16-.97.24-.35-.02-.72-.16-.96.24-.39.03-.8.02-1.18.11-1.05.24-2.08.53-3.13.77-7.38,1.67-14.76,3.36-22.15,4.99-1.71.38-3.44.75-5.21.62-.75-.05-.97-.36-.55-.99.5-.76,1.05-1.55,1.75-2.1,3.53-2.8,7.03-5.68,11.25-7.45.18-.08.36-.18.54-.27,4.49-2.36,8.98-4.71,13.46-7.1.51-.27.93-.71,1.4-1.07.49-.1.95-.23,1.18-.74.17-.07.33-.15.5-.22.17-.07.34-.13.5-.2.05-.12.09-.25.14-.37.19-.05.37-.11.56-.16.16-.07.31-.14.47-.22l.03-.04s-.03.05-.03.05c-.15.08-.3.15-.44.23-.19.05-.37.11-.56.16-.04.12-.09.25-.13.37-.17.06-.34.13-.52.19-.17.07-.33.15-.5.22-.48.11-.96.21-1.2.71-.37.13-.75.24-1.09.41-.96.48-1.9,1-2.87,1.48-2.11,1.04-4.26,2.01-6.33,3.11-3.48,1.85-6.9,3.83-10.54,5.38-3.01,1.28-5.99,2.61-9.18,3.39-.26.06-.53.09-1,.16.31-.34.47-.56.67-.73.79-.67,1.58-1.34,2.41-1.97,3.43-2.6,6.87-5.19,10.31-7.78,1.27-.96,2.51-1.95,3.77-2.92.48-.32.95-.65,1.43-.97.24-.16.48-.32.72-.48.06-.11.12-.21.18-.32.18-.05.36-.1.55-.15.06-.1.13-.19.19-.29.06-.11.11-.22.17-.33.19-.04.38-.08.57-.13.06-.11.12-.22.18-.33.19-.04.38-.07.57-.11.06-.1.12-.2.17-.3.07-.11.14-.23.21-.34.21-.01.42-.02.62-.03.01-.14.02-.28.04-.43h.08s-.06-.01-.06-.01c-.02.15-.04.3-.05.46-.2.02-.4.03-.6.05-.07.11-.14.22-.21.33-.06.1-.12.2-.18.3-.18.04-.37.08-.55.11-.06.11-.12.21-.19.32-.19.04-.38.09-.57.13-.06.11-.11.22-.17.33-.06.1-.13.2-.19.3-.18.05-.36.1-.55.14-.06.11-.12.21-.18.32-.4-.16-.62.09-.83.36-.47.32-.95.65-1.42.97-.34.19-.7.36-1.03.57-3.38,2.24-6.73,4.53-10.15,6.71-2.01,1.28-4.12,2.42-6.39,3.18-1.08.36-1.59.08-1.8-1.03-.09-.44-.02-.94.07-1.39.08-.42.29-.82.45-1.23.31-.41.61-.83.92-1.24.22-.17.47-.3.64-.51,2.07-2.39,4.64-4.22,7.06-6.21.91-.75,1.72-1.62,2.58-2.44.08-.08.16-.16.24-.23.05-.1.1-.2.15-.3l.08.02-.05-.04c-.05.11-.1.23-.15.34-.08.08-.16.16-.23.24-.24.13-.52.21-.72.38-3.35,2.86-7.07,5.17-10.75,7.54-.83.53-1.8.84-2.7,1.25-.42.19-.77.06-1.11-.2-.78-.59-1.01-1.55-.59-2.69.66-1.77,1.56-3.39,2.89-4.77,1.35-1.41,2.63-2.89,3.94-4.33,1.39-1.53,2.73-3.12,4.19-4.59,2.64-2.65,5.36-5.23,8.04-7.85.25-.24.44-.55.65-.83.08-.08.16-.16.24-.24.08-.08.16-.16.24-.24.08-.08.16-.16.24-.24.09-.07.17-.15.26-.22,1.4-.91,2.44-2.19,3.56-3.4.08-.08.16-.16.24-.24.09-.07.17-.15.26-.22.08-.08.16-.16.24-.24.08-.08.16-.16.24-.24.08-.08.15-.17.23-.25.08-.08.15-.16.23-.24.06-.11.11-.22.17-.33.7.15.93-.48,1.32-.82.07-.09.14-.18.21-.27.08-.08.16-.16.23-.25.07-.08.15-.17.22-.25.08-.08.16-.16.24-.24.09-.07.18-.14.26-.22.06-.1.13-.19.19-.29.06-.09.12-.17.19-.26.09-.09.19-.18.28-.27.09-.07.18-.15.26-.22.07-.06.15-.12.22-.18.05-.11.11-.21.16-.32l.09.02-.07-.03c-.05.12-.1.23-.16.35-.07.06-.15.13-.22.19-.09.07-.18.15-.26.22-.09.09-.19.17-.28.26-.06.09-.13.17-.19.26-.08.08-.17.15-.25.23Zm2.92-2.53c-.07.08-.15.15-.22.23-.08.08-.16.16-.24.24-.08.08-.16.16-.24.24h-.06s.04-.03.04-.03c.08-.08.16-.16.24-.24.08-.08.16-.16.24-.24.08-.08.16-.15.24-.23.08-.11.16-.23.24-.34.07-.07.14-.14.21-.21,0-.02.01-.04.02-.07.01.02.03.04.04.05-.02,0-.04,0-.06-.01-.07.09-.14.17-.2.26-.09.12-.17.23-.26.35Zm.48,24.63s-.03-.02-.04-.04c.02.01.05.02.07.03.01,0,.03-.02.04-.03-.02.01-.05.02-.07.03Zm-.76.43c-.06.13-.11.26-.17.39h-.07s.06-.04.06-.04c.05-.11.11-.22.16-.33.02-.01.04-.03.05-.04,0,.02,0,.04.01.06-.01-.01-.03-.03-.04-.04Zm3.92-28.72l-.31.24-.05.03.03-.05c.12-.08.23-.17.35-.25-.02,0-.05,0-.07-.01l.06-.03s-.01.05-.02.07Zm-4.86,29.51s-.04.04-.06.07c.01-.03.02-.06.04-.09l.05-.02-.03.05Zm-13.88,93.8s-.04-.06-.07-.09c-.01,0-.05,0-.07.01.06.01.12.03.17.04.06.2.12.4.18.61.01,0,.03,0,.04-.01-.02,0-.05,0-.07-.01l-.18-.55Zm-36.65,46.75s.06,0,.09,0c.03-.45.06-.9.09-1.35-.06,0-.12,0-.18,0v1.35Zm-63.29-111.21s-.03.06-.05.1h1.34s0-.06,0-.1h-1.3Zm162.53-21.5c.07-.02.15-.04.22-.06-.07-.03-.14-.08-.2-.08-.08,0-.16.06-.25.1.08.01.15.03.23.04Zm-.93.16c-.06-.02-.13-.07-.19-.07-.06,0-.12.05-.19.08.06.02.13.07.19.07.06,0,.13-.05.19-.08Zm-171.76,2.18l-.08-.05-.02.07.1-.02Zm173.64-2.63s-.02-.07-.03-.07c-.03,0-.06.01-.1.02,0,.03.02.07.03.07.03,0,.06-.02.1-.03Z"/>
  <path class="cls-1" d="m158.32,206.15c-.86.82-1.66,1.69-2.58,2.44-2.42,1.99-4.99,3.81-7.06,6.21-.18.2-.43.34-.64.51,0,0-.05-.05-.05-.05.31-.4.61-.81.93-1.21.32-.4.66-.78.99-1.17,0,0,.06-.03.06-.03l-.03.06c-.74.46-1.49.9-2.21,1.38-1,.67-2.03,1.25-3.19,1.6-.63.19-1.13.05-1.66-.34-1.13-.85-1.31-1.96-.92-3.19.55-1.72,1.38-3.31,2.64-4.64,1.26-1.33,2.52-2.67,3.76-4.02.16-.18.22-.46.33-.69.08-.07.16-.13.23-.2.1-.07.19-.14.29-.21.09-.1.18-.19.26-.29,0-.02.02-.05.03-.07.01.02.02.05.04.07-.02,0-.04-.02-.06-.03-.09.11-.17.23-.26.34-.09.06-.18.13-.27.19-.08.07-.15.14-.23.22-1.62,1.29-3.21,2.62-4.86,3.87-1.84,1.4-3.67,2.84-5.85,3.66-.77.29-1.6.43-2.42.55-.52.07-1.01-.14-1.38-.57-.92-1.03-1.13-2.22-.92-3.56.41-2.55,1.66-4.71,3.06-6.8-.02-.01-.03-.02-.05-.03,0,.02.01.04.02.06-.35.24-.76.43-1.05.74-1.67,1.79-3.61,3.26-5.52,4.77-1.76,1.38-3.7,1.81-5.84,1.18-.77-.22-1.43-.25-2.19.08-.63.27-1.35.57-2.07.19-1.01-.54-2.04-.83-3.21-.54-.68.16-1.37.05-1.81-.62-.87-1.34-1.75-2.67-2.56-4.04-.88-1.47-1.68-2.99-2.52-4.49-.09-.16-.27-.28-.54-.56.43,1.48.82,2.73,1.14,4,.33,1.27.62,2.56.86,3.85.2,1.05.29,2.11.07,3.19-.26,1.27-1.64,2.06-2.83,1.64-.92-.32-1.78-.71-2.45-1.43-.87-.93-1.75-1.85-2.62-2.78-.01-.01-.02-.02-.04-.03.01.02.03.04.04.06.19.52.4,1.04.58,1.57.54,1.58,1.25,3.11,1.21,4.84-.03,1.04-.37,1.47-1.39,1.52-.27.01-.56-.02-.83-.07-1.43-.3-2.67-1.01-3.84-1.85-1.13-.81-2.22-1.69-3.34-2.52-4.28-3.17-7.98-6.95-11.55-10.88-.96-1.05-1.95-2.08-2.92-3.11.01-.36-.2-.46-.52-.43-.02-.05-.04-.09-.06-.14.03,0,.07,0,.1-.01-.02.04-.04.09-.07.13.19.14.38.28.57.42.03.11.03.25.09.34,1.93,2.98,3.83,5.98,5.79,8.94,2.47,3.73,4.79,7.55,6.69,11.6.58,1.22,1.02,2.51,1.47,3.79.34.95-.16,1.57-1.17,1.54-.32,0-.64-.06-.95-.13-2.58-.6-4.94-1.78-7.32-2.89-.05.03-.09.05-.14.08,0-.03,0-.07,0-.1.05.02.1.03.15.05.25.24.48.51.75.71,1.35,1,2.71,1.98,4.06,2.97,1.44,1.05,2.59,2.35,3.38,4,.11-.15.22-.27.3-.41.69-1.25,1.37-2.5,2.25-3.63,1.79-2.31,3.75-4.44,6.07-6.22,2.81-2.15,5.9-3.76,9.27-4.83,2.4-.76,4.83-1.32,7.35-1.48,2.22-.14,4.43-.54,6.66-.21,1.18.18,2.36.39,3.53.62.74.15,1.48.32,2.2.55,2.32.74,4.5,1.75,6.6,3,2.18,1.29,4.16,2.83,5.89,4.63,1.32,1.37,2.37,2.98,3.55,4.48.18.24.39.46.51.6,1.88-1.44,3.68-2.81,5.48-4.2.4-.31.77-.67,1.15-1,.26-.14.52-.27.77-.41,0,0,.01.02.02.03-.35-.04-.63.04-.77.4-.15.04-.32.04-.45.11-1.13.59-2.23,1.23-3.38,1.8-.85.42-1.73.82-2.63,1.13-1.16.39-1.83-.01-2.13-1.21-.3-1.18.13-2.17.87-3.07.04.03.07.07.11.1-.15.41-.36.81-.45,1.23-.09.45-.16.95-.07,1.39.21,1.11.72,1.39,1.8,1.03,2.28-.76,4.38-1.9,6.39-3.18,3.42-2.18,6.77-4.47,10.15-6.71.33-.22.69-.38,1.03-.57l.07.08c-1.25.97-2.5,1.96-3.77,2.92-3.43,2.6-6.88,5.18-10.31,7.78-.82.63-1.61,1.3-2.41,1.97-.2.17-.36.39-.67.73.47-.07.74-.1,1-.16,3.19-.78,6.17-2.11,9.18-3.39,3.64-1.55,7.06-3.53,10.54-5.38,2.08-1.1,4.22-2.07,6.33-3.11.96-.48,1.91-1,2.87-1.48.35-.17.73-.27,1.09-.41h0c-.46.36-.89.8-1.4,1.07-4.48,2.38-8.97,4.74-13.46,7.1-.18.09-.35.19-.54.27-4.22,1.77-7.71,4.65-11.25,7.45-.7.56-1.25,1.35-1.75,2.1-.42.63-.2.93.55.99,1.78.13,3.51-.24,5.21-.62,7.39-1.63,14.77-3.32,22.15-4.99,1.05-.24,2.08-.53,3.13-.77.38-.09.79-.08,1.18-.11v-.02c-.14.08-.25.2-.39.23-4.87,1.17-9.73,2.37-14.61,3.48-4.53,1.03-9.09,1.97-13.64,2.93-1.52.32-3.05.54-4.57,0,.15-.41.25-.84.45-1.22.55-1.04,1.39-1.85,2.3-2.56,1.45-1.12,2.93-2.2,4.4-3.3.25-.19.5-.4.74-.6-3.16,1.07-6.12,2.56-9.43,3.06-.1.01-.23.3-.21.44.04.23.2.43.29.65.49,1.17.97,2.34,1.45,3.51.14.33.34.64.41.99.42,1.86.85,3.73,1.22,5.6.51,2.57.53,5.18.07,7.72-.83,4.57-2.16,8.96-4.8,12.9-2.01,3-4.36,5.61-7.23,7.74-3.62,2.69-7.65,4.56-12.07,5.55-4.1.91-8.22.99-12.35.25-1.01-.18-2.05-.24-3.01-.55-1.43-.45-2.82-1.05-4.2-1.64-2.8-1.2-5.35-2.82-7.65-4.8-2.67-2.31-4.9-5-6.63-8.1-1.25-2.24-2.26-4.58-2.87-7.06-.79-3.21-1.19-6.48-.81-9.81.29-2.62.72-5.2,1.72-7.66.3-.73.48-1.5.71-2.26.04-.05.07-.09.11-.14-.03.05-.06.11-.09.16-.18.07-.36.15-.54.22-1.55.66-3.1,1.12-4.86.83-1.85-.3-3.71-.51-5.48-1.16-.26-.09-.55-.12-.82-.17-.1-.05-.21-.1-.31-.14-.02,0-.05.04-.08.06.14.02.28.04.42.05.32.2.62.44.96.61,1.81.93,3.64,1.82,5.44,2.77.85.45,1.63,1,2.15,1.85.6.99.53,1.71-.25,2.6-.57.65-1.25,1.15-2.07,1.38-1.03.28-2.09.59-3.14.65-1.93.1-3.87.03-5.81.03l-.02.25c1.24.23,2.49.43,3.73.68,1.25.25,2.51.48,3.73.83,1.54.44,1.96,1.91.96,3.14-.03.03-.06.06-.08.09-1.4,1.88-3.34,3.06-5.37,4.12-2.59,1.36-5.37,2.23-8.14,3.15-.66.22-1.29.52-1.93.78l-.41.05s.06.06.07.05c.11-.03.21-.08.31-.12,2.81-.54,5.62-1.11,8.44-1.61,1.96-.34,3.93-.6,5.9-.86.93-.12,1.83.02,2.67.49,1,.55,1.43,1.57,1.09,2.63-.36,1.11-.87,2.15-1.77,2.94-1.23,1.08-2.45,2.17-3.67,3.26-.19.17-.53.28-.34.65l-.69.15s.04.02.06.03c0-.02-.02-.04-.03-.06.22-.04.44-.08.66-.12,1.73-1.18,3.68-1.88,5.66-2.47,1.06-.31,2.18-.43,3.28-.54.45-.04,1,.04,1.36.28,1.1.72,1.47,1.94,1.13,3.25-.35,1.34-1.02,2.52-1.9,3.56-2.33,2.72-4.72,5.39-7.08,8.09-.25.29-.44.63-.66.95-.05.09-.1.18-.16.27-.11.08-.22.16-.32.24-.01-.01-.03-.02-.04-.03,0,.02.01.04.02.06.11-.09.21-.19.32-.28.06-.09.11-.19.17-.28.48-.35.98-.66,1.44-1.04,1.48-1.22,2.93-2.47,4.4-3.69,1.71-1.41,3.61-2.49,5.74-3.12.69-.2,1.38-.43,2.08-.53,1.32-.18,2.2.65,2.25,1.98.05,1.38-.22,2.71-.68,3.99-1.07,2.96-2.19,5.91-3.3,8.86,0,.01-.01.02-.02.03.02-.02.03-.03.05-.05.19-.18.42-.33.55-.54,1.28-2.02,2.55-4.06,4.34-5.69,1.09-.99,2.19-1.99,3.64-2.42,1.4-.42,2.82-.45,3.92.65,1.52,1.51,2.24,3.37,1.88,5.54-.14.86-.36,1.72-.65,2.54-.84,2.4-1.78,4.78-2.6,7.19-.8,2.34-1.5,4.71-2.25,7.07,0,.06,0,.13,0,.19,0-.07,0-.14.01-.21.53-.14.53-.65.68-1.03,2.14-5.08,4.22-10.18,7.23-14.83.8-1.24,1.66-2.45,2.62-3.56,1.08-1.25,2.41-1.67,4.09-1.05,1.26.47,1.88,1.28,2.04,2.53.11.87.14,1.75.18,2.62.09,1.79.15,3.59.24,5.38.07,1.39.2,2.79.23,4.18.04,1.92.05,3.83.02,5.75-.06,3.75-.17,7.5-.24,11.26-.03,1.58.01,3.15.02,4.73.19-.64.2-1.28.27-1.91.44-4.16.94-8.32,1.33-12.48.32-3.5.71-6.98,1.29-10.44.63-3.74,1.6-7.4,2.89-10.97.2-.56.48-1.02,1.12-1.12.69-.1,1.13.29,1.5.79.09.13.17.27.23.42.8,1.87,1.61,3.73,2.4,5.6.2.48.36.97.54,1.46.08-.76,0-1.47-.06-2.18-.16-2.04-.13-4.07.25-6.09.18-.93.42-1.87.76-2.75.29-.75.85-.9,1.55-.52.35.19.68.44.94.73.45.5.88,1.03,1.26,1.6,1.04,1.56,2.04,3.15,3.07,4.72.23.35.53.67.8,1l-.03-.04c.25.41.5.83.75,1.24l-.03-.04c.15.32.26.66.45.96,1.05,1.69,2.12,3.37,3.19,5.05.12.19.31.35.47.52l-.03-.04c.17.25.34.5.51.76,0,0-.03-.04-.03-.04.02.15.03.31.05.46-.03.03-.06.06-.09.09-.54-.73-1.11-1.45-1.61-2.21-2.54-3.88-5.05-7.77-7.58-11.65-.35-.53-.74-1.04-1.13-1.55-.17-.22-.35-.44-.56-.62-.69-.56-1.13-.48-1.48.33-.25.58-.42,1.2-.57,1.82-.62,2.68-.43,5.38-.31,8.1.14,3.3,1.06,6.45,1.59,9.67.7,4.25,1.57,8.47,2.38,12.7.13.66.29,1.31.36,1.98-.61-1.23-.86-2.57-1.13-3.89-.97-4.6-1.89-9.22-2.84-13.83-.85-4.12-2.22-8.08-3.95-11.91-.29-.65-.69-1.26-1.1-1.84-.26-.38-.63-.32-.84.09-.11.21-.17.45-.25.67-1.63,4.4-2.61,8.95-3.22,13.59-.34,2.61-.61,5.23-.91,7.84-.48,4.24-.98,8.47-1.43,12.71-.16,1.55-.22,3.1-.34,4.65-.2,2.78-.42,5.57-.61,8.35-.07,1-.08,2-.11,2.99-.08,2.79-.14,5.59-.25,8.38-.14,3.71-.3,7.42-.48,11.13-.04.74-.19,1.47-.51,2.2,0-.59-.01-1.19,0-1.78.1-4.75.19-9.51.32-14.26.1-3.59.32-7.18.38-10.77.07-4.2,0-8.39.03-12.59.02-2.15.17-4.31.2-6.46.04-2.51,0-5.03.03-7.54.05-3.32-.18-6.62-.42-9.93-.09-1.27-.01-2.56-.08-3.84-.06-1.19-.11-2.4-.36-3.56-.39-1.85-2.51-2.56-4.03-1.41-1.13.86-1.92,2.02-2.69,3.19-2.29,3.48-4.14,7.19-5.83,10.99-1.65,3.72-3.35,7.42-4.98,11.15-1.18,2.71-2.25,5.46-3.4,8.17-.84,1.98-1.74,3.94-2.64,5.91-.1.22-.33.38-.51.56,0,0,.02.02.02.02.31-.86.61-1.72.95-2.57,1.82-4.56,3.42-9.19,4.95-13.85,1.49-4.55,3.08-9.05,4.6-13.59.74-2.23,1.45-4.47,2.1-6.73.31-1.07.39-2.17.22-3.31-.34-2.21-2.27-3.32-4.43-2.74-1.78.48-3.16,1.56-4.22,2.99-1.4,1.89-2.67,3.87-3.95,5.85-3.3,5.08-6.59,10.18-9.87,15.28-1.32,2.05-2.6,4.12-3.91,6.17-.23.36-.54.68-.81,1.01,0,0-.05-.05-.05-.05.55-1.01,1.06-2.05,1.66-3.03,3.54-5.8,7.1-11.58,10.65-17.37.17-.27.31-.56.42-.86,1.34-3.84,2.71-7.68,3.99-11.54.29-.89.26-1.88.37-2.83.05-.41-.19-.64-.55-.83-.74-.39-1.47-.24-2.21-.04-2.42.65-4.61,1.77-6.56,3.35-3.13,2.54-6.23,5.11-9.14,7.91-2.87,2.77-5.75,5.54-8.65,8.29-2.75,2.61-5.52,5.21-8.28,7.81-1.86,1.75-3.79,3.43-5.57,5.26-1.72,1.79-3.53,3.47-5.4,5.1-1.3,1.13-2.52,2.33-3.81,3.48-.28.25-.52.64-1.01.5,0,0,.02.04.02.04,1.88-1.79,3.77-3.56,5.62-5.38,2.31-2.26,4.57-4.58,6.87-6.84,4.26-4.21,8.56-8.38,12.81-12.6,3.2-3.18,6.41-6.35,9.5-9.64,2.89-3.08,5.63-6.3,8.42-9.48,1.01-1.15,1.63-2.47,1.46-4.05-.04-.35-.12-.71-.26-1.03-.36-.83-.66-.94-1.58-.91-2.75.09-5.21,1.14-7.62,2.29-2.7,1.29-5.37,2.63-7.99,4.07-2.69,1.48-5.29,3.11-7.95,4.64-.64.37-1.38.58-2.03.93-1.59.84-3.15,1.72-4.73,2.58-.21.11-.44.17-.66.25-.03-.03-.06-.07-.09-.1.45-.32.88-.66,1.35-.95,5.1-3.06,10.22-6.08,15.29-9.17,3.17-1.93,6.15-4.15,8.89-6.67.93-.85,1.68-1.81,2.06-3.03.22-.7.15-1.05-.47-1.39-.75-.41-1.57-.6-2.43-.49-7.21.91-14.29,2.38-21.29,4.35-3.96,1.12-7.82,2.47-11.71,3.8-3.06,1.04-6.14,2-9.2,3.03-1.85.62-3.68,1.3-5.53,1.93-.37.13-.77.16-1.15.24l.02.02c.36-.21.7-.47,1.08-.62,8.61-3.41,17.36-6.41,26.12-9.41,3.62-1.24,7.25-2.45,10.87-3.7,2.72-.94,5.37-2.04,7.85-3.53,1.15-.69,2.08-1.61,3-2.55.29-.3.37-.63.14-.97-.24-.36-.47-.75-.81-1.01-1.02-.78-2.15-1.31-3.45-1.56-4.86-.91-9.72-1.76-14.63-2.38-1.66-.21-3.3-.52-4.96-.78-.55-.09-1.09-.17-1.64-.37.43,0,.87-.04,1.3,0,2.64.32,5.28.67,7.93.99,1.46.17,2.93.36,4.4.42,2.91.11,5.82.16,8.73.17,1.27,0,2.54-.19,3.76-.61.89-.31,1.65-.8,2.26-1.51.7-.8.7-1.47-.07-2.2-.34-.33-.76-.58-1.16-.84-2.48-1.56-5.12-2.8-7.83-3.86-8.44-3.28-16.91-6.5-25.37-9.72-1.04-.4-2.12-.7-3.18-1.06-.17-.06-.3-.2-.46-.3l-.02.03c.83-.37,1.65-.16,2.45.1.99.32,1.96.69,2.93,1.05,5.04,1.89,10.06,3.84,15.12,5.66,4.28,1.54,8.59,2.98,13.02,4.02,1.46.34,2.99.47,4.49.6,1.1.1,2.13-.29,3.11-.76.87-.42.96-.93.41-1.73-.68-1-1.49-1.86-2.42-2.64-4.23-3.52-8.9-6.34-13.76-8.88-.97-.51-1.85-1.18-2.77-1.78,0,0-.02.02-.02.02.29-.26.58-.17.88-.02,1.03.52,2.08,1.01,3.09,1.56,4.07,2.21,8.19,4.3,12.56,5.85,1.08.38,2.22.62,3.34.88.72.16.89-.04.56-.76-.83-1.86-1.61-3.74-2.6-5.51-1.45-2.61-3.03-5.15-4.63-7.67-2.26-3.57-4.52-7.14-6.92-10.62-2.28-3.31-4.72-6.53-7.13-9.75-2.27-3.03-4.58-6.03-6.89-9.03-2.65-3.45-5.32-6.87-7.97-10.32-.4-.52-.73-1.11-1.09-1.67,0,0-.02.02-.02.02.24.19.52.36.72.59,2.68,3.12,5.39,6.22,8.02,9.39,2.42,2.92,4.7,5.96,7.15,8.85,2.27,2.68,4.69,5.23,7.04,7.84,1.95,2.17,3.85,4.38,5.86,6.49,3.36,3.53,6.78,6.99,10.68,9.94,1.3.99,2.55,2.05,3.9,2.98.81.56,1.72,1,2.64,1.36.77.3,1.04.02.94-.8-.22-1.8-.79-3.5-1.49-5.15-1.47-3.5-3.07-6.94-5-10.21-2.11-3.58-4.08-7.23-5.89-10.97-.4-.83-.86-1.62-1.26-2.45-.17-.35-.24-.74-.36-1.1l-.02-.03c1.49,1.88,2.6,4.01,3.84,6.05,1.82,3,3.46,6.1,5.5,8.96,1.55,2.17,2.91,4.47,4.39,6.69.98,1.47,2.21,2.74,3.65,3.75.51.36,1.13.59,1.74.74.93.22,1.3-.1,1.22-1.05-.1-1.19-.22-2.38-.48-3.54-1.39-6.18-3.13-12.27-4.92-18.35-.26-.88-.42-1.78-.62-2.67,0,0-.02.03-.02.03.27.57.57,1.12.8,1.71,1.12,2.9,2.18,5.83,3.34,8.72,1.15,2.86,2.73,5.5,4.43,8.07.54.82,1,1.69,1.62,2.52.24-.7.2-1.38.14-2.07-.16-1.66-.33-3.33-.53-4.99-.09-.79-.26-1.57-.35-2.36-.15-1.34-.26-2.69-.41-4.04-.12-1.03-.29-2.05-.4-3.08-.2-1.82-.43-3.65-.55-5.47-.13-1.91-.2-3.83-.18-5.74.04-3.95.2-7.89.24-11.84.02-1.39-.12-2.79-.21-4.18-.1-1.51-.22-3.02-.33-4.54-.19-2.42-.38-4.85-.57-7.27-.03-.36-.03-.72-.02-1.08.04-2.4-.14-4.78-.4-7.17-.02-.2-.02-.4-.02-.6.03-3.68.07-7.35.07-11.03,0-1.19-.11-2.39-.18-3.78-.68,1.21-.97,2.38-1.37,3.5-.6,1.68-.74,3.42-.75,5.18-.02,3.46-.65,6.82-1.92,10.04-.32.81-.79,1.56-1.25,2.31-.47.76-1.1.85-1.84.34-.56-.39-.89-.94-.99-1.59-.27-1.76-1.06-3.34-1.6-5.01-.57-1.78-1.07-3.6-1.47-5.42-.17-.75.02-1.58,0-2.37-.08-2.25.44-4.43.71-6.65.28-2.29.42-4.61.36-6.92-.03-1.27-.07-2.6-.6-3.87-.4-.96-.3-2.06.24-3,.42-.73.59-1.47.56-2.28-.09-2.67-.12-5.33-.54-7.99-.3-1.9.09-3.82.69-5.67.62-1.91,1.51-3.68,2.55-5.39,1.19-1.95,1.71-4.1,1.69-6.37,0-.27-.07-.56-.15-.82-.42-1.25-.95-1.46-2.03-.7-.84.6-1.66,1.26-2.37,2-1.7,1.77-3.75,2.97-6.02,3.79-1.81.65-3.2,1.75-4.22,3.36-.84,1.32-1.78,2.55-3.06,3.46-1.49,1.06-3.19,1.82-4.96,1.91-1.58.09-3.29-.06-4.71-1.02-.37-.25-.69-.65-.9-1.06-.12-.23-.07-.68.09-.89.48-.62,1-1.23,1.59-1.74,1.52-1.33,2.69-2.93,3.81-4.59,1.45-2.15,3.26-3.9,5.58-5.13.9-.48,1.76-1.12,2.5-1.82,2.02-1.9,3.63-4.12,4.89-6.6.63-1.24,1.35-2.44,2.03-3.66.91-1.64,1.82-3.27,2.72-4.91,1.83-3.32,4.24-6.15,7.16-8.55,1.09-.9,2.4-1.43,3.72-1.88,1.77-.6,3.58-1.09,5.39-1.6.61-.17,1.25-.26,1.88-.34,1.56-.21,3.03-.73,4.46-1.32.82-.34,1.49-1.04,2.22-1.58,1.4-1.04,2.48-2.34,3.4-3.81,1.43-2.28,3.36-3.98,5.81-5.15,1.29-.62,2.55-1.3,3.9-1.79.55-.2,1.02-.6,1.53-.92,3.08-1.98,5.65-4.54,8.18-7.15,1.22-1.26,2.36-2.61,3.64-3.79.98-.9,1.94-1.91,3.36-2.19.34-.07.67-.25.99-.42,2.13-1.12,4.12-.71,5.89.71.98.78,1.89,1.67,2.76,2.61,1.13,1.22,2.25,2.46,3.39,3.67,1.36,1.45,2.92,2.71,4.32,4.12,1.52,1.52,2.96,3.12,4.44,4.69.16.17.31.37.5.52,1.35,1.06,1.9,2.58,2.1,4.17.12.92-.02,1.95-.32,2.83-.53,1.57-1.45,2.93-2.96,3.78-.14.08-.3.19-.44.18-1.31-.11-2.11.84-3.07,1.45-.7.45-1.42.87-2.1,1.34-.79.54-1.55,1.12-2.31,1.7-1.39,1.07-2.78,2.14-4.15,3.22-.62.49-1.24.98-1.79,1.54-.38.39-.76.87-.89,1.38-.26.99-.46,2.03-.49,3.05-.05,1.67-.58,3.11-1.51,4.47-.69,1.02-1.4,2.05-1.96,3.14-.73,1.45-.99,2.96-.44,4.6.87,2.59,1.2,5.27.92,8-.08.83-.29,1.65-.35,2.48-.15,2.23-.12,4.47-.4,6.68-.23,1.81.04,3.55.22,5.32.28,2.69-.28,5.24-1.53,7.64-.72,1.37-1.41,2.76-2.1,4.15-.71,1.44-1.08,2.98-1.37,4.56-.39,2.08-.46,4.2-.79,6.27-.33,2.08-.86,4.13-1.45,6.16-.76,2.6-1.67,5.16-2.52,7.73-.53,1.59-1.08,3.17-1.6,4.76-1.13,3.53-2.25,7.07-3.36,10.61-.56,1.79-1.11,3.58-1.64,5.38-.45,1.52-.84,3.06-1.3,4.58-.32,1.07-.74,2.11-1.07,3.18-1.53,5.08-3.01,10.18-4.58,15.25-1.4,4.49-2.94,8.94-4.36,13.43-.72,2.28-1.31,4.59-1.95,6.89-.35,1.27-.71,2.53-1.01,3.81-.16.69-.21,1.41-.3,2.12-.04.3.14.48.42.43.5-.09,1.05-.14,1.47-.39,1.25-.78,2.51-1.57,3.64-2.5,1.69-1.4,3.26-2.93,4.91-4.39,2.05-1.81,3.64-4.02,5.38-6.1,1.82-2.17,3.68-4.31,5.59-6.4,1.91-2.09,3.91-4.1,5.88-6.13.08-.08.19-.14.29-.21.03.03.06.06.1.09-.02.08-.02.17-.07.23-2.21,2.77-4.29,5.64-6.76,8.2-2.57,2.67-5.09,5.4-7.56,8.17-1.73,1.94-3.12,4.15-4.27,6.48-.52,1.05-.69,2.28-1.02,3.42-.01.04-.01.08-.01.12-.15,2.78.97,4.19,3.9,2.98,1.24-.51,2.44-1.2,3.54-1.98,3.96-2.77,7.68-5.85,11.18-9.19,2.92-2.78,5.85-5.54,8.79-8.3.25-.24.58-.39.87-.59l.02.02c-.22.28-.4.58-.65.83-2.68,2.62-5.4,5.2-8.04,7.85-1.46,1.47-2.8,3.05-4.19,4.59-1.31,1.45-2.59,2.92-3.94,4.33-1.32,1.38-2.23,3-2.89,4.77-.42,1.14-.19,2.09.59,2.69.34.26.69.39,1.11.2.9-.41,1.87-.72,2.7-1.25,3.68-2.37,7.41-4.69,10.75-7.54.2-.17.48-.26.72-.38l-.02-.02Zm-2.17,10.57s.03.02.04.03c-.02,0-.04-.02-.07-.03l-.04.02.07-.03Zm.71-.48s.03.03.04.04c-.02-.01-.05-.02-.07-.03-.01,0-.03.02-.04.03.02-.01.04-.02.07-.03Zm-53.74-75.79s0-.08,0-.12c-.01-.19-.03-.38-.05-.56-.05.02-.15.05-.15.06.03.18.08.36.13.53,0,.03.06.04.1.06.08.89.14,1.79.23,2.68.02.23.03.52.17.67.2.21.5.37.78.43.11.02.31-.28.42-.46.12-.2.17-.44.29-.65.23-.39.26-.62-.21-.95-.66-.45-1.34-.94-1.72-1.7Zm6.1-22.69s-.03.03-.04.04c.02,0,.04,0,.06-.01-.22-.33-.43-.67-.66-.99-1.04-1.48-2.48-2.29-4.25-2.57-.29-.05-.56-.11-.7.23-.23.58-.59,1.03-1.14,1.33-.34.18-.2.46-.11.73.11.34.34.23.57.22.68-.02,1.37-.11,2.03.01,1.09.21,2.15.57,3.23.84.33.09.68.11,1.02.17Zm38.33,12.86c-.12.08-.3.14-.37.26-.72,1.38-1.49,2.73-2.12,4.15-.56,1.26-1.43,2.17-2.58,2.88-.84.52-1.65,1.1-2.46,1.67-.15.1-.23.32-.31.5-.32.77-.66,1.54-.91,2.34-.32,1.02-.52,2.08-.86,3.1-.71,2.07-1.49,4.11-2.23,6.17-.71,1.99-1.41,3.99-2.1,5.98-1.2,3.46-2.41,6.92-3.57,10.39-.69,2.08-1.3,4.19-1.94,6.28-.65,2.13-1.31,4.27-1.93,6.41-.72,2.48-1.42,4.98-2.12,7.47-.84,2.99-1.67,5.98-2.51,8.97-.59,2.11-1.21,4.21-1.81,6.31-.16.58-.31,1.15-.08,1.76.25.67.68.92,1.28.51.64-.45,1.34-.96,1.72-1.62,1.19-2.07,2.34-4.17,2.99-6.5.37-1.34.78-2.68,1.23-3.99.67-1.96,1.42-3.89,2.08-5.86,1.01-3.02,1.99-6.05,2.96-9.09.97-3.07,1.92-6.15,2.86-9.24.71-2.32,1.4-4.65,2.1-6.97.59-1.94,1.2-3.88,1.79-5.82.48-1.56.94-3.13,1.43-4.68.62-1.97,1.22-3.95,1.91-5.9,1.11-3.15,2.29-6.28,3.44-9.42.68-1.87,1.36-3.74,2.03-5.62.05-.14.03-.31.05-.47l.03.02Zm-34.9-61.3c.06.03.12.07.17.1-.23.66-.51,1.3-.69,1.97-.53,1.99-1.34,3.82-2.51,5.53-.6.88-1.18,1.84-1.51,2.84-.64,2.01-.99,4.09-1.12,6.21-.07,1.18-.27,2.38-.6,3.52-.27.94-.76,1.84-1.24,2.71-.97,1.75-1.76,3.58-2.33,5.49-.31,1.01-.43,2.12-.4,3.18.07,1.91.31,3.81.49,5.71.04.39-.03.88.18,1.14.21.25.71.26,1.07.39.48.19.95.43,1.44.59.79.25,1.58.55,2.4.65.63.08,1.16.25,1.65.6.74.54,1.52,1.02,2.02,1.84.21.34.47.27.55-.14.13-.66.14-1.35.3-2,.41-1.7.9-3.39,1.3-5.09.25-1.08.65-2.22.54-3.29-.16-1.58.26-3.01.64-4.45.36-1.33,1.94-1.62,2.83-.57.95,1.12,1.5,2.44,1.67,3.91.13,1.11.18,2.23.38,3.32.38,2.06.49,4.14.2,6.18-.27,1.88-.83,3.72-1.33,5.56-.68,2.48-1.1,4.96-.72,7.53.04.23.05.47.04.71,0,1.3.18,1.4,1.34.84.57-.28,1.16-.72,1.74-.74,1.26-.02,2.56-.2,3.78.34.29.13.6.22.9.33.37.13.49-.04.5-.4.04-1.48.05-2.95.16-4.43.1-1.39.23-2.78.48-4.15.27-1.48.78-2.93,1.05-4.41.45-2.54,1.52-4.86,2.47-7.23.11-.26.33-.48.55-.8.22,1.13.43,2.11.61,3.08.52,2.83,1.27,5.59,2.26,8.3.87,2.39,1.14,4.87.75,7.41-.13.85-.19,1.71-.27,2.55.17.05.21.07.25.06.12-.02.24-.02.34-.07.95-.38,1.83-.39,2.74.2.37.23.91.22,1.38.25.51.03,1.03-.03,1.55-.03.67,0,.68-.03.69-.77.02-1.03-.01-2.08.14-3.09.4-2.68.85-5.34,1.34-8,.18-.97.19-1.89-.13-2.83-.1-.3-.18-.63-.16-.94.07-1.87.15-3.74.26-5.6.01-.19.2-.36.38-.68.11.31.19.45.2.59.13,1.15.32,2.29.33,3.44.02,1.25.2,2.46.56,3.65.14.45.24.95.21,1.41-.13,1.75-.35,3.49-.48,5.24-.1,1.31-.11,2.63-.15,3.94-.01.38.17.49.53.34,1.32-.54,2.71-.7,4.11-.57.56.05.71-.21.78-.64.15-.87.25-1.74.43-2.6.31-1.52.53-3.07,1-4.54.67-2.09,1.66-4.05,2.75-5.96,1.18-2.06,1.79-4.24,1.1-6.65-.24-.83-.31-1.73-.32-2.6-.01-2.83.04-5.66.07-8.5,0-.48-.06-.97.01-1.44.33-2.01.51-4.02.34-6.05-.09-1.07-.14-2.15-.36-3.2-.45-2.08-.2-4.07.69-5.95.57-1.22,1.31-2.37,2.01-3.54.54-.9,1.01-1.8.99-2.9-.02-.99-.03-2,.13-2.98.14-.89.31-1.89.82-2.59,1.33-1.83,2.68-3.71,4.54-5.04,2.17-1.55,4.46-2.93,6.69-4.38.15-.1.28-.25.46-.42-.51-.37-.95-.72-1.42-1.01-2.38-1.45-4.67-3.02-6.59-5.07-.14-.15-.31-.26-.44-.41-.92-1.04-1.87-2.06-2.44-3.36-.16-.36-.35-.71-.55-1.05-.63-1.11-1.38-2.16-1.86-3.32-.72-1.76-1.3-3.6-1.86-5.42-.4-1.3-.55-2.66-.45-4.02.05-.7.18-1.4.31-2.31-.46.26-.79.39-1.04.61-.99.86-2,1.71-2.92,2.64-.98.99-1.87,2.08-2.79,3.13-2.72,3.1-5.71,5.9-8.96,8.44-.31.24-.64.48-.98.68-1.1.63-2.25,1.21-3.32,1.88-2.07,1.3-3.98,2.78-5.27,4.93-.35.58-.78,1.1-1.2,1.64-1.07,1.38-2.5,2.34-3.94,3.26-.7.44-1.48.88-2.27,1.01-2.41.4-4.7,1.23-7.01,1.96-1.44.45-2.78,1.19-4.19,1.74-1.61.63-3.04,1.54-4.32,2.69-.44.4-.83.85-1.23,1.29-.92.99-1.96,1.9-2.74,2.99-1.77,2.45-3.43,4.99-5.12,7.49-.17.25-.26.56-.33.73.62.46,1.17.84,1.68,1.25.09.07.15.35.09.42-.11.13-.35.27-.48.23-.57-.17-1.11-.42-1.68-.6-.15-.05-.39-.01-.5.08-.22.19-.14.39.08.59.28.26.52.57.74.89.06.1.02.34-.07.44-.07.08-.27.07-.41.05-.11-.01-.22-.08-.33-.13-.28-.12-.62-.42-.81-.34-.29.12-.48.5-.7.78-.12.16-.18.35-.3.51-2.25,3.04-4.76,5.79-8.2,7.55-.85.44-1.59,1.05-2.15,1.86.42.31.8.58,1.16.88.91.74.95,1.32.17,2.19-.16.18-.33.36-.53.49-.61.41-1.03.98-1.41,1.6-.27.44-.58.88-.97,1.2-.91.75-2.02,1.16-3.09.52-.88-.53-1.42-.03-2.06.29-.26.13-.27.38.04.53.22.1.43.22.66.27,2.21.44,4.4.68,6.53-.45.78-.41,1.62-.7,2.23-1.35.65-.7,1.22-1.47,1.81-2.22.45-.56.86-1.15,1.33-1.69,1.19-1.38,2.66-2.39,4.32-3.12,1.47-.65,2.82-1.52,4-2.6,1.01-.93,2.09-1.71,3.28-2.36.93-.5,1.92-.64,2.85-.06.55.34.73.1,1.03-.32.67-.94,1.34-1.89,2.13-2.73,1.01-1.06,1.71-2.28,2.32-3.6.48-1.05,1.05-2.06,1.61-3.07.12-.21.35-.37.53-.55Zm37.91,170.59c-.15-1.58-.2-3.18-.47-4.75-.77-4.48-2.57-8.52-5.37-12.1-.49-.62-1.04-1.2-1.56-1.8-1.4-1.64-2.97-3.1-4.74-4.34-2.12-1.49-4.32-2.82-6.75-3.77-2.01-.79-4.1-1.29-6.21-1.69-2.35-.45-4.77-.13-7.11-.71-.22-.05-.48.02-.71.05-2.02.27-4,.73-5.92,1.41-4.04,1.42-7.63,3.59-10.75,6.53-1.93,1.82-3.54,3.88-4.85,6.18-.95,1.67-1.73,3.41-2.29,5.25-.87,2.84-1.3,5.75-1.26,8.73.04,3.02.48,5.96,1.49,8.8,1.45,4.07,3.65,7.66,6.76,10.7,5.5,5.39,12.07,8.32,19.76,8.68,4.74.22,9.27-.65,13.61-2.6,3.93-1.76,7.25-4.31,10.03-7.56,2.8-3.29,4.78-7.04,5.62-11.32.37-1.88.69-3.76.73-5.69Zm-33.24-42.86s.08,0,.12-.01c.11-.69.25-1.37.34-2.06.31-2.44.6-4.89.93-7.33.12-.87.34-1.72.47-2.58.41-2.64.76-5.28,1.2-7.91.69-4.12,1.42-8.23,2.16-12.33.57-3.13,1.17-6.26,1.78-9.39.56-2.89,1.17-5.78,1.74-8.67.39-1.95.71-3.92,1.13-5.86.47-2.18,1.05-4.34,1.54-6.51.52-2.29,1.06-4.58,1.45-6.9.41-2.39,1.1-4.71,1.32-7.15.31-3.38-.37-6.57-1.01-9.8,0-.02-.06-.04-.16-.1-.09.27-.22.52-.26.78-.38,2.96-1.32,5.83-1.26,8.85,0,.12-.01.24-.03.36-.37,1.99-.2,3.97.17,5.93.25,1.34.05,2.64-.3,3.89-.64,2.3-1.46,4.55-2.17,6.83-.24.76-.36,1.55-.57,2.32-.35,1.31-.67,2.62-.57,4,.08,1.09-.11,2.14-.5,3.17-1.06,2.79-2.14,5.57-3.15,8.37-.46,1.27-1.2,2.32-2.11,3.29-.77.83-1.15.87-1.7-.15-.62-1.15-1.08-2.39-1.51-3.62-.22-.63-.3-1.33-.31-2-.02-1.68.05-3.36.06-5.03,0-.48,0-.96-.08-1.43-.39-2.54-.43-5.08-.21-7.63.15-1.67.31-3.34.44-5.01.21-2.63.08-5.24-.12-7.87-.19-2.41-.35-4.85-.08-7.26.15-1.34.44-2.67.8-3.97.63-2.3,1.51-4.52,1.24-6.99-.15-1.34-.02-2.71-.51-4.02-.41-1.09-.61-2.22-.54-3.39.01-.2,0-.41-.08-.59-.05-.12-.2-.29-.31-.29-.12,0-.27.14-.34.26-.1.17-.11.39-.2.56-.6,1.15-.46,2.46-.79,3.68-.51,1.87-.71,3.83-1.02,5.76-.21,1.34-.37,2.68-1.11,3.86-.22.35-.06.67.06,1.02.48,1.4.55,2.77-.03,4.19-.35.88-.68,1.83-.7,2.76-.05,1.79.1,3.58.22,5.37.12,1.86.29,3.73.44,5.59.15,1.78.32,3.56.48,5.34.2,2.18.45,4.36.58,6.55.14,2.31.13,4.63.23,6.94.11,2.63.26,5.25.42,7.88.12,2.03.31,4.05.44,6.08.24,3.57.47,7.15.67,10.72.13,2.29.18,4.59.27,6.89.07,1.64.13,3.27.22,4.91.05.95.12,1.91.2,2.86.11,1.31.24,2.61.36,3.92.09.98.17,1.96.25,2.94Zm58.8-150.95c-.32-1.2-.36-2.56-1.3-3.6-1.73-1.92-3.43-3.87-5.22-5.73-1.66-1.72-3.5-3.25-5.11-5.01-.9-.99-1.55-2.21-2.73-2.95-.09-.06-.13-.2-.19-.3-.57-1.1-1.69-1.66-2.5-2.54-.23-.25-.61-.37-.93-.54-.31-.16-.58-.12-.58.28.01.91-.08,1.87.14,2.73.49,1.88,1.15,3.72,1.76,5.58.09.26.21.52.35.75,1.03,1.75,2.09,3.48,3.1,5.24,1.01,1.76,2.53,3.05,4.05,4.33,2.06,1.72,4.5,2.83,6.86,4.07.85.45,1.71.1,2.01-.83.14-.45.19-.94.29-1.48Zm-54.52,143.75c.08-.17.2-.34.25-.52.46-1.61.93-3.21,1.37-4.83.64-2.35,1.19-4.72,1.91-7.04,1.56-5.06,3.17-10.1,4.83-15.13,1.02-3.1,2.13-6.18,3.26-9.24.76-2.06,1.64-4.07,2.43-6.11.31-.8.53-1.64.79-2.46-1.05,1.2-1.87,2.53-2.9,3.67-.92,1.03-1.61,2.17-2.3,3.34-.18.31-.37.62-.58.91-.14.19-.3.38-.49.52-.67.52-1.6.26-1.83-.54-.25-.88-.55-1.75-.45-2.69.04-.33-.04-.68-.06-1.02-2.43,13.67-4.31,27.4-6.23,41.15Zm-3.17-33.91c.76-.66.83-.69.4-1.59-.74-1.54-.64-3.13-.21-4.66.42-1.48.73-2.07,2.44-1.63.08.02.16.03.24.04.31.05.53-.04.65-.37.62-1.76,1.41-3.48,1.29-5.43-.05-.75-.07-1.54.08-2.27.37-1.79.84-3.55,1.29-5.32.23-.88.5-1.76.77-2.63.12-.39.07-.6-.33-.86-.95-.61-1.97-1.04-3.04-1.34-1.09-.31-2.2-.56-3.31-.84-.05.49-.16.97-.12,1.43.21,2.68-.43,5.28-.71,7.91-.25,2.38-.51,4.74-.22,7.14.1.87.18,1.75.16,2.62-.02,1.63-.15,3.26-.18,4.89-.02,1.03.12,2.04.8,2.9Zm-15.62-16.92c.19-1.56.34-3.06.55-4.55.12-.84.14-1.85,1.48-1.64.1.02.21-.1.32-.15.41-.19.82-.32,1.27-.12.37.16.51-.08.57-.39.04-.2.07-.4.06-.59-.17-2.05.49-3.93,1.2-5.8.48-1.26,1.03-2.51,1.05-3.9.02-1.37.04-1.39-1.31-1.66-1.44-.29-2.88-.59-4.33-.82-.95-.15-1.09-.02-1.07.89.06,2.33-.27,4.6-.69,6.88-.29,1.55-.27,3.16-.42,4.74-.23,2.4.47,4.65,1.09,6.91.02.06.11.1.23.2Zm26.93,11.47c.35-.48.71-.95,1.06-1.43.2-.27.32-.54.1-.87-.49-.73-.41-1.52-.18-2.3.24-.8.44-1.62.77-2.39.37-.86.98-1.56,1.83-2,.61-.32,1.16.02,1.68.31.33.18.54.02.68-.26.34-.67.76-1.32.98-2.04.45-1.4.81-2.83,1.17-4.26.52-2.06,1.28-4.02,2.24-5.91.21-.41.3-.87.44-1.29-1.02-.51-1.92-.17-2.77.08-1.16.35-2.25.49-3.3-.27-.31-.23-.62-.16-.7.29-.13.7-.3,1.4-.38,2.11-.16,1.46-.25,2.93-.4,4.4-.08.83-.13,1.68-.37,2.47-.69,2.29-1.5,4.54-2.2,6.83-.65,2.11-.77,4.29-.65,6.51Zm18.22-24.26c-1.13-.33-2.07-.64-3.03-.88-.77-.19-.88-.11-1.04.71-.2,1.07-.64,2.03-1.15,2.99-.55,1.04-1.12,2.09-1.41,3.34,1.25-.86,1.41-1,2.34-.76.7.18.96-.1,1.17-.63.54-1.4,1.4-2.59,2.38-3.7.23-.27.41-.58.74-1.06Zm-40.93,9.04s-.07-.01-.11-.02c0-.2,0-.4,0-.6-.02-.59-.37-.86-.91-.68-.43.15-.75.41-.8.93-.15,1.37-.37,2.74-.47,4.11-.03.48-.32,1.31.4,1.41.61.09.83-.73,1.15-1.21.04-.06.04-.15.06-.23.23-1.24.46-2.48.69-3.72Zm19.31-5.65c.16-.65.3-1.22.45-1.78.1-.38,0-.56-.42-.66-1.26-.31-2.53-.19-3.79-.11-.31.02-.61.28-1.04.48,1.63.71,3.11,1.34,4.79,2.07Zm-46.08-38.24c1-.05,1.74-.51,2.37-1.21.58-.65,1.21-1.25,1.83-1.87.17-.17.37-.31.53-.48.24-.27.32-.54-.02-.81-.3-.25-.57-.53-.95-.89-1.26,1.77-2.49,3.5-3.75,5.27Zm51.18,55.29c.11.21.22.4.33.6.16-.09.39-.15.48-.29.74-1.09,1.46-2.18,2.16-3.29.24-.39.07-.75-.37-.75-.32,0-.71.12-.95.32-1.04.88-1.23,2.18-1.65,3.41Zm-11.93,7.18c.72-.98,1.4-2.56,1.59-3.58.11-.58-.11-.81-.68-.75-.43.05-.63.35-.72.7-.2.77-.4,1.54-.48,2.32-.04.38.17.8.3,1.31Zm21.44-17.86c1.65-.47,2.28-1.61,2.82-2.81.07-.15,0-.35,0-.53-.22.02-.53-.04-.64.08-.87.91-1.53,1.96-2.18,3.26Zm-11.43,3.33c1.09-2.2,1.52-4.44,1.06-5.46-.37,1.89-.71,3.68-1.06,5.46Zm14.55-15.83c.91-.06,1.72-.09,2.52-.19.29-.04.56-.25.81-.41.07-.05.13-.22.1-.31-.02-.07-.18-.15-.27-.14-.59.07-1.2.09-1.75.28-.49.17-1.12.18-1.42.76Zm-22.85,67.72l.04-.08-.05-.02v.1Z"/>
  <path class="cls-1" d="m176.04,283.24c-1.13-.88-2.28-1.72-3.37-2.65-2.86-2.43-5.73-4.85-8.74-7.1-1.85-1.39-3.57-2.95-5.39-4.38-3.11-2.43-6.26-4.81-9.41-7.21-.38-.29-.79-.55-1.22-.76-.99-.47-1.67-.11-1.79.95-.05.42,0,.88.09,1.3.46,1.98,1.48,3.69,2.65,5.33,2.17,3.03,4.75,5.7,7.23,8.46.69.77,1.28,1.63,1.89,2.47.08.1.03.3.04.45,0,0,.03-.02.03-.02-1.22-1.2-2.41-2.43-3.67-3.6-2.86-2.66-5.73-5.32-8.66-7.91-.82-.73-1.85-1.23-2.78-1.84-.41-.27-.86-.29-1.22.02-.34.3-.48.74-.34,1.21.23.8.43,1.62.74,2.39.96,2.42,2.28,4.65,3.63,6.87,2.18,3.58,4.23,7.23,6.35,10.84,1.19,2.03,2.42,4.04,3.61,6.07.19.33.29.72.43,1.08,0,0,.02-.02.02-.02-.14-.12-.32-.22-.42-.38-1.96-3.06-3.91-6.12-5.85-9.18-.19-.3-.34-.63-.5-.94.04-.04.07-.07.11-.11.09-.03.15,0,.18.1l.02.04s-.02-.04-.03-.06l-.23-.5h0c-.09-.08-.17-.16-.26-.25l.03.03-.26-.52s.03.04.03.04c-.17-.25-.34-.5-.51-.76,0,0,.03.04.03.04-.14-.33-.23-.68-.42-.98-1.06-1.69-2.13-3.37-3.21-5.04-.12-.19-.32-.33-.48-.5l.03.04c-.25-.41-.5-.83-.75-1.24l.03.04c-.04-.15-.05-.32-.12-.46-.62-1.29-1.3-2.55-1.86-3.87-.37-.87-.61-1.8-.82-2.73-.16-.71.19-1.35.7-1.8.54-.48,1.2-.37,1.77.02.89.59,1.83,1.14,2.64,1.84,1.9,1.63,3.73,3.34,5.58,5.02.06.1.12.21.18.31.1.05.21.1.31.15.08.13.16.26.25.38.02,0,.03,0,.05,0-.02,0-.05-.02-.07-.03-.31.05-.36-.08-.22-.33-.11-.06-.22-.12-.34-.19l-.16-.28c-.04-.11-.04-.25-.11-.33-1.36-1.77-2.72-3.55-4.11-5.3-1.23-1.55-1.8-3.37-2.15-5.27-.14-.76.25-1.41.81-1.89.57-.48,1.24-.51,1.9-.12.28.16.58.27.84.46,2.08,1.48,4.14,2.98,6.22,4.47.47.34.95.68,1.43,1.02.07.07.15.14.22.21l.25.23c.08.08.16.15.24.23.08.13.16.26.24.38.02,0,.03,0,.05,0-.02,0-.05-.02-.07-.03-.08-.11-.15-.22-.23-.33-.08-.08-.17-.15-.25-.23-.08-.08-.16-.16-.24-.23-.08-.07-.15-.14-.23-.21-.42-.47-.82-.97-1.27-1.41-1.66-1.62-3.26-3.3-4.62-5.18-.84-1.15-1.37-2.44-1.25-3.91.03-.37.2-.77.42-1.07.61-.84,1.47-.91,2.37-.58,1.12.41,2.21.88,3.42,1.37-.98-1.1-1.8-2.2-2.8-3.1-1.65-1.5-.53-3.46.89-3.88.53-.16,1.1-.26,1.65-.23,2.37.16,4.74.37,7.12.56-.33-.14-.66-.25-1.01-.31-1.57-.27-3.16-.48-4.71-.81-1.01-.21-2.01-.51-2.96-.91-.89-.38-.96-.68-.82-1.61.06-.39.17-.78.2-1.18.04-.51.28-.79.77-.93,2.02-.59,4.01-1.37,6.07-1.77,3.36-.65,6.77-1.06,10.16-1.55,4.31-.62,8.65-.85,12.98-1.12,1.64-.1,3.27-.24,4.9-.36-2.2-.05-4.4-.1-6.59-.04-2.71.07-5.42.34-8.13.33-2.43,0-4.85-.33-7.28-.42-3.17-.12-6.26-.68-9.33-1.44-.93-.23-1.84-.54-2.73-.88-.87-.34-1.12-1.13-.69-1.94.13-.24.33-.45.52-.65,1.41-1.49,3.21-2.34,5.07-3.09,6.46-2.61,13.17-4.37,19.87-6.2,3.31-.9,6.63-1.76,9.94-2.67,1.14-.32,2.25-.76,3.37-1.14l-.03.02c.07-.06.13-.12.2-.19-.07-.03-.14-.06-.2-.09l.03.03c.96-.45,2-.6,3.04-.69.08.02.15.05.23.06.02,0,.05-.01.08-.02-.11,0-.22-.02-.33-.03.85-.23,1.69-.55,2.56-.68,3.81-.56,7.51-1.61,11.21-2.61,2.46-.66,4.93-1.27,7.39-1.89.38-.1.78-.15,1.17-.22l-.02-.02c-.65.58-1.47.8-2.28,1.01-1.93.5-3.88.9-5.81,1.39-3.59.92-7.18,1.86-10.75,2.84-4.88,1.34-9.75,2.73-14.64,4.07-3.73,1.02-7.49,1.96-11.2,3.02-2.87.82-5.71,1.77-8.55,2.7-1.74.57-3.48,1.16-5.17,1.87-1.24.52-2.41,1.23-3.58,1.91-.44.26-.82.65-1.14,1.05-.62.77-.42,1.41.53,1.74,2.38.84,4.83,1.42,7.32,1.72,3,.36,6.04.47,9.05.79,3.04.33,6.06-.14,9.09-.07.48.01.96-.03,1.44-.04,4.27-.06,8.54-.14,12.81-.15,1.79,0,3.58.17,5.37.36-2.46.21-4.93.41-7.39.62-2.5.21-5,.42-7.5.6-1.95.14-3.91.18-5.85.37-3.25.31-6.5.7-9.74,1.05-.71.08-1.42.18-2.14.25-2.73.24-5.24,1.34-7.89,1.92-1.33.29-2.63.66-3.82,1.31-.41.23-.82.49-1.16.82-.38.36-.34.7.18.91.99.41,2,.81,3.03,1.08,4.3,1.1,8.66,1.89,13.06,2.47,1.44.19,2.86.53,4.29.98-.9,0-1.8.04-2.69,0-2.31-.14-4.61-.29-6.91-.49-1.9-.17-3.8-.44-5.7-.61-1.43-.13-2.86-.2-4.29-.23-.42-.01-.87.14-1.27.3-.96.37-1.2,1.09-.73,2.01.07.14.17.27.26.4,1.39,1.99,3.12,3.61,5.22,4.85,2.3,1.35,4.6,2.73,6.83,4.19,3.61,2.36,7.16,4.8,10.73,7.21.21.14.35.38.53.58l.02-.02c-.35-.17-.72-.31-1.06-.5-2.87-1.65-5.75-3.29-8.61-4.97-2.2-1.29-4.35-2.68-6.57-3.95-2.25-1.28-4.55-2.49-6.86-3.66-.74-.37-1.58-.55-2.38-.77-.51-.14-1.1-.18-1.44.29-.34.45-.29.98-.11,1.57.74,2.47,2.38,4.32,4.08,6.12,2.25,2.38,4.49,4.78,6.85,7.05,1.49,1.44,3.2,2.64,4.78,3.98,1.85,1.58,3.68,3.19,5.51,4.8,1.5,1.31,3,2.63,4.5,3.95.23.21.42.47.64.7l-.08.09Zm-7.16-19.64s.03,0,.05,0c-.03,0-.05-.02-.08-.03-.02-.02-.03-.04-.05-.06.02-.01.05-.03.07-.04,0,.04,0,.09,0,.13Zm-8.18-5.12s-.04-.02-.06-.03c.02-.01.04-.02.06-.03,0,.02-.02.03-.03.05.22.06.44.12.66.18.12.08.23.16.35.24.07.12.15.24.22.36.21.03.42.05.62.08.04.37.28.53.62.56.53.56,1.11,1.04,1.9,1.2.46.34.93.67,1.39,1.01.2.05.4.09.6.14.17.21.34.41.51.62.2.07.4.14.61.2,0,.02.02.03.03.05,0-.02-.02-.05-.03-.07-.21-.06-.42-.13-.62-.19-.17-.19-.35-.39-.52-.58-.2-.04-.4-.09-.6-.13-.18-.72-.85-.77-1.38-1.02-.48-.64-1.17-.96-1.9-1.2-.21-.19-.41-.38-.62-.58-.2-.02-.41-.04-.61-.07-.08-.12-.15-.24-.23-.36l-.36-.27c-.2-.06-.4-.11-.6-.17Z"/>
  <path class="cls-1" d="m166.71,185.75c-1.11,1.21-2.15,2.5-3.56,3.4l-.06-.06c1.1-1.09,2.19-2.18,3.3-3.25.07-.07.22-.05.34-.07,0,0-.02-.02-.02-.02Z"/>
  <path class="cls-1" d="m176.12,283.15c.56.49,1.11.97,1.67,1.46,0,0-.07.07-.07.07-.56-.48-1.12-.96-1.68-1.44l.08-.09Z"/>
  <path class="cls-1" d="m154.75,179.06c-.39.49-.79.97-1.18,1.46-.03-.03-.06-.06-.1-.09.41-.47.82-.94,1.24-1.41l.04.04Z"/>
  <path class="cls-1" d="m121.95,345.78v-1.35c.06,0,.12,0,.18,0-.03.45-.06.9-.09,1.35-.03,0-.06,0-.09,0Z"/>
  <path class="cls-1" d="m167.48,208.84c-.48.32-.95.65-1.43.97,0,0-.07-.08-.07-.08.47-.32.95-.65,1.42-.97.03.03.06.06.08.09Z"/>
  <path class="cls-1" d="m58.66,234.57h1.3s0,.06,0,.1h-1.34s.03-.06.05-.1Z"/>
  <path class="cls-1" d="m148.04,215.3c-.31.41-.61.83-.92,1.24-.04-.03-.07-.07-.11-.1.16-.53.45-.95.98-1.19l.05.05Z"/>
  <path class="cls-1" d="m154.71,179.02l.9-1.24s-.02-.01-.02-.01c.13.69-.37.98-.84,1.28,0,0-.04-.04-.04-.04Z"/>
  <path class="cls-1" d="m168.34,184.01c.4-.31.81-.62,1.21-.94.03.03.06.06.09.09-.4.35-.62.97-1.32.82l.02.03Z"/>
  <path class="cls-1" d="m181.1,208.54c-.22.52-.69.64-1.18.74h0c.24-.51.72-.61,1.2-.72l-.02-.02Z"/>
  <path class="cls-1" d="m188.81,220.57c.4-.08.8-.16,1.19-.24,0,0-.02-.03-.02-.03-.4.08-.8.16-1.2.24l.02.02Z"/>
  <path class="cls-1" d="m185.69,221.29c.4-.08.8-.16,1.2-.23l-.02-.03c-.4.08-.8.16-1.2.24,0,0,.02.02.02.02Z"/>
  <path class="cls-1" d="m217.28,213.78c.41-.07.82-.14,1.23-.2l-.02-.02c-.35.46-.79.32-1.23.2l.02.02Z"/>
  <path class="cls-1" d="m218.51,213.58l.67-.25c.01.07.02.15.03.22h-.72s.02.02.02.02Z"/>
  <path class="cls-1" d="m183.76,221.77c.24-.39.61-.26.96-.24v-.02c-.33.08-.65.16-.97.24v.02Z"/>
  <path class="cls-1" d="m221.19,213.07c-.08-.01-.15-.03-.23-.04.08-.04.16-.09.25-.1.06,0,.13.05.2.08-.07.02-.15.04-.22.06Z"/>
  <path class="cls-1" d="m167.39,208.75c.21-.27.43-.52.83-.36l-.03-.03c-.24.16-.48.32-.72.48-.03-.03-.06-.06-.08-.09Z"/>
  <path class="cls-1" d="m83.29,300.73c-.07-.36.07-.61.4-.76,0,0,.05.05.05.05-.16.23-.32.47-.47.7,0,0,.02.01.02.01Z"/>
  <path class="cls-1" d="m49.41,215.78c.32.08.63.15.95.23,0,0,.02-.03.02-.03-.31-.08-.63-.16-.94-.24,0,0-.03.03-.03.03Z"/>
  <path class="cls-1" d="m190.97,220.09c.32-.08.64-.16.95-.24,0,0-.03-.03-.03-.03,0,.09,0,.18,0,.27l.03-.02c-.33,0-.66,0-.99,0l.03.03Z"/>
  <path class="cls-1" d="m156.71,295.85c-.52.05-.49-.33-.53-.67,0,0-.02.02-.02.02.18.22.35.45.53.67l.03-.02Z"/>
  <path class="cls-1" d="m190,220.33c.24-.41.63-.22.97-.24,0,0-.03-.03-.03-.03-.32.08-.64.16-.96.24l.02.03Z"/>
  <path class="cls-1" d="m187.85,220.81c.24-.37.61-.28.95-.24,0,0-.02-.02-.02-.02-.24.42-.62.24-.96.24l.03.03Z"/>
  <path class="cls-1" d="m149.4,284.69c-.16-.24-.32-.48-.48-.72.03-.03.06-.06.09-.09,0,0,.12,0,.12,0l.1.06-.03-.03.26.26s0,0,0,0c.02.14.04.28.07.43-.04.03-.08.07-.11.11Z"/>
  <path class="cls-1" d="m186.88,221.06c.24-.42.63-.23.97-.24,0,0-.03-.03-.03-.03-.32.08-.64.16-.96.24l.02.03Z"/>
  <path class="cls-1" d="m184.72,221.53c.32-.08.64-.16.97-.24,0,0-.02-.02-.02-.02-.24.41-.62.24-.96.24,0,0,.01.02.01.02Z"/>
  <path class="cls-1" d="m56.38,164.39c-.15-.24-.29-.47-.44-.71l-.03.02c.15.24.29.47.44.71,0,0,.02-.02.02-.02Z"/>
  <path class="cls-1" d="m220.26,213.23c-.06.03-.12.08-.19.08-.06,0-.13-.04-.19-.07.06-.03.12-.08.19-.08.06,0,.13.04.19.07Z"/>
  <path class="cls-1" d="m51.11,216.22c-.25-.08-.49-.15-.74-.23,0,0-.02.03-.02.03.25.08.49.15.74.23,0,0,.02-.03.02-.03Z"/>
  <path class="cls-1" d="m37.19,261.6c-.09.06-.18.12-.27.17-.02-.04-.03-.08-.05-.13.11,0,.23-.02.34-.03,0,0-.02-.02-.02-.02Z"/>
  <path class="cls-1" d="m176.78,268.57c.18.05.36.11.54.16l.02-.03c-.18-.05-.36-.1-.54-.15,0,0-.02.02-.02.02Z"/>
  <path class="cls-1" d="m178,269.32c-.18-.07-.36-.13-.54-.2v.02c.17.05.36.1.54.15v.03Z"/>
  <path class="cls-1" d="m61.45,270.05c-.18.06-.35.12-.53.18,0,0,.02.02.02.02.14-.1.28-.2.42-.3.03.03.06.07.09.1Z"/>
  <path class="cls-1" d="m60.38,270.41c.19-.05.37-.1.56-.15,0,0-.02-.02-.02-.02-.19.05-.38.1-.57.15,0,0,.02.02.02.02Z"/>
  <path class="cls-1" d="m171.6,206.03c-.21.01-.42.02-.62.03l.02.03c.2-.02.4-.03.6-.05v-.02Z"/>
  <path class="cls-1" d="m156.68,295.88c.07.17.13.34.2.51l.02-.02c-.07-.17-.13-.35-.2-.52l-.03.02Z"/>
  <path class="cls-1" d="m157.09,296.91c-.06-.18-.12-.36-.18-.53l-.02.02c.06.18.12.37.17.55l.03-.03Z"/>
  <path class="cls-1" d="m170.6,206.7c-.19.04-.38.07-.57.11l.03.03c.18-.04.37-.08.55-.11l-.02-.03Z"/>
  <path class="cls-1" d="m169.85,207.14c-.19.04-.38.08-.57.13,0,0,.02.03.02.03l.57-.13s-.03-.03-.03-.03Z"/>
  <path class="cls-1" d="m157.39,297.1l.17.54.03-.03-.17-.54-.03.03Z"/>
  <path class="cls-1" d="m158.07,298.33c-.05-.19-.09-.38-.14-.57l-.03.03c.05.19.09.38.14.57l.03-.03Z"/>
  <path class="cls-1" d="m183.27,207.37c-.16.07-.31.14-.47.22,0,0,.02.03.02.03.15-.08.3-.15.44-.23,0,0,0-.01,0-.01Z"/>
  <path class="cls-1" d="m158.59,299.02l.18.55.03.02c-.06-.2-.12-.4-.18-.61l-.03.03Z"/>
  <path class="cls-1" d="m182.8,207.59c-.19.05-.37.11-.56.16l.02.03c.19-.05.37-.11.56-.16l-.02-.03Z"/>
  <path class="cls-1" d="m168.92,207.89l-.55.15.03.03c.18-.05.36-.1.55-.14l-.03-.03Z"/>
  <path class="cls-1" d="m49.44,215.75c-.1-.02-.2-.04-.31-.06.03-.04.06-.07.1-.11.06.07.12.14.18.2l.03-.03Z"/>
  <polygon class="cls-1" points="48.5 215.41 48.4 215.43 48.42 215.36 48.5 215.41"/>
  <path class="cls-1" d="m182.1,208.12c-.17.07-.34.13-.5.2,0,0,.02.02.02.02.17-.06.34-.13.52-.19l-.03-.03Z"/>
  <path class="cls-1" d="m98.08,311.48c.03.24.03.46-.31.43l.03.02c.1-.14.21-.28.31-.43l-.02-.02Z"/>
  <path class="cls-1" d="m181.6,208.32c-.17.07-.33.15-.5.22l.02.02c.17-.07.33-.15.5-.22,0,0-.02-.02-.02-.02Z"/>
  <path class="cls-1" d="m97.77,311.91c.01.09.02.18.03.27-.02-.02-.07-.03-.07-.04.01-.07.04-.14.06-.21l-.03-.02Z"/>
  <path class="cls-1" d="m104.08,182.21c-.04-.06-.07-.12-.11-.18l.09.21.02-.03Z"/>
  <path class="cls-1" d="m222.14,212.79s-.06.03-.1.03c0,0-.02-.05-.03-.07.03,0,.06-.02.1-.02.01,0,.02.04.03.07Z"/>
  <path class="cls-1" d="m73.16,211.63c.16.1.33.2.49.29l.02-.02c-.17-.08-.34-.16-.51-.24v-.03Z"/>
  <path class="cls-1" d="m73.17,211.66s-.02-.04-.03-.06c0,.01.02.02.03.03v.03Z"/>
  <path class="cls-1" d="m171.76,180.93c.07-.06.15-.13.22-.19,0,0-.03-.02-.03-.02-.07.06-.15.12-.22.18,0,0,.02.03.02.03Z"/>
  <path class="cls-1" d="m171.5,181.15c.09-.07.18-.15.26-.22l-.02-.03c-.09.07-.18.15-.26.22,0,0,.02.03.02.03Z"/>
  <path class="cls-1" d="m173.95,179.02c.07-.09.14-.17.2-.26v.02c-.08.07-.15.14-.22.21l.02.02Z"/>
  <path class="cls-1" d="m171.99,180.74c.05-.12.1-.23.16-.35,0,0-.02,0-.02,0-.05.11-.11.21-.16.32l.03.02Z"/>
  <path class="cls-1" d="m168.22,208.39c.06-.11.12-.21.18-.32l-.03-.03c-.06.11-.12.21-.18.32l.03.03Z"/>
  <polygon class="cls-1" points="172.14 180.4 172.21 180.43 172.12 180.4 172.14 180.4"/>
  <path class="cls-1" d="m182.24,207.75c-.05.12-.09.25-.14.37,0,0,.03.03.03.03.04-.12.09-.25.13-.37,0,0-.02-.03-.02-.03Z"/>
  <path class="cls-1" d="m169.11,207.6c-.06.1-.13.19-.19.29l.03.03c.06-.1.13-.2.19-.3l-.02-.02Z"/>
  <path class="cls-1" d="m169.28,207.27c-.06.11-.11.22-.17.33,0,0,.02.02.02.02.06-.11.11-.22.17-.33l-.02-.03Z"/>
  <polygon class="cls-1" points="183.27 207.39 183.3 207.34 183.27 207.37 183.27 207.39"/>
  <path class="cls-1" d="m155.88,177.57c-.1.07-.2.14-.3.21h.02c.1-.07.2-.15.3-.23l-.02.03Z"/>
  <path class="cls-1" d="m169.88,207.17c.06-.11.12-.21.19-.32l-.03-.03c-.06.11-.12.22-.18.33l.03.03Z"/>
  <path class="cls-1" d="m170.61,206.73c.06-.1.12-.2.18-.3l-.03-.03c-.06.1-.12.2-.17.3l.02.03Z"/>
  <path class="cls-1" d="m170.8,206.43c.07-.11.14-.22.21-.33l-.02-.03c-.07.11-.14.23-.21.34l.03.03Z"/>
  <path class="cls-1" d="m158.34,206.17c.08-.08.16-.16.23-.24,0,0-.02-.02-.02-.02-.08.08-.16.16-.24.23,0,0,.02.02.02.02Z"/>
  <path class="cls-1" d="m171.61,206.05c.02-.15.04-.3.05-.46h-.02c-.01.15-.02.3-.04.44v.02Z"/>
  <path class="cls-1" d="m89.79,181.64s-.04-.03-.06-.04c.01,0,.02,0,.03.01l.02.03Z"/>
  <path class="cls-1" d="m155.91,177.54s.02.03.03.04c-.02,0-.04,0-.06-.01l.02-.03Z"/>
  <path class="cls-1" d="m158.57,205.94c.05-.11.1-.23.15-.34l-.02.02c-.05.1-.1.2-.15.3,0,0,.02.02.02.02Z"/>
  <polygon class="cls-1" points="171.66 205.59 171.72 205.62 171.64 205.61 171.66 205.59"/>
  <polygon class="cls-1" points="172.97 180.05 172.94 180.09 173 180.08 172.97 180.05"/>
  <polygon class="cls-1" points="158.72 205.6 158.77 205.63 158.7 205.62 158.72 205.6"/>
  <path class="cls-1" d="m171.03,181.67c.06-.09.13-.17.19-.26l-.03-.02c-.06.09-.12.17-.19.26,0,0,.03.02.03.02Z"/>
  <path class="cls-1" d="m172.45,205.2s-.02.06-.04.09c.02-.02.04-.04.06-.07l-.02-.02Z"/>
  <polygon class="cls-1" points="177 175.94 176.98 175.99 177.03 175.96 177 175.94"/>
  <path class="cls-1" d="m177.03,175.96c.1-.08.2-.16.31-.24,0,0,.03-.03.03-.03-.12.08-.23.17-.35.25,0,0,.02.02.02.02Z"/>
  <path class="cls-1" d="m177.33,175.72s.01-.05.02-.07l-.06.03s.05,0,.07.01l-.03.03Z"/>
  <path class="cls-1" d="m173,180.08c.08-.08.16-.16.24-.24,0,0-.02-.03-.02-.03-.08.08-.16.16-.24.24,0,0,.02.03.02.03Z"/>
  <path class="cls-1" d="m56.86,164.87c-.08-.08-.16-.16-.24-.24,0,0-.02.02-.02.02.08.08.16.16.24.24,0,0,.02-.02.02-.02Z"/>
  <path class="cls-1" d="m56.62,164.63c-.08-.08-.16-.16-.24-.24,0,0-.02.02-.02.02.08.08.16.16.24.24,0,0,.02-.02.02-.02Z"/>
  <polygon class="cls-1" points="172.47 205.23 172.5 205.18 172.45 205.2 172.47 205.23"/>
  <path class="cls-1" d="m55.67,163.38c.08.11.17.21.25.32l.03-.02c-.08-.09-.17-.18-.25-.27l-.03-.03Z"/>
  <path class="cls-1" d="m55.7,163.41s-.04-.02-.05-.03c0,0,.02,0,.03,0,0,0,.03.03.03.03Z"/>
  <polygon class="cls-1" points="173.23 204.79 173.17 204.83 173.24 204.82 173.23 204.79"/>
  <path class="cls-1" d="m173.39,204.46c-.05.11-.11.22-.16.33l.02.04c.06-.13.11-.26.17-.39l-.03.03Z"/>
  <path class="cls-1" d="m173.42,204.43s.03.03.04.04c0-.02,0-.04-.01-.06-.02.01-.04.03-.05.04l.03-.03Z"/>
  <path class="cls-1" d="m174.2,204s-.05-.02-.07-.03c.01.01.03.02.04.04h.03Z"/>
  <path class="cls-1" d="m174.18,204.01s.05-.02.07-.03c-.01,0-.03.02-.04.03,0,0-.03,0-.03,0Z"/>
  <path class="cls-1" d="m173.23,179.84c.08-.08.16-.16.24-.24,0,0-.02-.03-.02-.03-.08.08-.16.16-.24.24,0,0,.02.03.02.03Z"/>
  <path class="cls-1" d="m162.15,190.07c.08-.08.16-.16.24-.24,0,0,.02.02.02.02-.08.08-.16.16-.24.24,0,0-.02-.02-.02-.02Z"/>
  <path class="cls-1" d="m162.66,189.61c-.08.08-.16.16-.24.24,0,0-.02-.02-.02-.02.08-.08.16-.16.24-.24l.03.03Z"/>
  <path class="cls-1" d="m177.32,268.73c.04.14.08.28.13.42v-.02c-.03-.14-.07-.28-.11-.42l-.02.03Z"/>
  <path class="cls-1" d="m162.63,189.59c.08-.08.16-.16.24-.24,0,0,.03.03.03.03-.08.08-.16.16-.24.24,0,0-.03-.03-.03-.03Z"/>
  <path class="cls-1" d="m178,269.3s.02.04.03.06c0-.01-.02-.03-.03-.04v-.03Z"/>
  <path class="cls-1" d="m163.16,189.15c-.09.07-.17.15-.26.22,0,0-.03-.03-.03-.03.08-.08.15-.17.23-.25,0,0,.06.06.06.06Z"/>
  <path class="cls-1" d="m174.16,178.77s.04,0,.06.01c-.01-.02-.03-.04-.04-.05,0,.02-.01.04-.02.07,0,0,0-.02,0-.02Z"/>
  <path class="cls-1" d="m60.36,270.38l.03.19s-.03-.04-.03-.05c0-.04.01-.08.02-.12l-.02-.02Z"/>
  <path class="cls-1" d="m173.48,179.6c.07-.08.15-.15.22-.23v-.03c-.08.08-.16.15-.24.23,0,0,.02.03.02.03Z"/>
  <path class="cls-1" d="m158.02,280.1c.06.1.12.2.18.3l.02.02c-.06-.11-.12-.22-.18-.33l-.03.02Z"/>
  <polygon class="cls-1" points="158.21 280.4 158.29 280.38 158.23 280.41 158.21 280.4"/>
  <path class="cls-1" d="m166.95,185.51c-.08.08-.16.16-.24.24,0,0,.02.02.02.02.08-.08.16-.16.24-.24,0,0-.02-.02-.02-.02Z"/>
  <path class="cls-1" d="m167.21,185.29c-.09.07-.17.15-.26.22,0,0,.02.02.02.02.07-.09.15-.17.22-.26,0,0,.02.02.02.02Z"/>
  <path class="cls-1" d="m167.45,185.05c-.08.08-.16.16-.24.24,0,0-.02-.02-.02-.02.08-.08.16-.16.24-.24,0,0,.02.02.02.02Z"/>
  <path class="cls-1" d="m167.69,184.81c-.08.08-.16.16-.24.24,0,0-.02-.02-.02-.02.08-.08.16-.16.24-.24,0,0,.01.01.01.01Z"/>
  <path class="cls-1" d="m177.99,284.87c-.09-.06-.18-.13-.27-.19,0,0,.07-.07.07-.07.06.09.12.18.18.28,0,0,.02-.02.02-.02Z"/>
  <path class="cls-1" d="m178.18,285.21c-.06-.11-.12-.23-.18-.34l-.02.02c.06.1.12.2.18.3l.03.02Z"/>
  <path class="cls-1" d="m178.15,285.18s.05.01.08.02c-.02,0-.03,0-.05,0,0,0-.03-.02-.03-.02Z"/>
  <path class="cls-1" d="m167.92,184.56c-.08.08-.15.17-.23.25,0,0-.01-.01-.01-.01.08-.08.17-.15.25-.23,0,0,0,0,0,0Z"/>
  <path class="cls-1" d="m168.15,184.31c-.08.08-.15.16-.23.24,0,0,0,0,0,0,.08-.08.16-.15.24-.23l-.02-.02Z"/>
  <path class="cls-1" d="m168.31,183.98c-.06.11-.11.22-.17.33l.02.02c.06-.11.11-.22.17-.33l-.02-.03Z"/>
  <path class="cls-1" d="m171.22,181.41c.09-.09.19-.17.28-.26l-.02-.03c-.09.09-.19.18-.28.27l.03.02Z"/>
  <path class="cls-1" d="m157.41,297.08c-.11-.05-.21-.11-.32-.16,0,0-.03.03-.03.03.11.05.22.11.33.16,0,0,.03-.03.03-.03Z"/>
  <path class="cls-1" d="m169.85,182.89c-.07.09-.14.18-.21.27-.03-.03-.06-.06-.09-.09.09-.07.19-.14.28-.2l.02.02Z"/>
  <path class="cls-1" d="m157.93,297.76c-.12-.05-.23-.1-.35-.15l-.03.03c.11.05.23.1.34.15l.03-.03Z"/>
  <path class="cls-1" d="m169.83,182.87c.08-.08.16-.16.25-.23,0,0,.01.01.01.01-.08.08-.16.16-.24.24,0,0-.02-.02-.02-.02Z"/>
  <path class="cls-1" d="m158.04,298.36c.06.01.12.02.19.03-.05-.02-.11-.04-.16-.06l-.03.03Z"/>
  <path class="cls-1" d="m158.62,299c-.06-.01-.12-.03-.17-.04.02,0,.06-.02.07-.01.03.02.05.06.07.09,0,0,.03-.03.03-.03Z"/>
  <path class="cls-1" d="m170.31,182.39c-.07.08-.15.17-.22.25,0,0-.01-.01-.01-.01.08-.07.17-.15.26-.22,0,0-.02-.02-.02-.02Z"/>
  <path class="cls-1" d="m158.77,299.58s.05,0,.07.01c-.01,0-.03,0-.04.01,0,0-.03-.02-.03-.02Z"/>
  <path class="cls-1" d="m170.55,182.15c-.08.08-.16.16-.24.24,0,0,.02.02.02.02.08-.08.16-.16.24-.24,0,0-.01-.01-.01-.01Z"/>
  <polygon class="cls-1" points="83.27 300.72 83.24 300.74 83.29 300.73 83.27 300.72"/>
  <path class="cls-1" d="m49.42,305.48c.07-.09.13-.18.2-.26,0,0-.02-.04-.02-.04-.06.09-.13.18-.19.27,0,0,.02.03.02.03Z"/>
  <path class="cls-1" d="m49.4,305.45c-.09.1-.18.19-.27.29,0,0-.03.03-.03.03.11-.1.21-.19.32-.29,0,0-.02-.03-.02-.03Z"/>
  <path class="cls-1" d="m49.13,305.74s-.02.02-.03.03c0,0,.03-.03.03-.03Z"/>
  <path class="cls-1" d="m170.82,181.94c-.09.07-.18.14-.26.22,0,0,.01.01.01.01.07-.09.14-.18.22-.26,0,0,.03.03.03.03Z"/>
  <path class="cls-1" d="m171,181.65c-.06.1-.13.19-.19.29,0,0-.03-.03-.03-.03.08-.08.17-.15.25-.23,0,0-.03-.02-.03-.02Z"/>
  <path class="cls-1" d="m173.7,179.37c.09-.12.17-.23.26-.35,0,0-.02-.02-.02-.02-.08.11-.16.23-.24.34,0,0,0,.03,0,.03Z"/>
  <path class="cls-2" d="m112.65,69.31c-.18.18-.41.33-.53.55-.56,1.01-1.13,2.02-1.61,3.07-.6,1.31-1.31,2.53-2.32,3.6-.79.83-1.46,1.79-2.13,2.73-.3.42-.48.66-1.03.32-.94-.58-1.93-.45-2.85.06-1.19.65-2.28,1.43-3.28,2.36-1.17,1.08-2.53,1.95-4,2.6-1.66.74-3.13,1.75-4.32,3.12-.47.54-.88,1.13-1.33,1.69-.6.75-1.17,1.52-1.81,2.22-.6.65-1.45.94-2.23,1.35-2.13,1.13-4.32.89-6.53.45-.23-.05-.45-.17-.66-.27-.31-.15-.3-.4-.04-.53.64-.32,1.18-.81,2.06-.29,1.07.64,2.17.23,3.09-.52.39-.32.71-.76.97-1.2.38-.62.8-1.19,1.41-1.6.2-.13.37-.31.53-.49.78-.86.74-1.45-.17-2.19-.36-.29-.75-.56-1.16-.88.56-.81,1.3-1.42,2.15-1.86,3.44-1.76,5.95-4.5,8.2-7.55.12-.16.18-.36.3-.51.22-.28.41-.65.7-.78.19-.08.54.21.81.34.11.05.22.12.33.13.14.01.34.03.41-.05.09-.1.13-.34.07-.44-.21-.32-.46-.62-.74-.89-.21-.2-.3-.4-.08-.59.11-.1.35-.13.5-.08.56.18,1.11.43,1.68.6.13.04.37-.1.48-.23.06-.07,0-.35-.09-.42-.52-.41-1.06-.79-1.68-1.25.07-.17.16-.47.33-.73,1.69-2.51,3.35-5.04,5.12-7.49.79-1.09,1.82-2,2.74-2.99.41-.44.79-.89,1.23-1.29,1.28-1.15,2.71-2.06,4.32-2.69,1.41-.55,2.75-1.29,4.19-1.74,2.31-.72,4.6-1.55,7.01-1.96.79-.13,1.57-.57,2.27-1.01,1.45-.91,2.88-1.88,3.94-3.26.41-.54.85-1.06,1.2-1.64,1.29-2.15,3.19-3.64,5.27-4.93,1.08-.67,2.22-1.25,3.32-1.88.34-.2.67-.43.98-.68,3.24-2.54,6.24-5.35,8.96-8.44.92-1.05,1.81-2.13,2.79-3.13.92-.93,1.93-1.78,2.92-2.64.25-.22.58-.35,1.04-.61-.12.91-.25,1.61-.31,2.31-.1,1.37.05,2.72.45,4.02.56,1.83,1.13,3.66,1.86,5.42.48,1.17,1.23,2.22,1.86,3.32.19.34.39.69.55,1.05.56,1.3,1.52,2.31,2.44,3.36.13.15.3.26.44.41,1.92,2.05,4.21,3.62,6.59,5.07.47.29.9.64,1.42,1.01-.19.17-.31.32-.46.42-2.23,1.46-4.52,2.84-6.69,4.38-1.86,1.33-3.21,3.21-4.54,5.04-.51.7-.68,1.7-.82,2.59-.16.97-.14,1.98-.13,2.98.02,1.1-.45,2-.99,2.9-.69,1.17-1.43,2.31-2.01,3.54-.88,1.89-1.13,3.88-.69,5.95.22,1.04.27,2.13.36,3.2.17,2.03-.01,4.04-.34,6.05-.08.47,0,.96-.01,1.44-.03,2.83-.08,5.66-.07,8.5,0,.87.08,1.77.32,2.6.69,2.41.08,4.58-1.1,6.65-1.09,1.91-2.08,3.87-2.75,5.96-.47,1.47-.7,3.02-1,4.54-.17.86-.28,1.73-.43,2.6-.07.43-.22.68-.78.64-1.41-.12-2.79.03-4.11.57-.36.15-.54.04-.53-.34.04-1.32.05-2.63.15-3.94.13-1.75.35-3.49.48-5.24.03-.46-.07-.96-.21-1.41-.37-1.19-.55-2.4-.56-3.65-.02-1.15-.21-2.3-.33-3.44-.02-.15-.09-.28-.2-.59-.18.32-.37.49-.38.68-.11,1.87-.19,3.74-.26,5.6-.01.31.06.64.16.94.32.94.31,1.86.13,2.83-.49,2.66-.94,5.33-1.34,8-.15,1.02-.12,2.06-.14,3.09-.01.74-.03.77-.69.77-.52,0-1.03.06-1.55.03-.47-.03-1.01-.02-1.38-.25-.91-.58-1.79-.57-2.74-.2-.11.04-.23.05-.34.07-.04,0-.08-.02-.25-.06.09-.83.14-1.7.27-2.55.39-2.54.12-5.02-.75-7.41-.99-2.71-1.74-5.47-2.26-8.3-.18-.98-.38-1.95-.61-3.08-.22.31-.44.53-.55.8-.95,2.37-2.02,4.69-2.47,7.23-.27,1.49-.77,2.93-1.05,4.41-.25,1.37-.38,2.76-.48,4.15-.11,1.47-.12,2.95-.16,4.43-.01.36-.13.53-.5.4-.3-.1-.61-.2-.9-.33-1.22-.54-2.52-.37-3.78-.34-.59.01-1.17.46-1.74.74-1.17.56-1.35.46-1.34-.84,0-.24,0-.48-.04-.71-.39-2.57.04-5.06.72-7.53.5-1.84,1.06-3.68,1.33-5.56.3-2.05.18-4.13-.2-6.18-.2-1.09-.25-2.21-.38-3.32-.17-1.47-.72-2.79-1.67-3.91-.89-1.05-2.47-.76-2.83.57-.39,1.44-.81,2.87-.64,4.45.11,1.07-.29,2.2-.54,3.29-.4,1.7-.89,3.39-1.3,5.09-.16.65-.17,1.34-.3,2-.08.41-.34.48-.55.14-.5-.81-1.28-1.3-2.02-1.84-.49-.36-1.03-.53-1.65-.6-.81-.1-1.61-.4-2.4-.65-.49-.16-.95-.4-1.44-.59-.36-.14-.86-.14-1.07-.39-.21-.26-.14-.75-.18-1.14-.18-1.9-.42-3.8-.49-5.71-.04-1.06.09-2.17.4-3.18.58-1.9,1.36-3.74,2.33-5.49.48-.87.97-1.76,1.24-2.71.33-1.14.53-2.33.6-3.52.13-2.12.47-4.2,1.12-6.21.32-1.01.9-1.96,1.51-2.84,1.16-1.7,1.98-3.54,2.51-5.53.18-.67.46-1.31.69-1.97-.06-.03-.12-.07-.17-.1Zm7.03,22.53c.08.14.17.35.3.52.03.04.25.01.31-.05.66-.76,1.34-1.52,1.05-2.64-.2-.79-.12-1.54.34-2.17,1.14-1.59,1.26-3.48,1.71-5.28.02-.09-.04-.25-.11-.3-.07-.04-.27-.01-.31.05-.31.54-.67,1.07-.86,1.65-.34,1.01-.48,2.13-1.23,2.94-.74.81-.95,1.72-.81,2.75.09.65.02,1.26-.2,1.87-.07.19-.11.38-.19.66Zm26.86-4.29c-.58,1.49-.45,2.97-.43,4.44,0,.43.07.94.31,1.25.44.56.4,1.09.23,1.68-.12.42-.24.84-.37,1.26-.23.72-.52,1.44-.33,2.22.04.17.17.41.31.44.13.03.38-.11.48-.25.6-.87,1.02-1.82,1.09-2.88.08-1.15.19-2.32-.83-3.23-.24-.22-.27-.73-.29-1.12-.05-.84,0-1.68-.04-2.52-.01-.43-.09-.86-.14-1.29Zm-11.49-1.26c-.53,1.14-1.06,2.28-1.58,3.43-.08.18-.15.37-.18.57-.06.35-.18.73-.1,1.05.33,1.41.33,2.76-.47,4.02-.02.03-.04.08-.04.11.02.15.02.42.08.43.17.04.38.02.53-.06.16-.09.31-.26.41-.43.78-1.29,1.36-2.65.86-4.18-.29-.89-.22-1.68.14-2.53.32-.75.64-1.54.35-2.41Z"/>
  <path class="cls-2" d="m150.56,239.89c-.03,1.93-.36,3.82-.73,5.69-.84,4.29-2.82,8.03-5.62,11.32-2.77,3.25-6.1,5.8-10.03,7.56-4.34,1.95-8.88,2.83-13.61,2.6-7.69-.36-14.26-3.3-19.76-8.68-3.11-3.04-5.31-6.63-6.76-10.7-1.01-2.84-1.45-5.78-1.49-8.8-.04-2.98.39-5.89,1.26-8.73.56-1.84,1.34-3.58,2.29-5.25,1.31-2.3,2.92-4.37,4.85-6.18,3.12-2.94,6.71-5.11,10.75-6.53,1.93-.68,3.9-1.14,5.92-1.41.24-.03.49-.11.71-.05,2.34.58,4.76.27,7.11.71,2.11.4,4.19.9,6.21,1.69,2.43.95,4.63,2.28,6.75,3.77,1.77,1.24,3.33,2.7,4.74,4.34.52.6,1.07,1.18,1.56,1.8,2.81,3.58,4.6,7.63,5.37,12.1.27,1.56.32,3.16.47,4.75Zm-44.45-7.06s.02,0,.02,0c.08-.29.09-.64.27-.86,2.91-3.51,6.29-6.37,10.73-7.77.39-.12.75-.36,1.12-.54.22-.02.45-.03.67-.05-.02-.06-.04-.13-.06-.19l-.59.26c-.69.15-1.41.23-2.07.46-3.93,1.34-7.39,3.45-10.09,6.62-1.02,1.2-1.76,2.65-2.56,4.03-.31.53-.03.84.56.72.19-.04.38-.13.54-.23.73-.49,1.52-.9,2.15-1.5,1.96-1.86,4.32-3.14,6.54-4.62.35-.24.8-.36,1.22-.47,4.7-1.17,9.33-.9,13.9.69,1.89.66,3.41,1.88,4.96,3.08.38.3.78.57,1.17.85.06-.07.11-.13.17-.2-.25-.29-.46-.63-.75-.87-1.33-1.14-2.65-2.3-4.04-3.36-1.44-1.09-3.03-1.92-4.86-2.2-1.22-.18-2.43-.52-3.66-.59-1.7-.1-3.42-.23-5.12.18-2,.49-3.85,1.32-5.58,2.42-.5.32-.95.72-1.4,1.12-.8.71-1.58,1.45-2.37,2.18-.29.27-.57.55-.86.82Zm15.22,12.42c2.48.15,4.72-.19,6.94-.7,1.51-.35,3.02-.69,4.5-1.16,1.66-.53,3.3-1.17,4.92-1.82.8-.32.85-.9.23-1.48-.12-.11-.26-.18-.39-.27-1.26-.85-2.49-1.73-3.77-2.54-3.56-2.24-7.24-4.18-11.5-4.76-2.07-.28-4.13-.23-6.19.05-2.85.39-5.33,1.61-7.51,3.42-.87.72-2.04,1.16-2.49,2.34-.04.09-.24.16-.37.17-.89.08-.95.17-.53.94.11.2.25.4.41.57,1.92,2.06,4.46,3.04,7.02,3.93,2.88,1,5.87,1.49,8.74,1.31Zm10.59,1.47c-.93-.06-1.68.3-2.43.62-2.72,1.15-5.53,1.82-8.49,1.57-2.05-.17-4.14-.09-6.08-1-1.8-.85-3.66-1.55-5.18-2.92-1.03-.93-2.18-1.73-3.28-2.58-.25-.19-.51-.46-.84-.19-.33.27-.27.65-.11.99.13.28.3.57.51.79.35.38.74.72,1.14,1.06,2.51,2.13,5.37,3.57,8.59,4.22,1.44.29,2.91.43,4.37.62,1.86.24,3.7.3,5.56-.19,1.83-.48,3.58-1.1,5.16-2.13.38-.25.72-.57,1.07-.86Zm-4.06,5.33c-.03-.11-.07-.22-.1-.33-1.02.09-2.04.17-3.05.28-1.47.15-2.94.31-4.39-.16-.29-.1-.63-.09-.95-.08-.17,0-.34.12-.51.18.11.14.2.34.35.41.28.14.6.21.91.29,2.52.64,4.98.2,7.43-.43.11-.03.2-.11.31-.17Z"/>
  <path class="cls-2" d="m184.71,221.51c.34,0,.72.17.96-.24.4-.08.8-.16,1.2-.24.32-.08.64-.16.96-.24.34,0,.72.18.96-.24.4-.08.8-.16,1.2-.24.32-.08.64-.16.96-.24.33,0,.66,0,.99,0-1.12.38-2.23.82-3.37,1.14-3.31.92-6.63,1.77-9.94,2.67-6.7,1.83-13.42,3.59-19.87,6.2-1.86.75-3.66,1.6-5.07,3.09-.19.2-.39.41-.52.65-.43.82-.18,1.61.69,1.94.89.35,1.8.65,2.73.88,3.06.76,6.16,1.32,9.33,1.44,2.43.09,4.85.41,7.28.42,2.71,0,5.42-.26,8.13-.33,2.19-.06,4.39-.01,6.59.04-1.63.12-3.27.26-4.9.36-4.34.27-8.68.49-12.98,1.12-3.39.49-6.8.9-10.16,1.55-2.06.4-4.05,1.17-6.07,1.77-.48.14-.73.42-.77.93-.03.4-.14.78-.2,1.18-.15.94-.07,1.24.82,1.61.95.4,1.95.7,2.96.91,1.56.33,3.14.54,4.71.81.34.06.68.17,1.01.31-2.37-.19-4.74-.41-7.12-.56-.54-.04-1.12.07-1.65.23-1.42.42-2.54,2.38-.89,3.88,1,.9,1.82,2,2.8,3.1-1.21-.49-2.3-.96-3.42-1.37-.9-.33-1.76-.26-2.37.58-.22.3-.39.7-.42,1.07-.11,1.46.41,2.75,1.25,3.91,1.37,1.88,2.97,3.55,4.62,5.18.45.44.85.94,1.27,1.41l.02-.02c-.48-.34-.95-.67-1.43-1.02-2.07-1.49-4.14-2.99-6.22-4.47-.26-.18-.57-.3-.84-.46-.66-.39-1.33-.36-1.9.12-.57.47-.95,1.13-.81,1.89.35,1.9.92,3.71,2.15,5.27,1.39,1.75,2.74,3.53,4.11,5.3.07.09.08.22.11.33v-.02c-1.85-1.68-3.68-3.39-5.58-5.02-.81-.7-1.74-1.25-2.64-1.84-.58-.38-1.23-.5-1.77-.02-.51.45-.86,1.09-.7,1.8.21.92.45,1.86.82,2.73.56,1.31,1.24,2.58,1.86,3.87.07.14.08.3.12.46-.27-.33-.56-.65-.8-1-1.03-1.57-2.03-3.16-3.07-4.72-.37-.56-.81-1.09-1.26-1.6-.26-.29-.59-.55-.94-.73-.7-.38-1.27-.23-1.55.52-.34.88-.58,1.82-.76,2.75-.38,2.01-.41,4.05-.25,6.09.06.71.13,1.42.06,2.18-.18-.49-.34-.98-.54-1.46-.79-1.87-1.6-3.74-2.4-5.6-.06-.15-.14-.29-.23-.42-.37-.5-.82-.9-1.5-.79-.64.1-.92.56-1.12,1.12-1.3,3.57-2.26,7.23-2.89,10.97-.59,3.46-.97,6.95-1.29,10.44-.38,4.17-.89,8.32-1.33,12.48-.07.63-.08,1.27-.27,1.91,0-1.58-.05-3.15-.02-4.73.07-3.75.18-7.5.24-11.26.03-1.92.03-3.83-.02-5.75-.03-1.4-.17-2.79-.23-4.18-.09-1.79-.15-3.59-.24-5.38-.04-.87-.07-1.75-.18-2.62-.15-1.25-.77-2.06-2.04-2.53-1.68-.62-3.01-.2-4.09,1.05-.96,1.11-1.82,2.33-2.62,3.56-3,4.65-5.09,9.76-7.23,14.83-.16.38-.15.89-.68,1.03v.02c.73-2.36,1.44-4.73,2.24-7.07.82-2.41,1.76-4.78,2.6-7.19.29-.82.51-1.68.65-2.54.35-2.17-.36-4.03-1.88-5.54-1.11-1.1-2.52-1.07-3.92-.65-1.45.43-2.55,1.43-3.64,2.42-1.79,1.63-3.06,3.66-4.34,5.69-.13.21-.37.36-.55.54,0,0-.03.02-.03.02,1.1-2.95,2.22-5.9,3.3-8.86.46-1.28.73-2.61.68-3.99-.05-1.33-.93-2.16-2.25-1.98-.7.1-1.39.32-2.08.53-2.14.63-4.03,1.71-5.74,3.12-1.48,1.22-2.93,2.47-4.4,3.69-.46.38-.96.7-1.44,1.04l.02.02c.22-.32.41-.66.66-.95,2.36-2.7,4.75-5.37,7.08-8.09.88-1.03,1.55-2.22,1.9-3.56.34-1.31-.03-2.53-1.13-3.25-.36-.24-.92-.32-1.36-.28-1.1.11-2.23.23-3.28.54-1.98.59-3.93,1.28-5.66,2.47h0c-.2-.38.15-.49.34-.66,1.22-1.09,2.44-2.17,3.67-3.26.9-.79,1.4-1.83,1.77-2.94.35-1.06-.09-2.08-1.09-2.63-.83-.46-1.74-.61-2.67-.49-1.97.26-3.95.52-5.9.86-2.82.5-5.63,1.07-8.44,1.61l.03.02c.64-.26,1.28-.56,1.93-.78,2.76-.92,5.54-1.79,8.14-3.15,2.03-1.06,3.97-2.24,5.37-4.12.02-.03.06-.06.08-.09,1-1.24.58-2.71-.96-3.14-1.22-.35-2.48-.58-3.73-.83-1.24-.25-2.48-.46-3.73-.68l.02-.25c1.94,0,3.88.07,5.81-.03,1.06-.06,2.11-.37,3.14-.65.82-.22,1.5-.73,2.07-1.38.78-.89.85-1.61.25-2.6-.52-.85-1.31-1.4-2.15-1.85-1.8-.95-3.63-1.84-5.44-2.77-.34-.17-.64-.41-.96-.61l-.03.03c.27.06.56.08.82.17,1.77.65,3.63.85,5.48,1.16,1.76.29,3.31-.16,4.86-.83.18-.08.36-.15.54-.22,0,0-.02-.02-.02-.02-.23.75-.41,1.53-.71,2.26-1,2.46-1.43,5.04-1.72,7.66-.37,3.33.03,6.59.81,9.81.61,2.48,1.62,4.82,2.87,7.06,1.73,3.1,3.96,5.79,6.63,8.1,2.3,1.98,4.85,3.6,7.65,4.8,1.38.59,2.77,1.18,4.2,1.64.96.31,2.01.37,3.01.55,4.13.74,8.25.67,12.35-.25,4.42-.99,8.45-2.86,12.07-5.55,2.86-2.13,5.22-4.74,7.23-7.74,2.65-3.95,3.97-8.34,4.8-12.9.46-2.54.44-5.16-.07-7.72-.37-1.87-.79-3.74-1.22-5.6-.08-.34-.27-.66-.41-.99h0c1.52.55,3.05.33,4.57,0,4.55-.96,9.1-1.9,13.64-2.93,4.88-1.11,9.74-2.31,14.61-3.48.14-.03.25-.15.38-.23.32-.08.64-.16.96-.24Z"/>
  <path class="cls-2" d="m117.32,197.04c-.08-.98-.16-1.96-.25-2.94-.12-1.31-.25-2.61-.36-3.92-.08-.95-.15-1.91-.2-2.86-.08-1.64-.15-3.27-.22-4.91-.09-2.3-.15-4.59-.27-6.89-.2-3.58-.43-7.15-.67-10.72-.13-2.03-.32-4.05-.44-6.08-.16-2.63-.3-5.25-.42-7.88-.1-2.31-.09-4.63-.23-6.94-.13-2.19-.38-4.37-.58-6.55-.16-1.78-.33-3.56-.48-5.34-.16-1.86-.33-3.72-.44-5.59-.11-1.79-.26-3.59-.22-5.37.02-.93.35-1.89.7-2.76.57-1.42.51-2.8.03-4.19-.12-.35-.29-.67-.06-1.02.74-1.18.9-2.53,1.11-3.86.31-1.93.51-3.88,1.02-5.76.33-1.22.19-2.53.79-3.68.09-.17.1-.39.2-.56.07-.12.23-.26.34-.26.11,0,.27.16.31.29.07.18.09.39.08.59-.07,1.17.13,2.31.54,3.39.49,1.31.36,2.68.51,4.02.28,2.47-.61,4.69-1.24,6.99-.35,1.3-.64,2.64-.8,3.97-.28,2.42-.11,4.85.08,7.26.2,2.63.33,5.25.12,7.87-.13,1.67-.29,3.34-.44,5.01-.22,2.55-.18,5.1.21,7.63.07.47.08.95.08,1.43-.02,1.68-.08,3.36-.06,5.03,0,.67.09,1.37.31,2,.43,1.23.9,2.48,1.51,3.62.55,1.02.93.98,1.7.15.9-.97,1.65-2.02,2.11-3.29,1.01-2.81,2.09-5.59,3.15-8.37.39-1.02.58-2.08.5-3.17-.1-1.38.22-2.69.57-4,.21-.77.33-1.56.57-2.32.71-2.28,1.53-4.53,2.17-6.83.35-1.25.55-2.56.3-3.89-.37-1.96-.54-3.94-.17-5.93.02-.12.04-.24.03-.36-.05-3.02.88-5.9,1.26-8.85.03-.26.17-.51.26-.78.1.06.15.07.16.1.64,3.23,1.33,6.42,1.01,9.8-.23,2.45-.92,4.77-1.32,7.15-.39,2.31-.94,4.6-1.45,6.9-.49,2.18-1.07,4.33-1.54,6.51-.42,1.94-.74,3.91-1.13,5.86-.57,2.89-1.18,5.78-1.74,8.67-.61,3.13-1.21,6.26-1.78,9.39-.74,4.11-1.47,8.22-2.16,12.33-.44,2.63-.79,5.27-1.2,7.91-.13.86-.36,1.71-.47,2.58-.33,2.44-.61,4.89-.93,7.33-.09.69-.22,1.38-.34,2.06-.04,0-.08,0-.12.01Z"/>
  <path class="cls-2" d="m147.53,130.58c-.01.16,0,.33-.05.47-.67,1.87-1.35,3.75-2.03,5.62-1.15,3.14-2.33,6.27-3.44,9.42-.69,1.95-1.29,3.93-1.91,5.9-.49,1.56-.95,3.12-1.43,4.68-.6,1.94-1.2,3.88-1.79,5.82-.71,2.32-1.39,4.65-2.1,6.97-.94,3.08-1.89,6.16-2.86,9.24-.96,3.04-1.94,6.07-2.96,9.09-.66,1.96-1.41,3.9-2.08,5.86-.45,1.32-.85,2.65-1.23,3.99-.65,2.33-1.79,4.44-2.99,6.5-.38.66-1.08,1.17-1.72,1.62-.59.41-1.02.16-1.28-.51-.23-.61-.08-1.18.08-1.76.6-2.11,1.22-4.21,1.81-6.31.84-2.99,1.67-5.98,2.51-8.97.7-2.49,1.39-4.98,2.12-7.47.62-2.14,1.28-4.27,1.93-6.41.64-2.1,1.24-4.21,1.94-6.28,1.16-3.47,2.37-6.93,3.57-10.39.69-2,1.39-3.99,2.1-5.98.74-2.06,1.52-4.1,2.23-6.17.35-1.01.54-2.08.86-3.1.25-.8.6-1.56.91-2.34.07-.18.16-.39.31-.5.81-.58,1.62-1.15,2.46-1.67,1.15-.71,2.02-1.62,2.58-2.88.63-1.42,1.4-2.78,2.12-4.15.06-.12.24-.17.37-.26l-.03-.02Z"/>
  <path class="cls-2" d="m147.98,215.26c-.52.23-.82.65-.98,1.19-.74.9-1.17,1.89-.87,3.07.31,1.2.97,1.6,2.13,1.21.9-.31,1.78-.7,2.63-1.13,1.14-.57,2.25-1.2,3.38-1.8.13-.07.3-.07.45-.11l-.02-.02c-.38.34-.75.69-1.15,1-1.79,1.39-3.6,2.76-5.48,4.2-.12-.14-.33-.36-.51-.6-1.18-1.5-2.23-3.12-3.55-4.48-1.74-1.8-3.72-3.33-5.89-4.63-2.1-1.25-4.28-2.26-6.6-3-.72-.23-1.46-.4-2.2-.55-1.17-.23-2.35-.44-3.53-.62-2.23-.34-4.44.07-6.66.21-2.52.16-4.96.72-7.35,1.48-3.37,1.07-6.46,2.69-9.27,4.83-2.33,1.78-4.29,3.91-6.07,6.22-.88,1.14-1.56,2.38-2.25,3.63-.08.14-.19.25-.3.41-.79-1.65-1.95-2.95-3.38-4-1.35-.99-2.71-1.97-4.06-2.97-.28-.2-.5-.47-.75-.71,0,0-.02-.03-.02-.03,2.38,1.12,4.74,2.29,7.32,2.89.31.07.63.12.95.13,1.01.03,1.5-.59,1.17-1.54-.45-1.28-.9-2.57-1.47-3.79-1.9-4.05-4.22-7.87-6.69-11.6-1.96-2.96-3.87-5.96-5.79-8.94-.06-.09-.06-.23-.09-.34,0,0-.02.02-.02.02.97,1.04,1.96,2.06,2.92,3.11,3.57,3.92,7.27,7.71,11.55,10.88,1.12.83,2.2,1.71,3.34,2.52,1.17.84,2.41,1.55,3.84,1.85.27.06.55.09.83.07,1.03-.05,1.37-.48,1.39-1.52.05-1.73-.67-3.26-1.21-4.84-.18-.53-.38-1.05-.58-1.57v-.03c.87.92,1.74,1.85,2.62,2.78.68.72,1.54,1.1,2.45,1.43,1.19.42,2.58-.37,2.83-1.64.22-1.08.13-2.14-.07-3.19-.25-1.29-.54-2.57-.86-3.85-.32-1.27-.72-2.52-1.14-4,.28.28.45.4.54.56.85,1.49,1.65,3.01,2.52,4.49.81,1.37,1.7,2.7,2.56,4.04.43.67,1.13.78,1.81.62,1.17-.28,2.19,0,3.21.54.72.38,1.44.09,2.07-.19.76-.33,1.42-.3,2.19-.08,2.14.62,4.08.2,5.84-1.18,1.91-1.51,3.86-2.97,5.52-4.77.28-.31.7-.5,1.05-.74l.03-.02c-1.4,2.1-2.65,4.26-3.06,6.8-.22,1.34,0,2.52.92,3.56.38.42.86.64,1.38.57.82-.11,1.65-.26,2.42-.55,2.19-.83,4.02-2.27,5.85-3.66,1.65-1.25,3.24-2.57,4.86-3.87,0,0-.03-.02-.03-.02-.11.23-.17.51-.33.69-1.24,1.35-2.5,2.69-3.76,4.02-1.26,1.33-2.08,2.92-2.64,4.64-.4,1.23-.21,2.34.92,3.19.53.4,1.03.53,1.66.34,1.16-.35,2.19-.93,3.19-1.6.72-.48,1.47-.92,2.21-1.38,0,0-.02-.02-.02-.02-.33.39-.67.77-.99,1.17-.32.4-.62.8-.93,1.21Z"/>
  <path class="cls-2" d="m176.13,46.08c-.1.54-.14,1.03-.29,1.48-.3.93-1.15,1.28-2.01.83-2.36-1.24-4.79-2.35-6.86-4.07-1.52-1.27-3.04-2.56-4.05-4.33-1.01-1.76-2.07-3.49-3.1-5.24-.14-.24-.27-.49-.35-.75-.6-1.85-1.26-3.69-1.76-5.58-.23-.86-.13-1.82-.14-2.73,0-.4.26-.45.58-.28.32.17.69.29.93.54.8.87,1.93,1.44,2.5,2.54.05.11.1.25.19.3,1.18.74,1.83,1.96,2.73,2.95,1.61,1.76,3.45,3.3,5.11,5.01,1.8,1.86,3.49,3.81,5.22,5.73.94,1.04.98,2.4,1.3,3.6Zm-7.28-7.25c-.05-.13-.14-.48-.32-.77-.64-.99-1.59-1.53-2.7-1.83-.61-.17-1.23.12-1.57.72-.26.46-.18.89.35,1.37.7.64,1.44,1.24,2.18,1.84.45.37.99.35,1.46.12.47-.23.61-.71.61-1.44Z"/>
  <path class="cls-2" d="m121.61,189.83c1.92-13.75,3.8-27.48,6.23-41.15.02.34.1.69.06,1.02-.1.94.19,1.82.45,2.69.23.79,1.16,1.06,1.83.54.19-.14.35-.33.49-.52.21-.29.4-.6.58-.91.68-1.17,1.37-2.31,2.3-3.34,1.03-1.14,1.85-2.47,2.9-3.67-.26.82-.48,1.66-.79,2.46-.79,2.04-1.67,4.06-2.43,6.11-1.13,3.06-2.24,6.14-3.26,9.24-1.65,5.03-3.26,10.07-4.83,15.13-.72,2.32-1.27,4.7-1.91,7.04-.44,1.61-.91,3.22-1.37,4.83-.05.18-.16.35-.25.52Z"/>
  <path class="cls-2" d="m118.44,155.91c-.67-.86-.82-1.87-.8-2.9.03-1.63.16-3.26.18-4.89.01-.87-.06-1.75-.16-2.62-.29-2.39-.03-4.76.22-7.14.28-2.63.92-5.23.71-7.91-.04-.47.08-.94.12-1.43,1.11.28,2.22.53,3.31.84,1.07.31,2.09.73,3.04,1.34.4.26.45.47.33.86-.27.87-.55,1.74-.77,2.63-.45,1.77-.92,3.54-1.29,5.32-.15.73-.13,1.51-.08,2.27.12,1.95-.67,3.66-1.29,5.43-.11.33-.34.42-.65.37-.08-.01-.16-.02-.24-.04-1.71-.44-2.03.15-2.44,1.63-.43,1.53-.53,3.12.21,4.66.43.89.36.93-.4,1.59Z"/>
  <path class="cls-2" d="m102.82,138.99c-.12-.1-.22-.14-.23-.2-.62-2.26-1.32-4.51-1.09-6.91.15-1.58.13-3.19.42-4.74.42-2.28.75-4.55.69-6.88-.02-.92.12-1.05,1.07-.89,1.45.23,2.89.53,4.33.82,1.35.27,1.33.29,1.31,1.66-.02,1.39-.57,2.64-1.05,3.9-.71,1.87-1.37,3.75-1.2,5.8.02.2-.02.4-.06.59-.06.31-.2.55-.57.39-.45-.19-.86-.06-1.27.12-.11.05-.23.16-.32.15-1.34-.22-1.36.79-1.48,1.64-.21,1.49-.37,2.99-.55,4.55Z"/>
  <path class="cls-2" d="m129.75,150.46c-.12-2.22,0-4.4.65-6.51.7-2.29,1.51-4.54,2.2-6.83.24-.79.29-1.64.37-2.47.15-1.46.24-2.93.4-4.4.08-.71.24-1.41.38-2.11.09-.45.39-.51.7-.29,1.06.76,2.14.62,3.3.27.86-.25,1.75-.6,2.77-.08-.14.42-.23.88-.44,1.29-.96,1.89-1.72,3.85-2.24,5.91-.36,1.43-.72,2.86-1.17,4.26-.23.71-.64,1.36-.98,2.04-.14.27-.35.44-.68.26-.53-.29-1.07-.63-1.68-.31-.84.44-1.46,1.14-1.83,2-.33.77-.54,1.58-.77,2.39-.23.78-.31,1.57.18,2.3.22.33.1.6-.1.87-.35.48-.71.95-1.06,1.43Z"/>
  <path class="cls-2" d="m147.98,126.2c-.33.47-.5.79-.74,1.06-.98,1.12-1.85,2.3-2.38,3.7-.21.53-.47.81-1.17.63-.93-.24-1.09-.1-2.34.76.29-1.25.86-2.3,1.41-3.34.51-.95.95-1.92,1.15-2.99.15-.82.26-.9,1.04-.71.96.24,1.9.55,3.03.88Z"/>
  <path class="cls-2" d="m150.55,228.38c-.48-1.17-.97-2.34-1.45-3.51-.09-.22-.25-.42-.29-.65-.02-.14.11-.43.21-.44,3.3-.5,6.27-1.99,9.43-3.06-.25.2-.49.41-.74.6-1.47,1.1-2.95,2.18-4.4,3.3-.92.71-1.76,1.51-2.3,2.56-.2.38-.3.81-.45,1.22h0Z"/>
  <path class="cls-2" d="m109.22,117.75c-.34-.05-.69-.08-1.02-.17-1.08-.28-2.14-.64-3.23-.84-.65-.12-1.35-.03-2.03-.01-.24,0-.47.12-.57-.22-.09-.27-.22-.55.11-.73.55-.3.91-.75,1.14-1.33.14-.35.41-.28.7-.23,1.77.28,3.22,1.09,4.25,2.57.23.33.44.66.66.99l-.02-.03Z"/>
  <path class="cls-2" d="m107.05,135.24c-.23,1.24-.46,2.48-.69,3.72-.01.08-.01.17-.06.23-.32.48-.54,1.29-1.15,1.21-.72-.1-.43-.93-.4-1.41.1-1.38.32-2.74.47-4.11.06-.51.37-.78.8-.93.54-.19.89.09.91.68,0,.2,0,.4,0,.6.04,0,.07.01.11.02Z"/>
  <path class="cls-2" d="m126.36,129.59c-1.69-.73-3.16-1.37-4.79-2.07.42-.2.72-.46,1.04-.48,1.26-.08,2.53-.2,3.79.11.42.1.51.28.42.66-.15.57-.29,1.14-.45,1.78Z"/>
  <path class="cls-2" d="m80.29,91.35c1.26-1.77,2.49-3.5,3.75-5.27.39.37.66.65.95.89.33.28.26.55.02.81-.16.18-.36.31-.53.48-.61.62-1.24,1.22-1.83,1.87-.64.71-1.37,1.17-2.37,1.21Z"/>
  <path class="cls-2" d="m131.47,146.64c.42-1.23.61-2.54,1.65-3.41.24-.2.63-.32.95-.32.44,0,.61.36.37.75-.69,1.11-1.42,2.21-2.16,3.29-.09.14-.32.19-.48.29-.11-.2-.22-.39-.33-.6Z"/>
  <path class="cls-2" d="m119.55,153.82c-.13-.51-.34-.92-.3-1.31.09-.78.29-1.56.48-2.32.09-.35.29-.65.72-.7.57-.06.8.17.68.75-.2,1.02-.88,2.59-1.59,3.58Z"/>
  <path class="cls-2" d="m103.13,140.44c.38.76,1.06,1.25,1.72,1.7.47.32.44.55.21.95-.12.2-.17.45-.29.65-.11.18-.32.48-.42.46-.28-.06-.58-.22-.78-.43-.14-.15-.15-.44-.17-.67-.09-.89-.16-1.79-.23-2.68l-.03.03Z"/>
  <path class="cls-2" d="m140.98,135.96c.65-1.3,1.31-2.35,2.18-3.26.11-.12.42-.05.64-.08,0,.18.07.38,0,.53-.54,1.2-1.17,2.34-2.82,2.81Z"/>
  <path class="cls-2" d="m129.55,139.3c.35-1.78.69-3.56,1.06-5.46.46,1.02.03,3.26-1.06,5.46Z"/>
  <path class="cls-2" d="m144.4,276.22c.16.17.36.31.48.5,1.08,1.68,2.15,3.35,3.21,5.04.19.3.28.65.42.98-.16-.17-.35-.32-.47-.52-1.07-1.68-2.13-3.36-3.19-5.05-.18-.3-.3-.64-.45-.96Z"/>
  <path class="cls-2" d="m144.1,123.47c.3-.59.93-.6,1.42-.76.55-.19,1.16-.21,1.75-.28.09-.01.25.07.27.14.03.09-.03.26-.1.31-.26.16-.53.37-.81.41-.8.1-1.61.13-2.52.19Z"/>
  <path class="cls-2" d="m143.68,275.02c.25.41.5.83.75,1.24-.25-.41-.5-.83-.75-1.24Z"/>
  <path class="cls-2" d="m154.73,217.69c.14-.36.43-.44.77-.4l-.02-.03c-.26.14-.52.27-.77.41,0,0,.02.02.02.02Z"/>
  <path class="cls-2" d="m148.48,282.7c.17.25.34.5.51.76-.17-.25-.34-.5-.51-.76Z"/>
  <path class="cls-2" d="m103.16,140.41s-.09-.03-.1-.06c-.05-.18-.09-.35-.13-.53,0-.01.1-.04.15-.06.02.19.03.38.05.56,0,.04,0,.08,0,.12l.03-.03Z"/>
  <path class="cls-2" d="m81.39,226.98c-.14-.02-.28-.04-.42-.05.03-.02.06-.06.08-.06.11.04.21.09.31.14l.03-.03Z"/>
  <polygon class="cls-2" points="121.25 191.19 121.24 191.09 121.29 191.11 121.25 191.19"/>
  <path class="cls-2" d="m71.54,249.87c-.1.04-.21.09-.31.12-.02,0-.05-.03-.07-.05l.41-.05-.03-.02Z"/>
  <path class="cls-2" d="m80.55,194.47c.31-.03.53.06.52.43,0,0,.02-.02.02-.02-.19-.14-.38-.28-.57-.42l.03.02Z"/>
  <path class="cls-2" d="m83.17,257.52l.69-.15h0c-.22.04-.44.08-.66.12l-.03.02Z"/>
  <path class="cls-2" d="m80.52,194.46s.04-.09.07-.13c-.03,0-.07,0-.1.01.02.05.04.09.06.14l-.03-.02Z"/>
  <path class="cls-2" d="m149.22,283.94l-.1-.06s-.12,0-.12,0c-.02-.15-.03-.31-.05-.46.09.17.18.34.26.52Z"/>
  <path class="cls-2" d="m106.45,291.23c0,.07,0,.14-.01.21,0-.06,0-.13,0-.19,0,0,.01-.02.01-.02Z"/>
  <path class="cls-2" d="m85.72,218.1s-.1-.03-.15-.05c0,.03,0,.07,0,.1.05-.03.09-.05.14-.08l.02.03Z"/>
  <polygon class="cls-2" points="149.93 212.9 149.96 212.85 149.9 212.88 149.93 212.9"/>
  <path class="cls-2" d="m156.84,216.24s.05.02.07.03c-.01-.01-.03-.03-.04-.04h-.03Z"/>
  <path class="cls-2" d="m156.86,216.24s-.04.02-.07.03c.01,0,.03-.02.04-.03h.03Z"/>
  <path class="cls-2" d="m156.12,216.72s.04.02.07.03l-.04-.03h-.03Z"/>
  <path class="cls-2" d="m156.15,216.72l-.07.03s.03-.02.04-.02h.03Z"/>
  <path class="cls-2" d="m155.5,217.29s-.01-.02-.02-.03l.02.03Z"/>
  <path class="cls-2" d="m103.15,205.41s-.03-.04-.04-.06c.01.01.02.02.04.03v.03Z"/>
  <path class="cls-2" d="m93.08,227.29c.03-.05.06-.11.09-.16-.04.05-.07.09-.11.14l.02.02Z"/>
  <path class="cls-2" d="m83.2,257.49s.02.04.03.06c-.02-.01-.04-.02-.06-.03l.03-.02Z"/>
  <path class="cls-2" d="m148.7,203.02c.08-.07.15-.14.23-.22h-.02c-.08.06-.16.13-.23.19l.03.02Z"/>
  <path class="cls-2" d="m148.92,202.81c.09-.06.18-.13.27-.19v-.03c-.1.07-.2.14-.3.21h.02Z"/>
  <path class="cls-2" d="m149.46,202.3c-.09.1-.18.19-.26.29v.03c.09-.11.18-.23.27-.34v.03Z"/>
  <path class="cls-2" d="m149.46,202.27s.04.02.06.03c-.01-.02-.02-.05-.04-.07,0,.02-.02.05-.03.07v-.03Z"/>
  <path class="cls-2" d="m136.3,200.2s-.01-.04-.02-.06c.02.01.03.02.05.03l-.03.02Z"/>
  <path class="cls-2" d="m85.63,270.47c-.06.09-.11.19-.17.28h.03c.05-.08.1-.17.16-.26,0,0-.02-.02-.02-.02Z"/>
  <path class="cls-2" d="m85.47,270.75c-.11.09-.21.19-.32.28l.03-.03c.11-.08.22-.16.32-.24,0,0-.03-.01-.03-.01Z"/>
  <path class="cls-2" d="m85.15,271.03s-.01-.04-.02-.06c.01.01.03.02.04.03l-.03.03Z"/>
  <path class="cls-2" d="m147.56,130.61l-.03-.02.03.02Z"/>
  <path class="cls-2" d="m97.6,276.91s-.03.03-.05.05c0-.01.01-.02.02-.03l.03-.02Z"/>
  <path class="cls-2" d="m109.25,117.78s-.04,0-.06.01c.01-.01.03-.03.04-.04,0,0,.02.03.02.03Z"/>
  <path class="cls-2" d="m165.05,261.11c-.79-.15-1.37-.64-1.9-1.2l-.02.02c.73.24,1.42.55,1.9,1.2l.02-.02Z"/>
  <path class="cls-2" d="m166.44,262.11c-.46-.34-.93-.67-1.39-1.01l-.02.02c.53.24,1.2.29,1.38,1.02l.03-.03Z"/>
  <path class="cls-2" d="m162.51,259.35c.21.19.41.38.62.58l.02-.02c-.35-.03-.58-.19-.62-.56h-.02Z"/>
  <path class="cls-2" d="m167.02,262.28c.17.19.35.39.52.58h.02c-.17-.2-.34-.4-.51-.61l-.03.03Z"/>
  <path class="cls-2" d="m194.95,219.18c.11,0,.22.02.33.03-.03,0-.06.02-.08.02-.08-.02-.15-.04-.23-.06,0,0-.02.02-.02.02Z"/>
  <path class="cls-2" d="m167.04,262.25c-.2-.05-.4-.09-.6-.14l-.03.03c.2.04.4.09.6.13l.03-.03Z"/>
  <path class="cls-2" d="m168.16,263.07c-.2-.07-.4-.14-.61-.2h-.02c.21.05.42.12.62.18v.02Z"/>
  <path class="cls-2" d="m162.53,259.34c-.21-.03-.42-.05-.62-.08v.03c.19.02.4.04.6.07h.02Z"/>
  <path class="cls-2" d="m161.69,258.9c-.12-.08-.23-.16-.35-.24h-.03c.12.09.24.18.36.27l.02-.03Z"/>
  <path class="cls-2" d="m160.71,258.49c.2.06.4.11.6.17h.03c-.22-.06-.44-.12-.66-.18h.03Z"/>
  <path class="cls-2" d="m149.51,284.58c-.02-.14-.04-.28-.07-.43.08.17.16.34.23.5v.03c-.01-.1-.07-.13-.17-.1Z"/>
  <path class="cls-2" d="m191.9,220.1c0-.09,0-.18,0-.27.07.03.14.06.2.09-.07.06-.13.12-.2.19Z"/>
  <path class="cls-2" d="m160.68,258.48s.02-.03.03-.05c-.02.01-.04.02-.06.03.02,0,.04.02.06.03h-.03Z"/>
  <path class="cls-2" d="m161.67,258.93c.08.12.15.24.23.36v-.03c-.06-.12-.14-.24-.21-.36l-.02.03Z"/>
  <path class="cls-2" d="m168.16,263.05s.02.05.03.07c0-.02-.02-.03-.03-.05v-.02Z"/>
  <path class="cls-2" d="m168.88,263.6s0-.09,0-.13c-.02.01-.05.03-.07.04.02.02.03.04.05.06l.03.03Z"/>
  <path class="cls-2" d="m168.85,263.57s.05.02.08.03c-.02,0-.03,0-.05,0l-.03-.03Z"/>
  <path class="cls-2" d="m156.4,266.17c.08.07.15.14.23.21l.02-.02c-.07-.07-.15-.14-.22-.21,0,0-.02.02-.02.02Z"/>
  <path class="cls-2" d="m156.62,266.38c.08.08.16.16.24.23l.02-.02-.25-.23-.02.02Z"/>
  <path class="cls-2" d="m157.13,266.82c-.08-.08-.16-.15-.24-.23l-.02.02c.08.08.17.15.25.23v-.03Z"/>
  <path class="cls-2" d="m157.12,266.84c.08.11.15.22.23.33l.03.03c-.08-.13-.16-.26-.24-.38v.03Z"/>
  <path class="cls-2" d="m157.35,267.17s.05.02.07.03c-.02,0-.03,0-.05,0l-.03-.03Z"/>
  <path class="cls-2" d="m151.77,273.39c-.06-.1-.12-.21-.18-.31v.02c.05.09.1.18.15.28h.02Z"/>
  <path class="cls-2" d="m151.75,273.38c.11.06.22.12.34.19v-.03c-.1-.05-.21-.1-.31-.15h-.02Z"/>
  <path class="cls-2" d="m152.08,273.57c-.13.25-.09.38.22.33l.03.03c-.08-.13-.16-.26-.25-.38v.03Z"/>
  <path class="cls-2" d="m152.31,273.89s.05.02.07.03c-.02,0-.03,0-.05,0l-.03-.03Z"/>
  <path class="cls-2" d="m149.45,284.16l-.26-.26.26.26Z"/>
  <path class="cls-2" d="m149.68,284.66s.02.04.03.06l-.02-.04v-.03Z"/>
  <path class="cls-1" d="m119.69,91.83c.08-.28.12-.47.19-.66.22-.61.29-1.22.2-1.87-.15-1.03.06-1.94.81-2.75.75-.81.88-1.93,1.23-2.94.2-.58.56-1.11.86-1.65.03-.06.24-.09.31-.05.07.05.13.21.11.3-.45,1.8-.57,3.69-1.71,5.28-.46.63-.54,1.38-.34,2.17.29,1.12-.39,1.88-1.05,2.64-.06.06-.28.1-.31.05-.13-.17-.22-.38-.3-.52Z"/>
  <path class="cls-1" d="m146.54,87.54c.05.43.12.86.14,1.29.03.84,0,1.68.04,2.52.02.38.05.9.29,1.12,1.02.92.91,2.08.83,3.23-.07,1.05-.49,2.01-1.09,2.88-.09.14-.34.28-.48.25-.13-.03-.26-.27-.31-.44-.19-.78.1-1.49.33-2.22.13-.42.25-.84.37-1.26.16-.59.2-1.12-.23-1.68-.24-.31-.31-.83-.31-1.25-.02-1.47-.15-2.95.43-4.44Z"/>
  <path class="cls-1" d="m135.06,86.29c.29.87-.03,1.66-.35,2.41-.37.85-.43,1.64-.14,2.53.5,1.53-.09,2.89-.86,4.18-.1.17-.24.34-.41.43-.15.08-.36.1-.53.06-.06-.01-.06-.28-.08-.43,0-.04.02-.08.04-.11.8-1.27.8-2.62.47-4.02-.08-.33.04-.7.1-1.05.03-.19.1-.39.18-.57.52-1.14,1.05-2.29,1.58-3.43Z"/>
  <path class="cls-1" d="m121.33,245.25c-2.87.17-5.86-.32-8.74-1.31-2.56-.89-5.1-1.87-7.02-3.93-.16-.17-.3-.36-.41-.57-.42-.77-.36-.86.53-.94.13-.01.33-.08.37-.17.45-1.19,1.62-1.62,2.49-2.34,2.18-1.81,4.66-3.03,7.51-3.42,2.06-.28,4.11-.34,6.19-.05,4.26.58,7.94,2.52,11.5,4.76,1.28.81,2.52,1.69,3.77,2.54.13.09.28.16.39.27.62.58.56,1.16-.23,1.48-1.62.65-3.25,1.29-4.92,1.82-1.47.47-2.99.82-4.5,1.16-2.22.51-4.46.85-6.94.7Zm14.81-5.39c.01-.1.02-.19.04-.29-1.73-.91-3.45-1.82-5.18-2.72-.6-.31-1.23-.57-1.85-.84-.28-.12-.49-.02-.49.29.01,1.14-.78,1.91-1.33,2.76-.4.62-1,1.2-1.64,1.54-1.64.88-3.32,1.6-5.29,1.67-2.1.07-3.61-.86-4.89-2.26-1.12-1.23-1.54-2.8-1.52-4.52-.29.07-.56.1-.82.19-2.23.81-4.13,2.24-6.21,3.33-.29.15-.22.42-.04.6.26.25.53.5.84.66.95.51,1.91.99,2.88,1.45,1.93.9,3.97,1.49,6.06,1.76,2.66.34,5.34.07,7.98-.31,3.34-.47,6.51-1.56,9.67-2.69.59-.21,1.18-.42,1.77-.63Zm-19.22-5.06c.3,1.21.91,2.19,1.6,3.11.63.84,1.48,1.28,2.57,1.3,1.72.03,2.92-.84,4.02-2.03.48-.53.55-1.13.59-1.77.02-.37-.2-.6-.56-.66-.48-.08-.92-.13-1.27.38-.68.97-1.72,1.38-2.84,1.62-1.16.25-2.25-.32-2.72-1.42q-.33-.78-1.39-.53Zm4.28-.45c-.08,0-.16-.02-.23,0-.21.07-.41.15-.61.23.15.17.27.4.45.48.23.1.54.14.78.08.23-.07.41-.3.62-.46-.22-.11-.43-.23-.65-.32-.1-.04-.23,0-.35,0Z"/>
  <path class="cls-1" d="m118.25,223.66c-.37.18-.73.42-1.12.54-4.44,1.4-7.82,4.26-10.73,7.77-.18.21-.18.57-.27.86-.11.07-.23.14-.34.21-.02,0-.04.01-.06.02.02,0,.04,0,.06,0,.11-.08.21-.15.32-.23.29-.27.57-.55.86-.82.79-.73,1.57-1.47,2.37-2.18.45-.4.9-.8,1.4-1.12,1.73-1.1,3.58-1.93,5.58-2.42,1.69-.41,3.41-.29,5.12-.18,1.23.08,2.43.41,3.66.59,1.83.28,3.42,1.11,4.86,2.2,1.4,1.06,2.71,2.22,4.04,3.36.29.25.5.58.75.87-.06.07-.11.13-.17.2-.39-.28-.79-.56-1.17-.85-1.54-1.2-3.06-2.42-4.96-3.08-4.57-1.59-9.2-1.87-13.9-.69-.42.1-.87.23-1.22.47-2.22,1.48-4.58,2.76-6.54,4.62-.63.59-1.42,1.01-2.15,1.5-.16.11-.35.2-.54.23-.59.12-.87-.19-.56-.72.8-1.38,1.54-2.83,2.56-4.03,2.7-3.18,6.16-5.29,10.09-6.62.67-.23,1.38-.31,2.07-.46l-.02-.03Z"/>
  <path class="cls-1" d="m131.92,246.72c-.36.29-.69.61-1.07.86-1.59,1.03-3.33,1.65-5.16,2.13-1.86.49-3.7.43-5.56.19-1.46-.19-2.93-.33-4.37-.62-3.22-.66-6.08-2.09-8.59-4.22-.39-.34-.78-.68-1.14-1.06-.21-.23-.38-.51-.51-.79-.16-.34-.22-.72.11-.99.33-.27.59,0,.84.19,1.1.85,2.25,1.65,3.28,2.58,1.52,1.37,3.38,2.07,5.18,2.92,1.94.92,4.03.83,6.08,1,2.97.25,5.77-.42,8.49-1.57.75-.32,1.5-.68,2.43-.62Z"/>
  <path class="cls-1" d="m127.86,252.05c-.1.06-.2.14-.31.17-2.45.63-4.91,1.07-7.43.43-.31-.08-.63-.15-.91-.29-.15-.07-.23-.27-.35-.41.17-.07.34-.18.51-.18.32-.01.65-.02.95.08,1.45.47,2.92.32,4.39.16,1.02-.11,2.04-.19,3.05-.28.03.11.07.22.1.33Z"/>
  <path class="cls-1" d="m118.27,223.69l.59-.26c.02.06.04.13.06.19-.22.02-.45.03-.67.05l.02.03Z"/>
  <path class="cls-1" d="m168.85,38.83c0,.74-.14,1.22-.61,1.44-.48.23-1.01.25-1.46-.12-.74-.6-1.48-1.2-2.18-1.84-.53-.48-.61-.91-.35-1.37.34-.6.96-.89,1.57-.72,1.11.3,2.07.84,2.7,1.83.19.29.27.64.32.77Zm-3.13-1.62c-.05.06-.11.13-.16.19,1.14,1.27,1.33,1.41,2.24,1.43-.79-.61-1.43-1.11-2.07-1.62Z"/>
  <path class="cls-2" d="m136.14,239.86c-.59.21-1.18.42-1.77.63-3.16,1.12-6.33,2.22-9.67,2.69-2.65.37-5.32.65-7.98.31-2.09-.27-4.14-.86-6.06-1.76-.97-.46-1.93-.94-2.88-1.45-.31-.17-.59-.42-.84-.66-.19-.18-.26-.44.04-.6,2.08-1.09,3.98-2.52,6.21-3.33.25-.09.53-.12.82-.19-.02,1.72.4,3.29,1.52,4.52,1.28,1.4,2.79,2.33,4.89,2.26,1.97-.07,3.64-.79,5.29-1.67.64-.35,1.24-.93,1.64-1.54.55-.85,1.34-1.62,1.33-2.76,0-.31.21-.41.49-.29.62.27,1.25.53,1.85.84,1.73.89,3.45,1.81,5.18,2.72-.01.1-.02.19-.04.29Z"/>
  <path class="cls-2" d="m116.92,234.8q1.06-.24,1.39.53c.47,1.1,1.55,1.67,2.72,1.42,1.12-.24,2.16-.65,2.84-1.62.35-.51.79-.45,1.27-.38.36.06.59.28.56.66-.04.64-.11,1.24-.59,1.77-1.09,1.19-2.3,2.07-4.02,2.03-1.09-.02-1.94-.46-2.57-1.3-.7-.92-1.3-1.9-1.6-3.11Z"/>
  <path class="cls-2" d="m121.2,234.35c.12,0,.25-.03.35,0,.22.09.43.21.65.32-.2.16-.38.4-.62.46-.24.07-.55.02-.78-.08-.19-.08-.3-.32-.45-.48.2-.08.41-.16.61-.23.07-.02.15,0,.23,0Z"/>
  <path class="cls-2" d="m105.79,233.04c.11-.07.23-.14.34-.21,0,0-.02,0-.02,0-.11.08-.21.15-.32.23,0,0,0-.02,0-.02Z"/>
  <path class="cls-2" d="m105.79,233.06s-.04,0-.06,0c.02,0,.04-.01.06-.02,0,0,0,.02,0,.02Z"/>
  <path class="cls-2" d="m165.72,37.2c.64.5,1.29,1,2.07,1.62-.9-.02-1.1-.16-2.24-1.43.05-.06.11-.13.16-.19Z"/>
</svg>