<svg
        version="1.0"
        xmlns="http://www.w3.org/2000/svg"
        width="720.000000pt"
        height="720.000000pt"
        viewBox="0 0 720.000000 720.000000"
        preserveAspectRatio="xMidYMid meet"
      >
        <metadata></metadata>
        <g
          transform="translate(0.000000,720.000000) scale(0.100000,-0.100000)"
          // fill="#000000"
          fill="none"
          stroke="#000000"
        >
          {/* rays of the sun */}
          <path
            d="M0 3600 z m4462 3004 c71 -71 152 -155 179 -187 44 -52 49 -63 49 -105 0 -38 -6
-55 -31 -85 -17 -20 -38 -37 -47 -37 -18 0 -68 -32 -162 -104 -109 -84 -113
-89 -120 -153 -5 -42 -17 -74 -43 -115 -42 -64 -46 -91 -28 -167 11 -42 11
-87 3 -210 -5 -86 -9 -187 -8 -226 1 -64 -3 -78 -42 -160 -28 -57 -47 -114
-53 -155 -5 -36 -14 -91 -19 -123 -5 -32 -47 -176 -94 -320 -46 -144 -123
-392 -171 -552 -48 -159 -90 -299 -95 -310 -29 -71 -129 -413 -130 -442 -1
-56 166 72 282 216 85 105 228 261 240 261 15 0 -38 -65 -173 -212 -130 -142
-189 -234 -191 -296 -2 -59 35 -77 95 -45 53 27 187 132 282 222 174 164 189
175 59 41 -185 -191 -215 -225 -246 -278 -33 -55 -35 -78 -10 -91 14 -8 29 -5
58 11 46 25 144 90 197 130 65 51 40 23 -31 -34 -37 -30 -99 -73 -139 -94 -70
-38 -71 -39 -92 -20 -12 11 -21 28 -21 38 0 23 31 85 57 113 55 62 57 68 8 32
-130 -98 -191 -117 -221 -72 -19 29 -14 71 16 130 27 52 26 54 -12 19 -88 -82
-113 -95 -180 -94 -35 0 -72 -1 -83 -1 -11 0 -42 3 -69 8 -48 8 -49 9 -104 98
-30 50 -52 81 -48 70 15 -41 36 -141 36 -170 0 -67 -63 -76 -119 -17 l-37 38
18 -50 c21 -63 22 -80 3 -96 -37 -31 -162 55 -337 231 l-117 119 64 -98 c136
-206 225 -378 209 -403 -8 -14 -67 -3 -117 23 -57 28 -56 16 2 -27 28 -20 60
-48 71 -62 11 -14 22 -24 24 -22 1 2 17 25 34 50 108 161 285 255 497 266 209
11 361 -61 513 -241 38 -45 37 -45 177 11 80 33 119 52 280 136 22 12 58 29
80 39 82 37 0 -13 -130 -79 -71 -36 -152 -82 -180 -102 -27 -19 -43 -27 -35
-16 14 17 13 18 -5 11 -11 -4 -49 -17 -85 -29 -36 -11 -66 -21 -68 -22 -7 -5
32 -74 40 -69 4 3 8 1 8 -5 0 -5 10 -12 23 -14 15 -3 13 -4 -5 -2 -16 1 -28 0
-28 -1 0 -2 7 -29 15 -61 20 -78 19 -202 -4 -289 -28 -108 -75 -189 -161 -274
-119 -120 -262 -180 -425 -180 -198 1 -370 80 -485 225 -20 25 -30 32 -30 21
0 -29 -30 -78 -89 -145 -31 -35 -67 -77 -80 -95 -24 -30 -23 -30 15 5 72 66
137 109 187 124 94 28 108 -10 58 -150 -16 -44 -32 -89 -36 -100 l-7 -20 16
20 c9 11 31 39 49 62 36 47 93 83 129 83 14 0 36 -12 50 -28 46 -49 45 -74
-17 -252 -30 -90 -53 -165 -51 -167 2 -3 10 13 16 34 19 57 102 223 145 288
21 31 48 62 61 67 32 15 71 2 91 -29 16 -23 17 -61 18 -362 0 -367 -2 -368 35
14 20 207 66 385 101 385 23 0 43 -30 69 -101 l19 -54 1 74 c0 92 16 151 41
151 15 0 52 -43 106 -126 7 -11 5 -1 -4 21 -29 73 -32 93 -18 111 16 23 46 11
105 -42 22 -20 43 -35 45 -32 3 3 -8 24 -25 46 -39 55 -59 124 -41 146 8 9 19
16 25 16 15 0 113 -65 155 -104 19 -17 7 1 -26 39 -69 79 -83 103 -83 138 0
41 24 52 70 34 37 -14 39 -14 31 1 -5 10 -19 26 -30 36 -53 48 -5 91 91 82 54
-4 57 -4 23 4 -109 26 -115 29 -115 61 0 25 6 33 38 46 55 23 210 51 362 66
l135 13 -175 7 c-208 8 -360 38 -360 71 0 19 37 54 78 75 72 37 477 159 488
148 3 -2 -42 -16 -98 -31 -279 -75 -448 -145 -448 -186 0 -30 149 -58 363 -66
92 -4 167 -10 167 -13 0 -4 39 -3 86 1 155 13 199 15 224 9 13 -4 -86 -15
-220 -25 -270 -20 -402 -37 -469 -60 -24 -9 -51 -16 -61 -16 -20 0 -77 -27
-85 -40 -3 -5 9 -16 27 -23 32 -14 206 -49 300 -62 26 -3 50 -10 52 -14 6 -8
-86 -4 -198 9 -117 15 -181 13 -196 -5 -11 -13 -8 -22 17 -53 16 -20 50 -50
75 -67 25 -16 104 -67 174 -113 71 -46 140 -92 154 -103 l25 -21 -35 21 c-20
11 -76 43 -125 70 -50 27 -89 55 -87 61 1 6 -2 9 -7 6 -5 -3 -49 17 -99 45
-50 27 -107 53 -126 56 -32 5 -36 3 -36 -16 0 -12 7 -36 16 -53 23 -44 182
-210 284 -294 47 -39 112 -97 145 -129 l60 -57 -60 49 c-259 211 -474 376
-494 377 -26 2 -25 -48 2 -101 14 -26 56 -83 94 -126 122 -140 120 -144 -12
-23 -139 126 -182 156 -195 136 -16 -26 7 -76 163 -342 47 -82 84 -148 82
-148 -7 0 -104 155 -102 163 1 5 -6 13 -15 18 -10 5 -15 16 -11 25 3 9 0 14
-8 12 -9 -2 -13 4 -11 16 2 10 -1 15 -6 12 -6 -3 -39 41 -76 97 -36 57 -74
111 -85 121 -19 17 -20 17 -33 -6 -20 -35 -17 -224 5 -330 10 -48 17 -96 15
-105 -2 -10 -11 22 -21 70 -25 127 -84 298 -108 313 -6 3 -15 1 -19 -7 -13
-20 -57 -207 -64 -269 -4 -30 -11 -91 -16 -135 -36 -309 -58 -622 -61 -868 -1
-51 -4 -103 -9 -117 -4 -14 -5 27 -2 90 9 176 8 1241 0 1272 -11 35 -60 48
-89 22 -53 -48 -171 -282 -311 -617 -22 -54 -42 -96 -45 -94 -2 2 2 17 8 33 6
16 56 161 110 323 110 326 119 377 74 407 -16 11 -34 14 -52 9 -64 -16 -73
-27 -331 -430 -52 -80 -96 -145 -99 -145 -2 0 -2 3 0 8 3 4 55 90 117 191 97
158 119 202 158 317 24 73 42 140 39 148 -14 35 -105 7 -188 -57 -86 -65 -244
-210 -553 -508 -273 -262 -239 -221 93 111 480 481 538 550 513 604 -10 22
-16 24 -53 20 -64 -8 -225 -82 -389 -179 -81 -48 -192 -106 -196 -102 -2 1 54
36 124 77 270 158 412 267 412 315 0 32 -27 36 -143 19 -150 -22 -344 -73
-597 -158 -123 -41 -226 -74 -227 -72 -5 4 196 79 431 160 121 42 198 64 215
61 21 -4 22 -4 6 3 -17 8 -10 12 40 26 69 21 186 79 210 106 41 45 -6 73 -165
100 -69 11 -145 25 -170 30 l-45 9 50 -5 c28 -2 107 -7 177 -11 139 -6 207 8
228 48 24 44 -49 80 -535 265 -121 46 -211 84 -200 84 11 0 124 -38 250 -85
242 -89 369 -129 447 -139 50 -6 108 9 108 27 0 35 -128 134 -285 223 -47 27
-82 50 -77 52 5 1 44 -16 86 -39 92 -49 227 -106 273 -115 l34 -6 -26 58 c-70
159 -332 539 -637 925 -37 48 -68 90 -68 94 0 9 129 -140 222 -256 227 -284
538 -596 655 -658 30 -15 33 -14 33 13 0 47 -44 150 -131 306 -69 123 -132
253 -120 246 4 -3 37 -54 72 -113 89 -151 191 -303 226 -335 15 -15 40 -29 53
-30 24 -3 25 0 23 42 -1 25 -25 128 -53 229 -27 101 -50 187 -50 190 1 12 20
-27 36 -75 33 -99 139 -302 151 -290 7 6 -15 235 -28 305 -6 29 -12 177 -14
330 -1 152 -8 348 -13 436 -6 88 -12 232 -12 320 l-1 160 -18 -45 c-10 -25
-21 -86 -24 -137 -7 -95 -37 -204 -64 -235 -26 -29 -43 -7 -80 103 -39 115
-42 162 -23 327 9 70 9 111 0 163 -9 52 -9 73 0 83 7 10 10 61 8 158 l-3 143
42 85 c44 91 59 146 48 179 -9 31 -26 26 -79 -23 -27 -24 -77 -58 -111 -75
-45 -21 -74 -44 -101 -80 -48 -63 -111 -96 -175 -94 -87 2 -113 37 -63 84 14
13 47 51 72 84 52 67 60 75 117 111 65 42 107 96 190 247 63 114 93 156 149
212 76 75 97 85 285 130 70 17 140 65 166 114 22 44 92 100 163 132 78 36 119
67 231 182 97 100 146 129 210 123 40 -4 52 -12 173 -132z m-242 -2927 c0 -2
-10 -12 -22 -23 l-23 -19 19 23 c18 21 26 27 26 19z m220 -601 c0 -2 -53 -43
-117 -91 -65 -49 -139 -106 -164 -127 -59 -48 -78 -50 -24 -2 22 20 32 33 23
30 -47 -16 -50 -16 -17 3 20 11 42 21 49 23 7 2 20 9 29 16 15 13 213 150 219
151 1 1 2 -1 2 -3z m246 -11 c-11 -8 -25 -15 -30 -15 -6 1 0 7 14 15 32 19 40
18 16 0z m734 -80 c0 -5 -56 -21 -105 -29 -16 -3 -5 3 25 13 57 20 80 24 80
16z m-1332 -22 c-8 -10 -20 -27 -26 -38 -6 -11 -12 -15 -12 -9 0 12 38 64 47
64 3 0 -1 -8 -9 -17z m1109 -39 c-3 -3 -12 -4 -19 -1 -8 3 -5 6 6 6 11 1 17
-2 13 -5z m-40 -10 c-3 -3 -12 -4 -19 -1 -8 3 -5 6 6 6 11 1 17 -2 13 -5z
m-42 -9 c-33 -11 -233 -65 -241 -65 -18 1 93 41 151 54 53 12 116 20 90 11z
m-1030 -38 c18 -4 18 -5 -2 -6 -14 -1 -26 7 -33 22 -10 19 -9 20 2 6 8 -9 22
-19 33 -22z m765 -36 c-8 -5 -33 -12 -55 -15 l-40 -6 40 14 c48 17 79 20 55 7z
m-610 -15 c0 -2 -8 -10 -17 -17 -16 -13 -17 -12 -4 4 13 16 21 21 21 13z m-40
-29 c0 -2 -12 -14 -27 -28 l-28 -24 24 28 c23 25 31 32 31 24z m237 -33 c-3
-3 -12 -4 -19 -1 -8 3 -5 6 6 6 11 1 17 -2 13 -5z m-152 -34 c-11 -5 -29 -8
-40 -8 -16 0 -15 2 5 8 34 11 60 11 35 0z m-1832 -147 c-7 -2 -19 -2 -25 0 -7
3 -2 5 12 5 14 0 19 -2 13 -5z m2208 -960 c13 -16 12 -17 -3 -4 -17 13 -22 21
-14 21 2 0 10 -8 17 -17z m-758 -243 c4 -30 3 -38 -3 -24 -4 12 -11 43 -14 70
-7 61 8 20 17 -46z m-782 -267 c-12 -20 -14 -14 -5 12 4 9 9 14 11 11 3 -2 0
-13 -6 -23z"
          />
          <path
            d="M4079 3193 c-13 -16 -12 -17 4 -4 16 13 21 21 13 21 -2 0 -10 -8 -17
-17z"
          />
          <path
            d="M4110 1872 c0 -4 10 -13 23 -21 22 -14 22 -14 3 8 -20 22 -26 25 -26
13z"
          />
          <path d="M4180 2900 c-9 -6 -10 -10 -3 -10 6 0 15 5 18 10 8 12 4 12 -15 0z" />
          <path
            d="M2850 2697 c105 -56 123 -89 69 -130 -19 -13 -51 -21 -105 -26 l-79
-7 73 -13 c79 -14 102 -34 82 -71 -20 -38 -112 -94 -215 -131 -62 -22 -33 -24
60 -4 206 45 262 -3 141 -121 l-53 -52 53 24 c70 31 129 40 149 24 9 -7 3 12
-14 46 -48 100 -55 131 -54 254 0 90 5 128 22 174 26 72 26 69 -1 55 -21 -11
-132 -8 -173 5 -11 4 9 -8 45 -27z"
          />

          {/* inside hand, main */}
          <path
            d="M4097 6588 c-119 -125 -129 -133 -254 -216 -39 -26 -90 -71 -112
-100 -45 -57 -114 -112 -140 -112 -27 0 -172 -50 -234 -81 -67 -33 -135 -102
-212 -216 -49 -71 -52 -79 -34 -85 29 -11 24 -31 -6 -24 -27 7 -32 -2 -12 -23
10 -11 8 -13 -10 -9 -17 5 -32 -7 -73 -56 -28 -35 -78 -80 -110 -100 -33 -21
-60 -41 -60 -43 0 -3 10 -13 22 -22 l22 -18 -45 -53 c-41 -48 -46 -52 -80 -47
-39 5 -76 -8 -49 -17 78 -25 172 7 215 73 29 43 69 77 124 106 19 9 57 35 84
57 39 30 58 39 83 36 28 -2 39 4 72 42 21 25 52 71 67 103 16 31 30 56 31 54
7 -7 -28 -103 -55 -150 -28 -51 -44 -106 -56 -197 -3 -25 -23 -83 -44 -130
-41 -89 -39 -78 -32 -246 1 -27 7 -33 44 -48 23 -9 50 -16 59 -16 9 0 30 -11
46 -24 l29 -25 21 92 c11 51 23 116 26 146 6 58 25 88 50 78 22 -9 45 -49 50
-88 18 -144 18 -166 -4 -250 -20 -77 -30 -212 -17 -225 3 -3 15 0 28 6 13 8
43 10 74 7 l52 -5 6 87 c3 48 13 116 22 152 21 83 55 170 65 164 4 -3 11 -26
15 -52 4 -27 19 -84 33 -128 18 -58 25 -100 25 -152 l-1 -71 60 -7 c32 -4 60
-6 61 -4 11 17 44 265 39 291 -8 39 1 150 10 128 17 -41 24 -234 12 -322 -5
-37 -5 -38 21 -28 15 6 39 10 55 10 27 0 29 2 40 73 8 46 28 106 57 167 l45
95 -11 78 c-8 56 -8 115 0 210 7 93 7 148 0 187 -13 67 -4 109 37 182 21 37
31 72 35 115 4 55 10 68 49 114 23 28 78 74 121 102 l78 50 -64 42 c-65 42
-136 112 -149 146 -4 9 -18 35 -31 56 -34 54 -70 187 -62 229 3 19 2 34 -3 34
-5 0 -61 -55 -125 -122z m-507 -1053 c-7 -25 -17 -48 -21 -51 -5 -3 -9 -22 -9
-43 0 -21 -6 -44 -14 -50 -12 -10 -14 -4 -14 38 -1 31 4 54 14 61 8 7 14 17
14 22 0 18 30 81 37 75 3 -4 0 -27 -7 -52z m238 -62 c-6 -16 -10 -46 -9 -67 2
-42 -15 -96 -31 -96 -5 0 -6 10 -2 23 4 12 6 37 5 55 -1 19 6 51 16 73 20 44
38 54 21 12z m243 -97 c14 -15 11 -80 -5 -102 -19 -26 -31 -12 -18 24 5 15 8
59 7 98 -1 38 0 51 2 29 2 -22 8 -44 14 -49z"
          />
          {/* the cut */}
          <path
            d="M4270 6677 c0 -44 49 -166 93 -234 53 -81 83 -110 161 -157 68 -41
101 -46 109 -16 12 48 -14 89 -140 222 -214 226 -223 233 -223 185z m195 -203
c31 -20 35 -64 6 -64 -29 0 -76 43 -68 63 8 21 31 22 62 1z"
          />
          <path
            d="M4445 6450 c10 -11 20 -20 23 -20 3 0 -3 9 -13 20 -10 11 -20 20 -23
20 -3 0 3 -9 13 -20z"
          />
          <path
            d="M2788 5454 c-40 -59 -26 -60 32 -3 26 26 29 34 18 45 -11 10 -20 2
-50 -42z"
          />

          {/* fingers */}
          <path
            d="M3195 4930 c-18 -20 -15 -24 15 -21 8 1 37 -5 62 -13 46 -13 47 -13
37 5 -10 20 -59 49 -82 49 -8 0 -22 -9 -32 -20z"
          />
          <path
            d="M3186 4783 c-18 -196 -18 -223 -5 -275 l13 -53 8 64 c4 35 9 65 11
68 3 2 19 5 36 5 29 1 31 3 31 39 0 22 9 62 20 91 11 29 20 65 20 79 0 23 -6
28 -44 38 -81 20 -83 19 -90 -56z"
          />
          {/* 2d finger */}
          <path
            d="M3253 4562 c-14 -10 -28 -122 -14 -122 15 0 29 31 34 78 5 43 -1 56
-20 44z"
          />
          <path
            d="M3200 4414 c0 -11 6 -28 13 -38 13 -18 14 -18 21 -1 4 12 0 26 -14
39 l-20 20 0 -20z"
          />
          {/* pinkie */}
          <path
            d="M4020 4780 c-11 -8 -7 -9 15 -4 37 8 45 14 19 14 -10 0 -26 -5 -34
-10z"
          />
          <path
            d="M3983 4669 c-26 -57 -29 -69 -15 -64 9 4 25 7 35 7 9 0 17 3 17 7 0
4 13 28 29 52 31 45 30 49 -14 63 -17 5 -25 -5 -52 -65z"
          />
          <path
            d="M3967 4560 c-16 -26 -16 -29 -2 -24 14 6 35 34 35 48 0 16 -18 3 -33
-24z"
          />

          {/* fck */}
          <path
            d="M3573 4693 c4 -3 24 -14 46 -24 34 -15 40 -15 45 -2 11 29 6 33 -46
33 -28 0 -48 -3 -45 -7z"
          />
          <path
            d="M3500 4533 c-15 -139 -14 -369 1 -393 6 -10 7 4 3 40 -7 71 7 110 40
110 20 0 27 8 40 48 8 26 16 72 18 102 1 30 10 79 20 109 10 30 18 57 18 61 0
9 -58 36 -96 44 l-30 7 -14 -128z"
          />
          <path
            d="M3774 4354 c-22 -53 -12 -62 19 -15 31 47 32 51 11 51 -8 0 -22 -16
-30 -36z"
          />
          <path
            d="M3526 4238 c-17 -64 1 -73 22 -10 9 25 8 32 -2 32 -8 0 -16 -10 -20
-22z"
          />
          {/* 4th finger */}
          <path
            d="M3805 4672 c-4 -9 -10 -51 -15 -92 -4 -41 -19 -113 -33 -159 -31 -97
-46 -199 -26 -166 7 11 13 39 14 62 1 55 32 98 71 98 27 0 30 5 47 60 25 82
42 134 58 172 17 41 9 48 -35 33 -25 -8 -41 -8 -55 -1 -15 8 -20 7 -26 -7z"
          />
          <path d="M3741 4554 c0 -11 3 -14 6 -6 3 7 2 16 -1 19 -3 4 -6 -2 -5 -13z" />

          {/* left ray from hand to sun */}
          <path
            d="M3450 5204 c-17 -79 -17 -81 -25 -144 -4 -30 -10 -59 -14 -65 -3 -5
-7 -32 -8 -60 -1 -27 -4 -80 -8 -116 -4 -39 -1 -140 8 -245 9 -99 19 -249 22
-334 3 -85 11 -195 16 -245 6 -49 12 -153 15 -230 6 -183 22 -416 29 -423 3
-3 5 11 5 31 0 53 82 540 143 852 26 128 33 165 96 452 33 150 37 226 17 308
l-12 50 -13 -80 c-8 -44 -14 -131 -13 -193 1 -88 -4 -125 -19 -170 -25 -73
-39 -131 -49 -210 -9 -73 -74 -247 -103 -279 -29 -33 -43 -29 -62 20 -16 37
-18 83 -19 397 -1 195 2 371 6 390 4 19 13 60 21 90 10 42 11 77 4 150 -5 52
-13 99 -17 104 -5 4 -14 -18 -20 -50z"
          />
          {/* right ray */}
          <path
            d="M4039 4568 c-16 -35 -39 -62 -70 -85 -26 -18 -51 -46 -56 -61 -6 -15
-25 -70 -42 -122 -18 -52 -57 -167 -88 -255 -63 -181 -80 -238 -162 -525 -88
-305 -103 -370 -85 -370 22 0 49 30 73 83 39 84 142 397 251 757 63 209 127
403 189 569 27 71 21 75 -10 9z"
          />
          <path d="M3732 4510 c0 -14 2 -19 5 -12 2 6 2 18 0 25 -3 6 -5 1 -5 -13z" />
          <path
            d="M3819 4314 c-19 -26 -44 -64 -57 -85 -38 -63 -64 -52 -74 31 -2 14
-9 -18 -16 -70 -8 -52 -20 -131 -27 -175 -25 -138 -76 -507 -72 -511 2 -3 10
17 17 43 51 199 158 530 228 711 22 56 39 102 38 102 -1 0 -18 -21 -37 -46z"
          />

          {/* eye */}
          {/* circle around the eye */}
          <path
            d="M3470 3052 c-81 -11 -201 -65 -276 -126 -103 -82 -165 -191 -191
       -331 -14 -78 -14 -92 1 -176 23 -124 69 -212 154 -297 111 -111 255 -172 403
       -172 110 0 173 14 269 62 341 166 404 602 125 866 -85 81 -182 134 -287 156
       -79 16 -158 24 -198 18z"
          />
          {/* eyebrow and bottom lids*/}
          <path
            d="M3470 3052  m-40 -276 c0 -2 -19 -15 -42 -29 -41 -24 -140 -117
-125 -117 4 0 27 18 51 40 76 70 158 94 270 78 89 -12 118 -25 184 -78 63 -53
70 -73 7 -26 -62 48 -142 70 -242 69 -96 -1 -142 -19 -236 -94 -85 -69 -110
-65 -63 9 30 47 67 81 130 121 46 29 66 37 66 27z m271 -188 c70 -32 199 -112
199 -123 0 -12 -84 -45 -162 -64 -151 -38 -312 -26 -418 30 -38 20 -80 54 -80
64 0 11 64 66 108 92 60 36 94 43 192 39 73 -2 96 -7 161 -38z m-384 -195
c104 -83 237 -110 357 -73 37 12 76 24 85 27 9 2 -1 -6 -22 -20 -63 -40 -134
-52 -229 -38 -45 7 -100 20 -122 28 -61 24 -136 81 -136 104 0 23 7 20 67 -28z
m361 -154 c-16 -11 -155 -12 -161 -1 -3 4 35 7 85 8 51 1 84 -3 76 -7z"
          />

          {/* eye pupil */}
          {/* inside pupil*/}
          <path d="M3545 2580 c3 -5 12 -7 20 -3 21 7 19 13 -6 13 -11 0 -18 -4 -14 -10z" />
          {/* main pupil */}
          <path
            d="M3476 2568 c31 -55 47 -68 78 -68 37 0 81 29 89 60 6 24 -18 27 -42
6 -30 -27 -67 -30 -90 -7 -23 23 -47 29 -35 9z"
          />
          {/* inside eye */}
          <path
            d="M3332 2531 c-68 -41 -68 -43 -2 -76 55 -28 129 -45 201 -45 66 0 220
34 288 63 l35 15 -72 36 c-82 41 -82 41 -82 21 0 -76 -152 -134 -231 -88 -28
17 -64 86 -54 104 12 18 -21 6 -83 -30z"
          />
        </g>
      </svg>